G04 FreePCB version 1.353*
G04 C:\Users\Spatt\Dropbox\HPF-Pre\Design explorations\Channel Two\CAM 03\bottom_copper.grb*
G04 bottom copper layer *
G04 Scale: 100 percent, Rotated: No, Reflected: No *
%FSLAX24Y24*%
%MOIN*%
%LN bottom copper *%
G04 Rounded Rectangle Macro, params: W/2, H/2, R *
%AMRNDREC*
21,1,$1+$1,$2+$2-$3-$3,0,0,0*
21,1,$1+$1-$3-$3,$2+$2,0,0,0*
1,1,$3+$3,$1-$3,$2-$3*
1,1,$3+$3,$3-$1,$2-$3*
1,1,$3+$3,$1-$3,$3-$2*
1,1,$3+$3,$3-$1,$3-$2*%
G04 Rectangular Thermal Macro, params: W/2, H/2, T/2 *
%AMRECTHERM*
$4=$3/2*
21,1,$1-$3,$2-$3,0-$1/2-$4,0-$2/2-$4,0*
21,1,$1-$3,$2-$3,0-$1/2-$4,$2/2+$4,0*
21,1,$1-$3,$2-$3,$1/2+$4,0-$2/2-$4,0*
21,1,$1-$3,$2-$3,$1/2+$4,$2/2+$4,0*%
%ADD10C,0.005000*%
%ADD11C,0.135000*%
%ADD12C,0.130000*%
%ADD13C,0.076000*%
%AMTHERM14*7,0,0,0.060000,0.040000,0.010000,45.0*%
%ADD14THERM14*%
%ADD15C,0.001000*%
%ADD16RECTHERM,0.040000X0.040000X0.005000*%
%ADD17C,0.080000*%
%ADD18R,0.085000X0.085000*%
%AMTHERM19*7,0,0,0.085000,0.065000,0.010000,45.0*%
%ADD19THERM19*%
%ADD20C,0.048000*%
%ADD21C,0.032000*%
%ADD22C,0.115000*%
%ADD23C,0.110000*%
%ADD24C,0.056000*%
%ADD25C,0.040000*%
%ADD26R,0.060000X0.060000*%
%ADD27C,0.060000*%
%ADD28R,0.065000X0.065000*%
%ADD29C,0.065000*%
%ADD30C,0.028000*%
%ADD31C,0.012000*%
G90*
G70D02*

G04 Step and Repeat for panelization *

G04 ----------------------- Draw board outline (positive)*
%LPD*%
G54D10*
G01X0Y10100D02*
G01X0Y0D01*
G04 end of side 1*
G01X32700Y0D01*
G04 end of side 2*
G01X32700Y10100D01*
G04 end of side 3*
G01X0Y10100D01*

G04 ----------------------- Draw copper area (positive)*
G36*
G01X32400Y200D02*
G01X300Y200D01*
G01X300Y9800D01*
G01X32400Y9800D01*
G01X32400Y200D01*
G37*

G04 -------------------- Draw copper area clearances (negative)*
%LPC*%

G04 Draw clearances for pads*
G54D11*
G01X4350Y3600D03*
G01X2880Y3600D03*
G01X1400Y3600D03*
G01X4350Y1630D03*
G01X2880Y1630D03*
G54D12*
G01X1400Y1630D03*
G54D11*
G01X13350Y3600D03*
G01X11880Y3600D03*
G01X10400Y3600D03*
G01X13350Y1630D03*
G01X11880Y1630D03*
G54D12*
G01X10400Y1630D03*
G54D11*
G01X22350Y3600D03*
G01X20880Y3600D03*
G01X19400Y3600D03*
G01X22350Y1630D03*
G01X20880Y1630D03*
G54D12*
G01X19400Y1630D03*
G54D11*
G01X31350Y3600D03*
G01X29880Y3600D03*
G01X28400Y3600D03*
G01X31350Y1630D03*
G01X29880Y1630D03*
G54D12*
G01X28400Y1630D03*
G54D13*
G01X14400Y7900D03*
G01X12400Y7900D03*
G01X12400Y6700D03*
G01X14400Y6700D03*
G54D14*
G01X26100Y8300D03*
G54D15*
G54D13*
G01X2800Y5900D03*
G01X4800Y5900D03*
G01X4800Y7000D03*
G01X2800Y7000D03*
G54D14*
G01X7500Y7800D03*
G54D15*
G54D14*
G01X10300Y5200D03*
G54D15*
G54D14*
G01X19100Y6600D03*
G54D15*
G54D14*
G01X26000Y9000D03*
G54D15*
G54D16*
G01X27700Y9300D03*
G54D15*
G54D17*
G01X28500Y9300D03*
G54D16*
G01X20000Y9300D03*
G54D15*
G54D17*
G01X20800Y9300D03*
G54D16*
G01X16200Y9300D03*
G54D15*
G54D17*
G01X17000Y9300D03*
G54D16*
G01X1300Y9300D03*
G54D15*
G54D17*
G01X2100Y9300D03*
G54D14*
G01X24400Y3800D03*
G54D15*
G54D18*
G01X6880Y1300D03*
G54D19*
G01X7880Y1300D03*
G54D15*

G04 Draw clearances for traces*
G54D20*
G01X26500Y5900D03*
G01X25700Y5900D03*
G54D21*
G01X25700Y5900D02*
G01X26500Y5900D01*
G54D20*
G01X17800Y5000D03*
G01X17800Y5600D03*
G54D21*
G01X17800Y5000D02*
G01X17800Y5600D01*
G54D20*
G01X15100Y6200D03*
G01X15100Y5600D03*
G54D21*
G01X15100Y6200D02*
G01X15100Y5600D01*
G54D20*
G01X17100Y1900D03*
G01X17100Y2500D03*
G54D21*
G01X17100Y1900D02*
G01X17100Y2500D01*
G54D20*
G01X6400Y6900D03*
G01X7000Y6900D03*
G54D21*
G01X6400Y6900D02*
G01X7000Y6900D01*
G54D20*
G01X7800Y5500D03*
G01X7800Y4900D03*
G54D21*
G01X7800Y5500D02*
G01X7800Y4900D01*
G54D20*
G01X27900Y5200D03*
G01X27900Y5800D03*
G54D21*
G01X27900Y5200D02*
G01X27900Y5800D01*
G54D20*
G01X10400Y8600D03*
G54D21*
G01X12400Y7900D02*
G01X10400Y8600D01*
G54D20*
G01X17500Y6600D03*
G01X17500Y5900D03*
G54D21*
G01X17500Y6600D02*
G01X17500Y5900D01*

G04 Draw clearances for text*

G04 -------------- Draw Parts, Pads, Traces, Vias and Text (positive)*
%LPD*%
G04 Draw part POT1*
G54D22*
G01X4350Y3600D03*
G01X2880Y3600D03*
G01X1400Y3600D03*
G01X4350Y1630D03*
G01X2880Y1630D03*
G54D23*
G01X1400Y1630D03*
G04 Draw part R22*
G54D22*
G01X13350Y3600D03*
G01X11880Y3600D03*
G01X10400Y3600D03*
G01X13350Y1630D03*
G01X11880Y1630D03*
G54D23*
G01X10400Y1630D03*
G04 Draw part R25*
G54D22*
G01X22350Y3600D03*
G01X20880Y3600D03*
G01X19400Y3600D03*
G01X22350Y1630D03*
G01X20880Y1630D03*
G54D23*
G01X19400Y1630D03*
G04 Draw part R72*
G54D22*
G01X31350Y3600D03*
G01X29880Y3600D03*
G01X28400Y3600D03*
G01X31350Y1630D03*
G01X29880Y1630D03*
G54D23*
G01X28400Y1630D03*
G04 Draw part U1*
G04 Draw part R31*
G04 Draw part C31*
G04 Draw part R32*
G04 Draw part R11*
G04 Draw part C11*
G04 Draw part R12*
G04 Draw part C30*
G04 Draw part C10*
G04 Draw part R71*
G04 Draw part R43*
G04 Draw part R44*
G04 Draw part R41*
G04 Draw part R42*
G04 Draw part C22*
G04 Draw part R26*
G04 Draw part R24*
G04 Draw part R23*
G04 Draw part R21*
G04 Draw part C21*
G04 Draw part R27*
G04 Draw part C51*
G54D24*
G01X14400Y7900D03*
G01X12400Y7900D03*
G04 Draw part C52*
G01X12400Y6700D03*
G01X14400Y6700D03*
G04 Draw part R52*
G04 Draw part D01*
G04 Draw part C01*
G04 Draw part R01*
G04 Draw part R02*
G04 Draw part gndpad1*
G54D25*
G01X26100Y8300D03*
G04 Draw part R51*
G04 Draw part C61*
G54D24*
G01X2800Y5900D03*
G01X4800Y5900D03*
G04 Draw part C62*
G01X4800Y7000D03*
G01X2800Y7000D03*
G04 Draw part R61*
G04 Draw part R63*
G04 Draw part R65*
G04 Draw part C63*
G04 Draw part R66*
G04 Draw part R67*
G04 Draw part m1*
G54D25*
G01X7500Y7800D03*
G04 Draw part m3*
G04 Draw part m4*
G01X10300Y5200D03*
G04 Draw part m5*
G04 Draw part m6*
G01X19100Y6600D03*
G04 Draw part m15*
G04 Draw part m16*
G01X26000Y9000D03*
G04 Draw part j1*
G54D26*
G01X27700Y9300D03*
G54D27*
G01X28500Y9300D03*
G04 Draw part j2*
G54D26*
G01X20000Y9300D03*
G54D27*
G01X20800Y9300D03*
G04 Draw part j3*
G54D26*
G01X16200Y9300D03*
G54D27*
G01X17000Y9300D03*
G04 Draw part j4*
G54D26*
G01X1300Y9300D03*
G54D27*
G01X2100Y9300D03*
G04 Draw part U2*
G04 Draw part j6*
G54D25*
G01X24400Y3800D03*
G04 Draw part LED*
G54D28*
G01X6880Y1300D03*
G54D29*
G01X7880Y1300D03*
G04 Draw part R03*
G04 Draw part dc9*

G04 Draw traces*
G54D30*
G01X26500Y5900D03*
G01X25700Y5900D03*
G54D31*
G01X25700Y5900D02*
G01X26500Y5900D01*
G54D30*
G01X17800Y5000D03*
G54D31*
G01X17800Y5000D02*
G01X17800Y5600D01*
G54D30*
G01X17800Y5600D03*
G01X15100Y6200D03*
G54D31*
G01X15100Y6200D02*
G01X15100Y5600D01*
G54D30*
G01X15100Y5600D03*
G01X17100Y1900D03*
G54D31*
G01X17100Y1900D02*
G01X17100Y2500D01*
G54D30*
G01X17100Y2500D03*
G01X6400Y6900D03*
G54D31*
G01X6400Y6900D02*
G01X7000Y6900D01*
G54D30*
G01X7000Y6900D03*
G01X7800Y5500D03*
G54D31*
G01X7800Y5500D02*
G01X7800Y4900D01*
G54D30*
G01X7800Y4900D03*
G01X27900Y5200D03*
G54D31*
G01X27900Y5200D02*
G01X27900Y5800D01*
G54D30*
G01X27900Y5800D03*
G54D31*
G01X12400Y7900D02*
G01X10400Y8600D01*
G54D30*
G01X10400Y8600D03*
G01X17500Y6600D03*
G54D31*
G01X17500Y6600D02*
G01X17500Y5900D01*
G54D30*
G01X17500Y5900D03*

G04 Draw Text*
M00*
M02*
