;Holesize 1 =   52.0 PLATED MILS
;Holesize 2 =   29.0 PLATED MILS
;Holesize 3 =   14.0 PLATED MILS
;Holesize 4 =   28.0 PLATED MILS
M48
INCH
T01C0.052
T02C0.029
T03C0.014
T04C0.028
%
G05
G90
T01
X004350Y003600
X002880Y003600
X001400Y003600
X004350Y001630
X002880Y001630
X001400Y001630
X013350Y003600
X011880Y003600
X010400Y003600
X013350Y001630
X011880Y001630
X010400Y001630
X022350Y003600
X020880Y003600
X019400Y003600
X022350Y001630
X020880Y001630
X019400Y001630
X031350Y003600
X029880Y003600
X028400Y003600
X031350Y001630
X029880Y001630
X028400Y001630
T02
X014400Y007900
X012400Y007900
X012400Y006700
X014400Y006700
X002800Y005900
X004800Y005900
X004800Y007000
X002800Y007000
X027700Y009300
X028500Y009300
X020000Y009300
X020800Y009300
X016200Y009300
X017000Y009300
X001300Y009300
X002100Y009300
T03
X026100Y008300
X007500Y007800
X010300Y005200
X019100Y006600
X026000Y009000
X024400Y003800
X026500Y005900
X025700Y005900
X017800Y005000
X017800Y005600
X015100Y006200
X015100Y005600
X017100Y001900
X017100Y002500
X006400Y006900
X007000Y006900
X007800Y005500
X007800Y004900
X027900Y005200
X027900Y005800
X010400Y008600
X017500Y006600
X017500Y005900
T04
X006880Y001300
X007880Y001300
M30
