G04 FreePCB version 1.353*
G04 C:\Users\Spatt\Dropbox\HPF-Pre\Design explorations\Channel Two\CAM 03\top_silk.grb*
G04 top silk layer *
G04 Scale: 100 percent, Rotated: No, Reflected: No *
%FSLAX24Y24*%
%MOIN*%
%LN top silk *%
G04 Rounded Rectangle Macro, params: W/2, H/2, R *
%AMRNDREC*
21,1,$1+$1,$2+$2-$3-$3,0,0,0*
21,1,$1+$1-$3-$3,$2+$2,0,0,0*
1,1,$3+$3,$1-$3,$2-$3*
1,1,$3+$3,$3-$1,$2-$3*
1,1,$3+$3,$1-$3,$3-$2*
1,1,$3+$3,$3-$1,$3-$2*%
G04 Rectangular Thermal Macro, params: W/2, H/2, T/2 *
%AMRECTHERM*
$4=$3/2*
21,1,$1-$3,$2-$3,0-$1/2-$4,0-$2/2-$4,0*
21,1,$1-$3,$2-$3,0-$1/2-$4,$2/2+$4,0*
21,1,$1-$3,$2-$3,$1/2+$4,0-$2/2-$4,0*
21,1,$1-$3,$2-$3,$1/2+$4,$2/2+$4,0*%
%ADD10C,0.005000*%
%ADD11C,0.010000*%
%ADD12C,0.008000*%
%ADD13C,0.007000*%
G90*
G70D02*

G04 Step and Repeat for panelization *

G04 ----------------------- Draw board outline (positive)*
%LPD*%
G54D10*
G01X0Y10100D02*
G01X0Y0D01*
G04 end of side 1*
G01X32700Y0D01*
G04 end of side 2*
G01X32700Y10100D01*
G04 end of side 3*
G01X0Y10100D01*

G04 -------------- Draw Parts, Pads, Traces, Vias and Text (positive)*
%LPD*%
G04 Draw part POT1*
G04 draw part outline for part POT1*
G54D11*
G01X400Y-330D02*
G01X5900Y-330D01*
G04 Draw part R22*
G04 draw part outline for part R22*
G01X9400Y-330D02*
G01X14900Y-330D01*
G04 draw reference designator for part R22*
G54D12*
G01X11900Y2877D02*
G01X11900Y2400D01*
G01X12104Y2877D02*
G01X11900Y2877D01*
G01X12104Y2877D02*
G01X12172Y2854D01*
G01X12172Y2854D02*
G01X12195Y2831D01*
G01X12195Y2831D02*
G01X12218Y2786D01*
G01X12218Y2786D02*
G01X12218Y2740D01*
G01X12218Y2740D02*
G01X12195Y2695D01*
G01X12195Y2695D02*
G01X12172Y2672D01*
G01X12172Y2672D02*
G01X12104Y2650D01*
G01X11900Y2650D02*
G01X12104Y2650D01*
G01X12059Y2650D02*
G01X12218Y2400D01*
G01X12422Y2786D02*
G01X12422Y2763D01*
G01X12445Y2831D02*
G01X12422Y2786D01*
G01X12468Y2854D02*
G01X12445Y2831D01*
G01X12513Y2877D02*
G01X12468Y2854D01*
G01X12604Y2877D02*
G01X12513Y2877D01*
G01X12604Y2877D02*
G01X12650Y2854D01*
G01X12650Y2854D02*
G01X12672Y2831D01*
G01X12672Y2831D02*
G01X12695Y2786D01*
G01X12695Y2786D02*
G01X12695Y2740D01*
G01X12695Y2740D02*
G01X12672Y2695D01*
G01X12672Y2695D02*
G01X12627Y2627D01*
G01X12627Y2627D02*
G01X12400Y2400D01*
G01X12718Y2400D02*
G01X12400Y2400D01*
G01X12922Y2786D02*
G01X12922Y2763D01*
G01X12945Y2831D02*
G01X12922Y2786D01*
G01X12968Y2854D02*
G01X12945Y2831D01*
G01X13013Y2877D02*
G01X12968Y2854D01*
G01X13104Y2877D02*
G01X13013Y2877D01*
G01X13104Y2877D02*
G01X13150Y2854D01*
G01X13150Y2854D02*
G01X13172Y2831D01*
G01X13172Y2831D02*
G01X13195Y2786D01*
G01X13195Y2786D02*
G01X13195Y2740D01*
G01X13195Y2740D02*
G01X13172Y2695D01*
G01X13172Y2695D02*
G01X13127Y2627D01*
G01X13127Y2627D02*
G01X12900Y2400D01*
G01X13218Y2400D02*
G01X12900Y2400D01*
G04 Draw part R25*
G04 draw part outline for part R25*
G54D11*
G01X18400Y-330D02*
G01X23900Y-330D01*
G04 draw reference designator for part R25*
G54D12*
G01X20800Y2775D02*
G01X20800Y2400D01*
G01X20961Y2775D02*
G01X20800Y2775D01*
G01X20961Y2775D02*
G01X21014Y2757D01*
G01X21014Y2757D02*
G01X21032Y2740D01*
G01X21032Y2740D02*
G01X21050Y2704D01*
G01X21050Y2704D02*
G01X21050Y2668D01*
G01X21050Y2668D02*
G01X21032Y2632D01*
G01X21032Y2632D02*
G01X21014Y2614D01*
G01X21014Y2614D02*
G01X20961Y2596D01*
G01X20800Y2596D02*
G01X20961Y2596D01*
G01X20925Y2596D02*
G01X21050Y2400D01*
G01X21211Y2704D02*
G01X21211Y2686D01*
G01X21229Y2740D02*
G01X21211Y2704D01*
G01X21247Y2757D02*
G01X21229Y2740D01*
G01X21283Y2775D02*
G01X21247Y2757D01*
G01X21354Y2775D02*
G01X21283Y2775D01*
G01X21354Y2775D02*
G01X21390Y2757D01*
G01X21390Y2757D02*
G01X21408Y2740D01*
G01X21408Y2740D02*
G01X21426Y2704D01*
G01X21426Y2704D02*
G01X21426Y2668D01*
G01X21426Y2668D02*
G01X21408Y2632D01*
G01X21408Y2632D02*
G01X21372Y2578D01*
G01X21372Y2578D02*
G01X21193Y2400D01*
G01X21444Y2400D02*
G01X21193Y2400D01*
G01X21623Y2775D02*
G01X21802Y2775D01*
G01X21623Y2775D02*
G01X21605Y2614D01*
G01X21623Y2632D02*
G01X21605Y2614D01*
G01X21676Y2650D02*
G01X21623Y2632D01*
G01X21730Y2650D02*
G01X21676Y2650D01*
G01X21730Y2650D02*
G01X21784Y2632D01*
G01X21784Y2632D02*
G01X21820Y2596D01*
G01X21820Y2596D02*
G01X21837Y2543D01*
G01X21837Y2543D02*
G01X21837Y2507D01*
G01X21837Y2507D02*
G01X21820Y2453D01*
G01X21820Y2453D02*
G01X21784Y2417D01*
G01X21784Y2417D02*
G01X21730Y2400D01*
G01X21676Y2400D02*
G01X21730Y2400D01*
G01X21623Y2417D02*
G01X21676Y2400D01*
G01X21605Y2435D02*
G01X21623Y2417D01*
G01X21587Y2471D02*
G01X21605Y2435D01*
G04 Draw part R72*
G04 draw part outline for part R72*
G54D11*
G01X27400Y-330D02*
G01X32900Y-330D01*
G04 draw reference designator for part R72*
G54D12*
G01X29900Y2775D02*
G01X29900Y2400D01*
G01X30061Y2775D02*
G01X29900Y2775D01*
G01X30061Y2775D02*
G01X30114Y2757D01*
G01X30114Y2757D02*
G01X30132Y2740D01*
G01X30132Y2740D02*
G01X30150Y2704D01*
G01X30150Y2704D02*
G01X30150Y2668D01*
G01X30150Y2668D02*
G01X30132Y2632D01*
G01X30132Y2632D02*
G01X30114Y2614D01*
G01X30114Y2614D02*
G01X30061Y2596D01*
G01X29900Y2596D02*
G01X30061Y2596D01*
G01X30025Y2596D02*
G01X30150Y2400D01*
G01X30544Y2775D02*
G01X30365Y2400D01*
G01X30544Y2775D02*
G01X30293Y2775D01*
G01X30705Y2704D02*
G01X30705Y2686D01*
G01X30723Y2740D02*
G01X30705Y2704D01*
G01X30741Y2757D02*
G01X30723Y2740D01*
G01X30776Y2775D02*
G01X30741Y2757D01*
G01X30848Y2775D02*
G01X30776Y2775D01*
G01X30848Y2775D02*
G01X30884Y2757D01*
G01X30884Y2757D02*
G01X30902Y2740D01*
G01X30902Y2740D02*
G01X30920Y2704D01*
G01X30920Y2704D02*
G01X30920Y2668D01*
G01X30920Y2668D02*
G01X30902Y2632D01*
G01X30902Y2632D02*
G01X30866Y2578D01*
G01X30866Y2578D02*
G01X30687Y2400D01*
G01X30937Y2400D02*
G01X30687Y2400D01*
G04 Draw part U1*
G04 draw part outline for part U1*
G54D13*
G01X25000Y5300D02*
G01X27100Y5300D01*
G01X27100Y5300D02*
G01X27100Y6800D01*
G01X27100Y6800D02*
G01X25000Y6800D01*
G01X25000Y6800D02*
G01X25000Y5300D01*
G01X25000Y5300D02*
G01X25200Y5300D01*
G01X25200Y5300D02*
G01X25200Y5800D01*
G01X25200Y5800D02*
G01X25000Y5800D01*
G01X25000Y5800D02*
G01X25000Y5300D01*
G04 draw reference designator for part U1*
G01X27200Y6175D02*
G01X27200Y5907D01*
G01X27200Y5907D02*
G01X27217Y5853D01*
G01X27217Y5853D02*
G01X27253Y5817D01*
G01X27253Y5817D02*
G01X27307Y5800D01*
G01X27343Y5800D02*
G01X27307Y5800D01*
G01X27396Y5817D02*
G01X27343Y5800D01*
G01X27432Y5853D02*
G01X27396Y5817D01*
G01X27450Y5907D02*
G01X27432Y5853D01*
G01X27450Y6175D02*
G01X27450Y5907D01*
G01X27629Y6122D02*
G01X27593Y6104D01*
G01X27683Y6175D02*
G01X27629Y6122D01*
G01X27683Y6175D02*
G01X27683Y5800D01*
G04 Draw part R31*
G04 draw part outline for part R31*
G01X19625Y8193D02*
G01X21122Y8193D01*
G01X21122Y8193D02*
G01X21122Y7406D01*
G01X21122Y7406D02*
G01X19625Y7406D01*
G01X19625Y7406D02*
G01X19625Y8193D01*
G04 draw reference designator for part R31*
G01X19900Y8875D02*
G01X19900Y8500D01*
G01X20061Y8875D02*
G01X19900Y8875D01*
G01X20061Y8875D02*
G01X20114Y8857D01*
G01X20114Y8857D02*
G01X20132Y8840D01*
G01X20132Y8840D02*
G01X20150Y8804D01*
G01X20150Y8804D02*
G01X20150Y8768D01*
G01X20150Y8768D02*
G01X20132Y8732D01*
G01X20132Y8732D02*
G01X20114Y8714D01*
G01X20114Y8714D02*
G01X20061Y8696D01*
G01X19900Y8696D02*
G01X20061Y8696D01*
G01X20025Y8696D02*
G01X20150Y8500D01*
G01X20526Y8875D02*
G01X20329Y8875D01*
G01X20526Y8875D02*
G01X20418Y8732D01*
G01X20472Y8732D02*
G01X20418Y8732D01*
G01X20472Y8732D02*
G01X20508Y8714D01*
G01X20508Y8714D02*
G01X20526Y8696D01*
G01X20526Y8696D02*
G01X20544Y8643D01*
G01X20544Y8643D02*
G01X20544Y8607D01*
G01X20544Y8607D02*
G01X20526Y8553D01*
G01X20526Y8553D02*
G01X20490Y8517D01*
G01X20490Y8517D02*
G01X20436Y8500D01*
G01X20383Y8500D02*
G01X20436Y8500D01*
G01X20329Y8517D02*
G01X20383Y8500D01*
G01X20311Y8535D02*
G01X20329Y8517D01*
G01X20293Y8571D02*
G01X20311Y8535D01*
G01X20723Y8822D02*
G01X20687Y8804D01*
G01X20776Y8875D02*
G01X20723Y8822D01*
G01X20776Y8875D02*
G01X20776Y8500D01*
G04 Draw part C31*
G04 draw part outline for part C31*
G01X21525Y8733D02*
G01X23022Y8733D01*
G01X23022Y8733D02*
G01X23022Y7866D01*
G01X23022Y7866D02*
G01X21525Y7866D01*
G01X21525Y7866D02*
G01X21525Y8733D01*
G04 draw reference designator for part C31*
G01X23550Y8422D02*
G01X23568Y8386D01*
G01X23514Y8457D02*
G01X23550Y8422D01*
G01X23478Y8475D02*
G01X23514Y8457D01*
G01X23407Y8475D02*
G01X23478Y8475D01*
G01X23407Y8475D02*
G01X23371Y8457D01*
G01X23371Y8457D02*
G01X23335Y8422D01*
G01X23335Y8422D02*
G01X23317Y8386D01*
G01X23317Y8386D02*
G01X23300Y8332D01*
G01X23300Y8332D02*
G01X23300Y8243D01*
G01X23300Y8243D02*
G01X23317Y8189D01*
G01X23317Y8189D02*
G01X23335Y8153D01*
G01X23335Y8153D02*
G01X23371Y8117D01*
G01X23371Y8117D02*
G01X23407Y8100D01*
G01X23478Y8100D02*
G01X23407Y8100D01*
G01X23514Y8117D02*
G01X23478Y8100D01*
G01X23550Y8153D02*
G01X23514Y8117D01*
G01X23568Y8189D02*
G01X23550Y8153D01*
G01X23944Y8475D02*
G01X23747Y8475D01*
G01X23944Y8475D02*
G01X23836Y8332D01*
G01X23890Y8332D02*
G01X23836Y8332D01*
G01X23890Y8332D02*
G01X23926Y8314D01*
G01X23926Y8314D02*
G01X23944Y8296D01*
G01X23944Y8296D02*
G01X23962Y8243D01*
G01X23962Y8243D02*
G01X23962Y8207D01*
G01X23962Y8207D02*
G01X23944Y8153D01*
G01X23944Y8153D02*
G01X23908Y8117D01*
G01X23908Y8117D02*
G01X23854Y8100D01*
G01X23801Y8100D02*
G01X23854Y8100D01*
G01X23747Y8117D02*
G01X23801Y8100D01*
G01X23729Y8135D02*
G01X23747Y8117D01*
G01X23711Y8171D02*
G01X23729Y8135D01*
G01X24141Y8422D02*
G01X24105Y8404D01*
G01X24194Y8475D02*
G01X24141Y8422D01*
G01X24194Y8475D02*
G01X24194Y8100D01*
G04 Draw part R32*
G04 draw part outline for part R32*
G01X21525Y7493D02*
G01X23022Y7493D01*
G01X23022Y7493D02*
G01X23022Y6706D01*
G01X23022Y6706D02*
G01X21525Y6706D01*
G01X21525Y6706D02*
G01X21525Y7493D01*
G04 draw reference designator for part R32*
G01X23300Y7175D02*
G01X23300Y6800D01*
G01X23461Y7175D02*
G01X23300Y7175D01*
G01X23461Y7175D02*
G01X23514Y7157D01*
G01X23514Y7157D02*
G01X23532Y7140D01*
G01X23532Y7140D02*
G01X23550Y7104D01*
G01X23550Y7104D02*
G01X23550Y7068D01*
G01X23550Y7068D02*
G01X23532Y7032D01*
G01X23532Y7032D02*
G01X23514Y7014D01*
G01X23514Y7014D02*
G01X23461Y6996D01*
G01X23300Y6996D02*
G01X23461Y6996D01*
G01X23425Y6996D02*
G01X23550Y6800D01*
G01X23926Y7175D02*
G01X23729Y7175D01*
G01X23926Y7175D02*
G01X23818Y7032D01*
G01X23872Y7032D02*
G01X23818Y7032D01*
G01X23872Y7032D02*
G01X23908Y7014D01*
G01X23908Y7014D02*
G01X23926Y6996D01*
G01X23926Y6996D02*
G01X23944Y6943D01*
G01X23944Y6943D02*
G01X23944Y6907D01*
G01X23944Y6907D02*
G01X23926Y6853D01*
G01X23926Y6853D02*
G01X23890Y6817D01*
G01X23890Y6817D02*
G01X23836Y6800D01*
G01X23783Y6800D02*
G01X23836Y6800D01*
G01X23729Y6817D02*
G01X23783Y6800D01*
G01X23711Y6835D02*
G01X23729Y6817D01*
G01X23693Y6871D02*
G01X23711Y6835D01*
G01X24105Y7104D02*
G01X24105Y7086D01*
G01X24123Y7140D02*
G01X24105Y7104D01*
G01X24141Y7157D02*
G01X24123Y7140D01*
G01X24176Y7175D02*
G01X24141Y7157D01*
G01X24248Y7175D02*
G01X24176Y7175D01*
G01X24248Y7175D02*
G01X24284Y7157D01*
G01X24284Y7157D02*
G01X24302Y7140D01*
G01X24302Y7140D02*
G01X24320Y7104D01*
G01X24320Y7104D02*
G01X24320Y7068D01*
G01X24320Y7068D02*
G01X24302Y7032D01*
G01X24302Y7032D02*
G01X24266Y6978D01*
G01X24266Y6978D02*
G01X24087Y6800D01*
G01X24337Y6800D02*
G01X24087Y6800D01*
G04 Draw part R11*
G04 draw part outline for part R11*
G01X29574Y7106D02*
G01X28077Y7106D01*
G01X28077Y7106D02*
G01X28077Y7893D01*
G01X28077Y7893D02*
G01X29574Y7893D01*
G01X29574Y7893D02*
G01X29574Y7106D01*
G04 draw reference designator for part R11*
G01X28500Y8475D02*
G01X28500Y8100D01*
G01X28661Y8475D02*
G01X28500Y8475D01*
G01X28661Y8475D02*
G01X28714Y8457D01*
G01X28714Y8457D02*
G01X28732Y8440D01*
G01X28732Y8440D02*
G01X28750Y8404D01*
G01X28750Y8404D02*
G01X28750Y8368D01*
G01X28750Y8368D02*
G01X28732Y8332D01*
G01X28732Y8332D02*
G01X28714Y8314D01*
G01X28714Y8314D02*
G01X28661Y8296D01*
G01X28500Y8296D02*
G01X28661Y8296D01*
G01X28625Y8296D02*
G01X28750Y8100D01*
G01X28929Y8422D02*
G01X28893Y8404D01*
G01X28983Y8475D02*
G01X28929Y8422D01*
G01X28983Y8475D02*
G01X28983Y8100D01*
G01X29162Y8422D02*
G01X29126Y8404D01*
G01X29215Y8475D02*
G01X29162Y8422D01*
G01X29215Y8475D02*
G01X29215Y8100D01*
G04 Draw part C11*
G04 draw part outline for part C11*
G01X31674Y6866D02*
G01X30177Y6866D01*
G01X30177Y6866D02*
G01X30177Y7733D01*
G01X30177Y7733D02*
G01X31674Y7733D01*
G01X31674Y7733D02*
G01X31674Y6866D01*
G04 draw reference designator for part C11*
G01X30650Y8322D02*
G01X30668Y8286D01*
G01X30614Y8357D02*
G01X30650Y8322D01*
G01X30578Y8375D02*
G01X30614Y8357D01*
G01X30507Y8375D02*
G01X30578Y8375D01*
G01X30507Y8375D02*
G01X30471Y8357D01*
G01X30471Y8357D02*
G01X30435Y8322D01*
G01X30435Y8322D02*
G01X30417Y8286D01*
G01X30417Y8286D02*
G01X30400Y8232D01*
G01X30400Y8232D02*
G01X30400Y8143D01*
G01X30400Y8143D02*
G01X30417Y8089D01*
G01X30417Y8089D02*
G01X30435Y8053D01*
G01X30435Y8053D02*
G01X30471Y8017D01*
G01X30471Y8017D02*
G01X30507Y8000D01*
G01X30578Y8000D02*
G01X30507Y8000D01*
G01X30614Y8017D02*
G01X30578Y8000D01*
G01X30650Y8053D02*
G01X30614Y8017D01*
G01X30668Y8089D02*
G01X30650Y8053D01*
G01X30847Y8322D02*
G01X30811Y8304D01*
G01X30901Y8375D02*
G01X30847Y8322D01*
G01X30901Y8375D02*
G01X30901Y8000D01*
G01X31080Y8322D02*
G01X31044Y8304D01*
G01X31133Y8375D02*
G01X31080Y8322D01*
G01X31133Y8375D02*
G01X31133Y8000D01*
G04 Draw part R12*
G04 draw part outline for part R12*
G01X31674Y5906D02*
G01X30177Y5906D01*
G01X30177Y5906D02*
G01X30177Y6693D01*
G01X30177Y6693D02*
G01X31674Y6693D01*
G01X31674Y6693D02*
G01X31674Y5906D01*
G04 draw reference designator for part R12*
G01X30500Y5775D02*
G01X30500Y5400D01*
G01X30661Y5775D02*
G01X30500Y5775D01*
G01X30661Y5775D02*
G01X30714Y5757D01*
G01X30714Y5757D02*
G01X30732Y5740D01*
G01X30732Y5740D02*
G01X30750Y5704D01*
G01X30750Y5704D02*
G01X30750Y5668D01*
G01X30750Y5668D02*
G01X30732Y5632D01*
G01X30732Y5632D02*
G01X30714Y5614D01*
G01X30714Y5614D02*
G01X30661Y5596D01*
G01X30500Y5596D02*
G01X30661Y5596D01*
G01X30625Y5596D02*
G01X30750Y5400D01*
G01X30929Y5722D02*
G01X30893Y5704D01*
G01X30983Y5775D02*
G01X30929Y5722D01*
G01X30983Y5775D02*
G01X30983Y5400D01*
G01X31144Y5704D02*
G01X31144Y5686D01*
G01X31162Y5740D02*
G01X31144Y5704D01*
G01X31180Y5757D02*
G01X31162Y5740D01*
G01X31215Y5775D02*
G01X31180Y5757D01*
G01X31287Y5775D02*
G01X31215Y5775D01*
G01X31287Y5775D02*
G01X31323Y5757D01*
G01X31323Y5757D02*
G01X31341Y5740D01*
G01X31341Y5740D02*
G01X31358Y5704D01*
G01X31358Y5704D02*
G01X31358Y5668D01*
G01X31358Y5668D02*
G01X31341Y5632D01*
G01X31341Y5632D02*
G01X31305Y5578D01*
G01X31305Y5578D02*
G01X31126Y5400D01*
G01X31376Y5400D02*
G01X31126Y5400D01*
G04 Draw part C30*
G04 draw part outline for part C30*
G01X21074Y6266D02*
G01X19577Y6266D01*
G01X19577Y6266D02*
G01X19577Y7133D01*
G01X19577Y7133D02*
G01X21074Y7133D01*
G01X21074Y7133D02*
G01X21074Y6266D01*
G04 draw reference designator for part C30*
G01X20150Y6022D02*
G01X20168Y5986D01*
G01X20114Y6057D02*
G01X20150Y6022D01*
G01X20078Y6075D02*
G01X20114Y6057D01*
G01X20007Y6075D02*
G01X20078Y6075D01*
G01X20007Y6075D02*
G01X19971Y6057D01*
G01X19971Y6057D02*
G01X19935Y6022D01*
G01X19935Y6022D02*
G01X19917Y5986D01*
G01X19917Y5986D02*
G01X19900Y5932D01*
G01X19900Y5932D02*
G01X19900Y5843D01*
G01X19900Y5843D02*
G01X19917Y5789D01*
G01X19917Y5789D02*
G01X19935Y5753D01*
G01X19935Y5753D02*
G01X19971Y5717D01*
G01X19971Y5717D02*
G01X20007Y5700D01*
G01X20078Y5700D02*
G01X20007Y5700D01*
G01X20114Y5717D02*
G01X20078Y5700D01*
G01X20150Y5753D02*
G01X20114Y5717D01*
G01X20168Y5789D02*
G01X20150Y5753D01*
G01X20544Y6075D02*
G01X20347Y6075D01*
G01X20544Y6075D02*
G01X20436Y5932D01*
G01X20490Y5932D02*
G01X20436Y5932D01*
G01X20490Y5932D02*
G01X20526Y5914D01*
G01X20526Y5914D02*
G01X20544Y5896D01*
G01X20544Y5896D02*
G01X20562Y5843D01*
G01X20562Y5843D02*
G01X20562Y5807D01*
G01X20562Y5807D02*
G01X20544Y5753D01*
G01X20544Y5753D02*
G01X20508Y5717D01*
G01X20508Y5717D02*
G01X20454Y5700D01*
G01X20401Y5700D02*
G01X20454Y5700D01*
G01X20347Y5717D02*
G01X20401Y5700D01*
G01X20329Y5735D02*
G01X20347Y5717D01*
G01X20311Y5771D02*
G01X20329Y5735D01*
G01X20812Y6075D02*
G01X20758Y6057D01*
G01X20758Y6057D02*
G01X20723Y6004D01*
G01X20723Y6004D02*
G01X20705Y5914D01*
G01X20705Y5914D02*
G01X20705Y5861D01*
G01X20705Y5861D02*
G01X20723Y5771D01*
G01X20723Y5771D02*
G01X20758Y5717D01*
G01X20758Y5717D02*
G01X20812Y5700D01*
G01X20848Y5700D02*
G01X20812Y5700D01*
G01X20902Y5717D02*
G01X20848Y5700D01*
G01X20937Y5771D02*
G01X20902Y5717D01*
G01X20955Y5861D02*
G01X20937Y5771D01*
G01X20955Y5914D02*
G01X20955Y5861D01*
G01X20937Y6004D02*
G01X20955Y5914D01*
G01X20902Y6057D02*
G01X20937Y6004D01*
G01X20848Y6075D02*
G01X20902Y6057D01*
G01X20812Y6075D02*
G01X20848Y6075D01*
G04 Draw part C10*
G04 draw part outline for part C10*
G01X28125Y6933D02*
G01X29622Y6933D01*
G01X29622Y6933D02*
G01X29622Y6066D01*
G01X29622Y6066D02*
G01X28125Y6066D01*
G01X28125Y6066D02*
G01X28125Y6933D01*
G04 draw reference designator for part C10*
G01X28650Y5822D02*
G01X28668Y5786D01*
G01X28614Y5857D02*
G01X28650Y5822D01*
G01X28578Y5875D02*
G01X28614Y5857D01*
G01X28507Y5875D02*
G01X28578Y5875D01*
G01X28507Y5875D02*
G01X28471Y5857D01*
G01X28471Y5857D02*
G01X28435Y5822D01*
G01X28435Y5822D02*
G01X28417Y5786D01*
G01X28417Y5786D02*
G01X28400Y5732D01*
G01X28400Y5732D02*
G01X28400Y5643D01*
G01X28400Y5643D02*
G01X28417Y5589D01*
G01X28417Y5589D02*
G01X28435Y5553D01*
G01X28435Y5553D02*
G01X28471Y5517D01*
G01X28471Y5517D02*
G01X28507Y5500D01*
G01X28578Y5500D02*
G01X28507Y5500D01*
G01X28614Y5517D02*
G01X28578Y5500D01*
G01X28650Y5553D02*
G01X28614Y5517D01*
G01X28668Y5589D02*
G01X28650Y5553D01*
G01X28847Y5822D02*
G01X28811Y5804D01*
G01X28901Y5875D02*
G01X28847Y5822D01*
G01X28901Y5875D02*
G01X28901Y5500D01*
G01X29151Y5875D02*
G01X29097Y5857D01*
G01X29097Y5857D02*
G01X29062Y5804D01*
G01X29062Y5804D02*
G01X29044Y5714D01*
G01X29044Y5714D02*
G01X29044Y5661D01*
G01X29044Y5661D02*
G01X29062Y5571D01*
G01X29062Y5571D02*
G01X29097Y5517D01*
G01X29097Y5517D02*
G01X29151Y5500D01*
G01X29187Y5500D02*
G01X29151Y5500D01*
G01X29241Y5517D02*
G01X29187Y5500D01*
G01X29276Y5571D02*
G01X29241Y5517D01*
G01X29294Y5661D02*
G01X29276Y5571D01*
G01X29294Y5714D02*
G01X29294Y5661D01*
G01X29276Y5804D02*
G01X29294Y5714D01*
G01X29241Y5857D02*
G01X29276Y5804D01*
G01X29187Y5875D02*
G01X29241Y5857D01*
G01X29151Y5875D02*
G01X29187Y5875D01*
G04 Draw part R71*
G04 draw part outline for part R71*
G01X30125Y5093D02*
G01X31622Y5093D01*
G01X31622Y5093D02*
G01X31622Y4306D01*
G01X31622Y4306D02*
G01X30125Y4306D01*
G01X30125Y4306D02*
G01X30125Y5093D01*
G04 draw reference designator for part R71*
G01X29100Y4875D02*
G01X29100Y4500D01*
G01X29261Y4875D02*
G01X29100Y4875D01*
G01X29261Y4875D02*
G01X29314Y4857D01*
G01X29314Y4857D02*
G01X29332Y4840D01*
G01X29332Y4840D02*
G01X29350Y4804D01*
G01X29350Y4804D02*
G01X29350Y4768D01*
G01X29350Y4768D02*
G01X29332Y4732D01*
G01X29332Y4732D02*
G01X29314Y4714D01*
G01X29314Y4714D02*
G01X29261Y4696D01*
G01X29100Y4696D02*
G01X29261Y4696D01*
G01X29225Y4696D02*
G01X29350Y4500D01*
G01X29744Y4875D02*
G01X29565Y4500D01*
G01X29744Y4875D02*
G01X29493Y4875D01*
G01X29923Y4822D02*
G01X29887Y4804D01*
G01X29976Y4875D02*
G01X29923Y4822D01*
G01X29976Y4875D02*
G01X29976Y4500D01*
G04 Draw part R43*
G04 draw part outline for part R43*
G01X10625Y9393D02*
G01X12122Y9393D01*
G01X12122Y9393D02*
G01X12122Y8606D01*
G01X12122Y8606D02*
G01X10625Y8606D01*
G01X10625Y8606D02*
G01X10625Y9393D01*
G04 draw reference designator for part R43*
G01X10800Y8475D02*
G01X10800Y8100D01*
G01X10961Y8475D02*
G01X10800Y8475D01*
G01X10961Y8475D02*
G01X11014Y8457D01*
G01X11014Y8457D02*
G01X11032Y8440D01*
G01X11032Y8440D02*
G01X11050Y8404D01*
G01X11050Y8404D02*
G01X11050Y8368D01*
G01X11050Y8368D02*
G01X11032Y8332D01*
G01X11032Y8332D02*
G01X11014Y8314D01*
G01X11014Y8314D02*
G01X10961Y8296D01*
G01X10800Y8296D02*
G01X10961Y8296D01*
G01X10925Y8296D02*
G01X11050Y8100D01*
G01X11372Y8475D02*
G01X11193Y8225D01*
G01X11462Y8225D02*
G01X11193Y8225D01*
G01X11372Y8475D02*
G01X11372Y8100D01*
G01X11837Y8475D02*
G01X11641Y8475D01*
G01X11837Y8475D02*
G01X11730Y8332D01*
G01X11784Y8332D02*
G01X11730Y8332D01*
G01X11784Y8332D02*
G01X11820Y8314D01*
G01X11820Y8314D02*
G01X11837Y8296D01*
G01X11837Y8296D02*
G01X11855Y8243D01*
G01X11855Y8243D02*
G01X11855Y8207D01*
G01X11855Y8207D02*
G01X11837Y8153D01*
G01X11837Y8153D02*
G01X11802Y8117D01*
G01X11802Y8117D02*
G01X11748Y8100D01*
G01X11694Y8100D02*
G01X11748Y8100D01*
G01X11641Y8117D02*
G01X11694Y8100D01*
G01X11623Y8135D02*
G01X11641Y8117D01*
G01X11605Y8171D02*
G01X11623Y8135D01*
G04 Draw part R44*
G04 draw part outline for part R44*
G01X12525Y9493D02*
G01X14022Y9493D01*
G01X14022Y9493D02*
G01X14022Y8706D01*
G01X14022Y8706D02*
G01X12525Y8706D01*
G01X12525Y8706D02*
G01X12525Y9493D01*
G04 draw reference designator for part R44*
G01X14200Y9375D02*
G01X14200Y9000D01*
G01X14361Y9375D02*
G01X14200Y9375D01*
G01X14361Y9375D02*
G01X14414Y9357D01*
G01X14414Y9357D02*
G01X14432Y9340D01*
G01X14432Y9340D02*
G01X14450Y9304D01*
G01X14450Y9304D02*
G01X14450Y9268D01*
G01X14450Y9268D02*
G01X14432Y9232D01*
G01X14432Y9232D02*
G01X14414Y9214D01*
G01X14414Y9214D02*
G01X14361Y9196D01*
G01X14200Y9196D02*
G01X14361Y9196D01*
G01X14325Y9196D02*
G01X14450Y9000D01*
G01X14772Y9375D02*
G01X14593Y9125D01*
G01X14862Y9125D02*
G01X14593Y9125D01*
G01X14772Y9375D02*
G01X14772Y9000D01*
G01X15184Y9375D02*
G01X15005Y9125D01*
G01X15273Y9125D02*
G01X15005Y9125D01*
G01X15184Y9375D02*
G01X15184Y9000D01*
G04 Draw part R41*
G04 draw part outline for part R41*
G01X4825Y9493D02*
G01X6322Y9493D01*
G01X6322Y9493D02*
G01X6322Y8706D01*
G01X6322Y8706D02*
G01X4825Y8706D01*
G01X4825Y8706D02*
G01X4825Y9493D01*
G04 draw reference designator for part R41*
G01X6500Y9575D02*
G01X6500Y9200D01*
G01X6661Y9575D02*
G01X6500Y9575D01*
G01X6661Y9575D02*
G01X6714Y9557D01*
G01X6714Y9557D02*
G01X6732Y9540D01*
G01X6732Y9540D02*
G01X6750Y9504D01*
G01X6750Y9504D02*
G01X6750Y9468D01*
G01X6750Y9468D02*
G01X6732Y9432D01*
G01X6732Y9432D02*
G01X6714Y9414D01*
G01X6714Y9414D02*
G01X6661Y9396D01*
G01X6500Y9396D02*
G01X6661Y9396D01*
G01X6625Y9396D02*
G01X6750Y9200D01*
G01X7072Y9575D02*
G01X6893Y9325D01*
G01X7162Y9325D02*
G01X6893Y9325D01*
G01X7072Y9575D02*
G01X7072Y9200D01*
G01X7341Y9522D02*
G01X7305Y9504D01*
G01X7394Y9575D02*
G01X7341Y9522D01*
G01X7394Y9575D02*
G01X7394Y9200D01*
G04 Draw part R42*
G04 draw part outline for part R42*
G01X8725Y9393D02*
G01X10222Y9393D01*
G01X10222Y9393D02*
G01X10222Y8606D01*
G01X10222Y8606D02*
G01X8725Y8606D01*
G01X8725Y8606D02*
G01X8725Y9393D01*
G04 draw reference designator for part R42*
G01X8900Y8475D02*
G01X8900Y8100D01*
G01X9061Y8475D02*
G01X8900Y8475D01*
G01X9061Y8475D02*
G01X9114Y8457D01*
G01X9114Y8457D02*
G01X9132Y8440D01*
G01X9132Y8440D02*
G01X9150Y8404D01*
G01X9150Y8404D02*
G01X9150Y8368D01*
G01X9150Y8368D02*
G01X9132Y8332D01*
G01X9132Y8332D02*
G01X9114Y8314D01*
G01X9114Y8314D02*
G01X9061Y8296D01*
G01X8900Y8296D02*
G01X9061Y8296D01*
G01X9025Y8296D02*
G01X9150Y8100D01*
G01X9472Y8475D02*
G01X9293Y8225D01*
G01X9562Y8225D02*
G01X9293Y8225D01*
G01X9472Y8475D02*
G01X9472Y8100D01*
G01X9723Y8404D02*
G01X9723Y8386D01*
G01X9741Y8440D02*
G01X9723Y8404D01*
G01X9758Y8457D02*
G01X9741Y8440D01*
G01X9794Y8475D02*
G01X9758Y8457D01*
G01X9866Y8475D02*
G01X9794Y8475D01*
G01X9866Y8475D02*
G01X9902Y8457D01*
G01X9902Y8457D02*
G01X9920Y8440D01*
G01X9920Y8440D02*
G01X9937Y8404D01*
G01X9937Y8404D02*
G01X9937Y8368D01*
G01X9937Y8368D02*
G01X9920Y8332D01*
G01X9920Y8332D02*
G01X9884Y8278D01*
G01X9884Y8278D02*
G01X9705Y8100D01*
G01X9955Y8100D02*
G01X9705Y8100D01*
G04 Draw part C22*
G04 draw part outline for part C22*
G01X21174Y4266D02*
G01X19677Y4266D01*
G01X19677Y4266D02*
G01X19677Y5133D01*
G01X19677Y5133D02*
G01X21174Y5133D01*
G01X21174Y5133D02*
G01X21174Y4266D01*
G04 draw reference designator for part C22*
G01X18750Y4922D02*
G01X18768Y4886D01*
G01X18714Y4957D02*
G01X18750Y4922D01*
G01X18678Y4975D02*
G01X18714Y4957D01*
G01X18607Y4975D02*
G01X18678Y4975D01*
G01X18607Y4975D02*
G01X18571Y4957D01*
G01X18571Y4957D02*
G01X18535Y4922D01*
G01X18535Y4922D02*
G01X18517Y4886D01*
G01X18517Y4886D02*
G01X18500Y4832D01*
G01X18500Y4832D02*
G01X18500Y4743D01*
G01X18500Y4743D02*
G01X18517Y4689D01*
G01X18517Y4689D02*
G01X18535Y4653D01*
G01X18535Y4653D02*
G01X18571Y4617D01*
G01X18571Y4617D02*
G01X18607Y4600D01*
G01X18678Y4600D02*
G01X18607Y4600D01*
G01X18714Y4617D02*
G01X18678Y4600D01*
G01X18750Y4653D02*
G01X18714Y4617D01*
G01X18768Y4689D02*
G01X18750Y4653D01*
G01X18929Y4904D02*
G01X18929Y4886D01*
G01X18947Y4940D02*
G01X18929Y4904D01*
G01X18965Y4957D02*
G01X18947Y4940D01*
G01X19001Y4975D02*
G01X18965Y4957D01*
G01X19072Y4975D02*
G01X19001Y4975D01*
G01X19072Y4975D02*
G01X19108Y4957D01*
G01X19108Y4957D02*
G01X19126Y4940D01*
G01X19126Y4940D02*
G01X19144Y4904D01*
G01X19144Y4904D02*
G01X19144Y4868D01*
G01X19144Y4868D02*
G01X19126Y4832D01*
G01X19126Y4832D02*
G01X19090Y4778D01*
G01X19090Y4778D02*
G01X18911Y4600D01*
G01X19162Y4600D02*
G01X18911Y4600D01*
G01X19323Y4904D02*
G01X19323Y4886D01*
G01X19341Y4940D02*
G01X19323Y4904D01*
G01X19358Y4957D02*
G01X19341Y4940D01*
G01X19394Y4975D02*
G01X19358Y4957D01*
G01X19466Y4975D02*
G01X19394Y4975D01*
G01X19466Y4975D02*
G01X19502Y4957D01*
G01X19502Y4957D02*
G01X19520Y4940D01*
G01X19520Y4940D02*
G01X19537Y4904D01*
G01X19537Y4904D02*
G01X19537Y4868D01*
G01X19537Y4868D02*
G01X19520Y4832D01*
G01X19520Y4832D02*
G01X19484Y4778D01*
G01X19484Y4778D02*
G01X19305Y4600D01*
G01X19555Y4600D02*
G01X19305Y4600D01*
G04 Draw part R26*
G04 draw part outline for part R26*
G01X16725Y3593D02*
G01X18222Y3593D01*
G01X18222Y3593D02*
G01X18222Y2806D01*
G01X18222Y2806D02*
G01X16725Y2806D01*
G01X16725Y2806D02*
G01X16725Y3593D01*
G04 draw reference designator for part R26*
G01X16774Y4163D02*
G01X16774Y3787D01*
G01X16935Y4163D02*
G01X16774Y4163D01*
G01X16935Y4163D02*
G01X16988Y4145D01*
G01X16988Y4145D02*
G01X17006Y4127D01*
G01X17006Y4127D02*
G01X17024Y4091D01*
G01X17024Y4091D02*
G01X17024Y4055D01*
G01X17024Y4055D02*
G01X17006Y4020D01*
G01X17006Y4020D02*
G01X16988Y4002D01*
G01X16988Y4002D02*
G01X16935Y3984D01*
G01X16774Y3984D02*
G01X16935Y3984D01*
G01X16899Y3984D02*
G01X17024Y3787D01*
G01X17185Y4091D02*
G01X17185Y4073D01*
G01X17203Y4127D02*
G01X17185Y4091D01*
G01X17221Y4145D02*
G01X17203Y4127D01*
G01X17257Y4163D02*
G01X17221Y4145D01*
G01X17328Y4163D02*
G01X17257Y4163D01*
G01X17328Y4163D02*
G01X17364Y4145D01*
G01X17364Y4145D02*
G01X17382Y4127D01*
G01X17382Y4127D02*
G01X17400Y4091D01*
G01X17400Y4091D02*
G01X17400Y4055D01*
G01X17400Y4055D02*
G01X17382Y4020D01*
G01X17382Y4020D02*
G01X17346Y3966D01*
G01X17346Y3966D02*
G01X17167Y3787D01*
G01X17418Y3787D02*
G01X17167Y3787D01*
G01X17758Y4145D02*
G01X17776Y4109D01*
G01X17704Y4163D02*
G01X17758Y4145D01*
G01X17668Y4163D02*
G01X17704Y4163D01*
G01X17668Y4163D02*
G01X17615Y4145D01*
G01X17615Y4145D02*
G01X17579Y4091D01*
G01X17579Y4091D02*
G01X17561Y4002D01*
G01X17561Y4002D02*
G01X17561Y3912D01*
G01X17561Y3912D02*
G01X17579Y3841D01*
G01X17579Y3841D02*
G01X17615Y3805D01*
G01X17615Y3805D02*
G01X17668Y3787D01*
G01X17686Y3787D02*
G01X17668Y3787D01*
G01X17740Y3805D02*
G01X17686Y3787D01*
G01X17776Y3841D02*
G01X17740Y3805D01*
G01X17794Y3894D02*
G01X17776Y3841D01*
G01X17794Y3912D02*
G01X17794Y3894D01*
G01X17776Y3966D02*
G01X17794Y3912D01*
G01X17740Y4002D02*
G01X17776Y3966D01*
G01X17686Y4020D02*
G01X17740Y4002D01*
G01X17668Y4020D02*
G01X17686Y4020D01*
G01X17668Y4020D02*
G01X17615Y4002D01*
G01X17615Y4002D02*
G01X17579Y3966D01*
G01X17579Y3966D02*
G01X17561Y3912D01*
G04 Draw part R24*
G04 draw part outline for part R24*
G01X23225Y2993D02*
G01X24722Y2993D01*
G01X24722Y2993D02*
G01X24722Y2206D01*
G01X24722Y2206D02*
G01X23225Y2206D01*
G01X23225Y2206D02*
G01X23225Y2993D01*
G04 draw reference designator for part R24*
G01X23374Y3463D02*
G01X23374Y3087D01*
G01X23535Y3463D02*
G01X23374Y3463D01*
G01X23535Y3463D02*
G01X23588Y3445D01*
G01X23588Y3445D02*
G01X23606Y3427D01*
G01X23606Y3427D02*
G01X23624Y3391D01*
G01X23624Y3391D02*
G01X23624Y3355D01*
G01X23624Y3355D02*
G01X23606Y3320D01*
G01X23606Y3320D02*
G01X23588Y3302D01*
G01X23588Y3302D02*
G01X23535Y3284D01*
G01X23374Y3284D02*
G01X23535Y3284D01*
G01X23499Y3284D02*
G01X23624Y3087D01*
G01X23785Y3391D02*
G01X23785Y3373D01*
G01X23803Y3427D02*
G01X23785Y3391D01*
G01X23821Y3445D02*
G01X23803Y3427D01*
G01X23857Y3463D02*
G01X23821Y3445D01*
G01X23928Y3463D02*
G01X23857Y3463D01*
G01X23928Y3463D02*
G01X23964Y3445D01*
G01X23964Y3445D02*
G01X23982Y3427D01*
G01X23982Y3427D02*
G01X24000Y3391D01*
G01X24000Y3391D02*
G01X24000Y3355D01*
G01X24000Y3355D02*
G01X23982Y3320D01*
G01X23982Y3320D02*
G01X23946Y3266D01*
G01X23946Y3266D02*
G01X23767Y3087D01*
G01X24018Y3087D02*
G01X23767Y3087D01*
G01X24340Y3463D02*
G01X24161Y3212D01*
G01X24429Y3212D02*
G01X24161Y3212D01*
G01X24340Y3463D02*
G01X24340Y3087D01*
G04 Draw part R23*
G04 draw part outline for part R23*
G01X17874Y806D02*
G01X16377Y806D01*
G01X16377Y806D02*
G01X16377Y1593D01*
G01X16377Y1593D02*
G01X17874Y1593D01*
G01X17874Y1593D02*
G01X17874Y806D01*
G04 draw reference designator for part R23*
G01X16500Y2175D02*
G01X16500Y1800D01*
G01X16661Y2175D02*
G01X16500Y2175D01*
G01X16661Y2175D02*
G01X16714Y2157D01*
G01X16714Y2157D02*
G01X16732Y2140D01*
G01X16732Y2140D02*
G01X16750Y2104D01*
G01X16750Y2104D02*
G01X16750Y2068D01*
G01X16750Y2068D02*
G01X16732Y2032D01*
G01X16732Y2032D02*
G01X16714Y2014D01*
G01X16714Y2014D02*
G01X16661Y1996D01*
G01X16500Y1996D02*
G01X16661Y1996D01*
G01X16625Y1996D02*
G01X16750Y1800D01*
G01X16911Y2104D02*
G01X16911Y2086D01*
G01X16929Y2140D02*
G01X16911Y2104D01*
G01X16947Y2157D02*
G01X16929Y2140D01*
G01X16983Y2175D02*
G01X16947Y2157D01*
G01X17054Y2175D02*
G01X16983Y2175D01*
G01X17054Y2175D02*
G01X17090Y2157D01*
G01X17090Y2157D02*
G01X17108Y2140D01*
G01X17108Y2140D02*
G01X17126Y2104D01*
G01X17126Y2104D02*
G01X17126Y2068D01*
G01X17126Y2068D02*
G01X17108Y2032D01*
G01X17108Y2032D02*
G01X17072Y1978D01*
G01X17072Y1978D02*
G01X16893Y1800D01*
G01X17144Y1800D02*
G01X16893Y1800D01*
G01X17520Y2175D02*
G01X17323Y2175D01*
G01X17520Y2175D02*
G01X17412Y2032D01*
G01X17466Y2032D02*
G01X17412Y2032D01*
G01X17466Y2032D02*
G01X17502Y2014D01*
G01X17502Y2014D02*
G01X17520Y1996D01*
G01X17520Y1996D02*
G01X17537Y1943D01*
G01X17537Y1943D02*
G01X17537Y1907D01*
G01X17537Y1907D02*
G01X17520Y1853D01*
G01X17520Y1853D02*
G01X17484Y1817D01*
G01X17484Y1817D02*
G01X17430Y1800D01*
G01X17376Y1800D02*
G01X17430Y1800D01*
G01X17323Y1817D02*
G01X17376Y1800D01*
G01X17305Y1835D02*
G01X17323Y1817D01*
G01X17287Y1871D02*
G01X17305Y1835D01*
G04 Draw part R21*
G04 draw part outline for part R21*
G01X14825Y3593D02*
G01X16322Y3593D01*
G01X16322Y3593D02*
G01X16322Y2806D01*
G01X16322Y2806D02*
G01X14825Y2806D01*
G01X14825Y2806D02*
G01X14825Y3593D01*
G04 draw reference designator for part R21*
G01X14974Y4163D02*
G01X14974Y3787D01*
G01X15135Y4163D02*
G01X14974Y4163D01*
G01X15135Y4163D02*
G01X15188Y4145D01*
G01X15188Y4145D02*
G01X15206Y4127D01*
G01X15206Y4127D02*
G01X15224Y4091D01*
G01X15224Y4091D02*
G01X15224Y4055D01*
G01X15224Y4055D02*
G01X15206Y4020D01*
G01X15206Y4020D02*
G01X15188Y4002D01*
G01X15188Y4002D02*
G01X15135Y3984D01*
G01X14974Y3984D02*
G01X15135Y3984D01*
G01X15099Y3984D02*
G01X15224Y3787D01*
G01X15385Y4091D02*
G01X15385Y4073D01*
G01X15403Y4127D02*
G01X15385Y4091D01*
G01X15421Y4145D02*
G01X15403Y4127D01*
G01X15457Y4163D02*
G01X15421Y4145D01*
G01X15528Y4163D02*
G01X15457Y4163D01*
G01X15528Y4163D02*
G01X15564Y4145D01*
G01X15564Y4145D02*
G01X15582Y4127D01*
G01X15582Y4127D02*
G01X15600Y4091D01*
G01X15600Y4091D02*
G01X15600Y4055D01*
G01X15600Y4055D02*
G01X15582Y4020D01*
G01X15582Y4020D02*
G01X15546Y3966D01*
G01X15546Y3966D02*
G01X15367Y3787D01*
G01X15618Y3787D02*
G01X15367Y3787D01*
G01X15797Y4109D02*
G01X15761Y4091D01*
G01X15850Y4163D02*
G01X15797Y4109D01*
G01X15850Y4163D02*
G01X15850Y3787D01*
G04 Draw part C21*
G04 draw part outline for part C21*
G01X14525Y1633D02*
G01X16022Y1633D01*
G01X16022Y1633D02*
G01X16022Y766D01*
G01X16022Y766D02*
G01X14525Y766D01*
G01X14525Y766D02*
G01X14525Y1633D01*
G04 draw reference designator for part C21*
G01X14950Y2122D02*
G01X14968Y2086D01*
G01X14914Y2157D02*
G01X14950Y2122D01*
G01X14878Y2175D02*
G01X14914Y2157D01*
G01X14807Y2175D02*
G01X14878Y2175D01*
G01X14807Y2175D02*
G01X14771Y2157D01*
G01X14771Y2157D02*
G01X14735Y2122D01*
G01X14735Y2122D02*
G01X14717Y2086D01*
G01X14717Y2086D02*
G01X14700Y2032D01*
G01X14700Y2032D02*
G01X14700Y1943D01*
G01X14700Y1943D02*
G01X14717Y1889D01*
G01X14717Y1889D02*
G01X14735Y1853D01*
G01X14735Y1853D02*
G01X14771Y1817D01*
G01X14771Y1817D02*
G01X14807Y1800D01*
G01X14878Y1800D02*
G01X14807Y1800D01*
G01X14914Y1817D02*
G01X14878Y1800D01*
G01X14950Y1853D02*
G01X14914Y1817D01*
G01X14968Y1889D02*
G01X14950Y1853D01*
G01X15129Y2104D02*
G01X15129Y2086D01*
G01X15147Y2140D02*
G01X15129Y2104D01*
G01X15165Y2157D02*
G01X15147Y2140D01*
G01X15201Y2175D02*
G01X15165Y2157D01*
G01X15272Y2175D02*
G01X15201Y2175D01*
G01X15272Y2175D02*
G01X15308Y2157D01*
G01X15308Y2157D02*
G01X15326Y2140D01*
G01X15326Y2140D02*
G01X15344Y2104D01*
G01X15344Y2104D02*
G01X15344Y2068D01*
G01X15344Y2068D02*
G01X15326Y2032D01*
G01X15326Y2032D02*
G01X15290Y1978D01*
G01X15290Y1978D02*
G01X15111Y1800D01*
G01X15362Y1800D02*
G01X15111Y1800D01*
G01X15541Y2122D02*
G01X15505Y2104D01*
G01X15594Y2175D02*
G01X15541Y2122D01*
G01X15594Y2175D02*
G01X15594Y1800D01*
G04 Draw part R27*
G04 draw part outline for part R27*
G01X14725Y5293D02*
G01X16222Y5293D01*
G01X16222Y5293D02*
G01X16222Y4506D01*
G01X16222Y4506D02*
G01X14725Y4506D01*
G01X14725Y4506D02*
G01X14725Y5293D01*
G04 draw reference designator for part R27*
G01X14900Y5875D02*
G01X14900Y5500D01*
G01X15061Y5875D02*
G01X14900Y5875D01*
G01X15061Y5875D02*
G01X15114Y5857D01*
G01X15114Y5857D02*
G01X15132Y5840D01*
G01X15132Y5840D02*
G01X15150Y5804D01*
G01X15150Y5804D02*
G01X15150Y5768D01*
G01X15150Y5768D02*
G01X15132Y5732D01*
G01X15132Y5732D02*
G01X15114Y5714D01*
G01X15114Y5714D02*
G01X15061Y5696D01*
G01X14900Y5696D02*
G01X15061Y5696D01*
G01X15025Y5696D02*
G01X15150Y5500D01*
G01X15311Y5804D02*
G01X15311Y5786D01*
G01X15329Y5840D02*
G01X15311Y5804D01*
G01X15347Y5857D02*
G01X15329Y5840D01*
G01X15383Y5875D02*
G01X15347Y5857D01*
G01X15454Y5875D02*
G01X15383Y5875D01*
G01X15454Y5875D02*
G01X15490Y5857D01*
G01X15490Y5857D02*
G01X15508Y5840D01*
G01X15508Y5840D02*
G01X15526Y5804D01*
G01X15526Y5804D02*
G01X15526Y5768D01*
G01X15526Y5768D02*
G01X15508Y5732D01*
G01X15508Y5732D02*
G01X15472Y5678D01*
G01X15472Y5678D02*
G01X15293Y5500D01*
G01X15544Y5500D02*
G01X15293Y5500D01*
G01X15937Y5875D02*
G01X15758Y5500D01*
G01X15937Y5875D02*
G01X15687Y5875D01*
G04 Draw part C51*
G04 draw part outline for part C51*
G54D11*
G01X14700Y7500D02*
G01X14700Y8300D01*
G01X14700Y8300D02*
G01X12000Y8300D01*
G01X12000Y8300D02*
G01X12000Y7500D01*
G01X12000Y7500D02*
G01X14700Y7500D01*
G04 draw reference designator for part C51*
G54D13*
G01X13250Y8022D02*
G01X13268Y7986D01*
G01X13214Y8057D02*
G01X13250Y8022D01*
G01X13178Y8075D02*
G01X13214Y8057D01*
G01X13107Y8075D02*
G01X13178Y8075D01*
G01X13107Y8075D02*
G01X13071Y8057D01*
G01X13071Y8057D02*
G01X13035Y8022D01*
G01X13035Y8022D02*
G01X13017Y7986D01*
G01X13017Y7986D02*
G01X13000Y7932D01*
G01X13000Y7932D02*
G01X13000Y7843D01*
G01X13000Y7843D02*
G01X13017Y7789D01*
G01X13017Y7789D02*
G01X13035Y7753D01*
G01X13035Y7753D02*
G01X13071Y7717D01*
G01X13071Y7717D02*
G01X13107Y7700D01*
G01X13178Y7700D02*
G01X13107Y7700D01*
G01X13214Y7717D02*
G01X13178Y7700D01*
G01X13250Y7753D02*
G01X13214Y7717D01*
G01X13268Y7789D02*
G01X13250Y7753D01*
G01X13447Y8075D02*
G01X13626Y8075D01*
G01X13447Y8075D02*
G01X13429Y7914D01*
G01X13447Y7932D02*
G01X13429Y7914D01*
G01X13501Y7950D02*
G01X13447Y7932D01*
G01X13554Y7950D02*
G01X13501Y7950D01*
G01X13554Y7950D02*
G01X13608Y7932D01*
G01X13608Y7932D02*
G01X13644Y7896D01*
G01X13644Y7896D02*
G01X13662Y7843D01*
G01X13662Y7843D02*
G01X13662Y7807D01*
G01X13662Y7807D02*
G01X13644Y7753D01*
G01X13644Y7753D02*
G01X13608Y7717D01*
G01X13608Y7717D02*
G01X13554Y7700D01*
G01X13501Y7700D02*
G01X13554Y7700D01*
G01X13447Y7717D02*
G01X13501Y7700D01*
G01X13429Y7735D02*
G01X13447Y7717D01*
G01X13411Y7771D02*
G01X13429Y7735D01*
G01X13841Y8022D02*
G01X13805Y8004D01*
G01X13894Y8075D02*
G01X13841Y8022D01*
G01X13894Y8075D02*
G01X13894Y7700D01*
G04 Draw part C52*
G04 draw part outline for part C52*
G54D11*
G01X12100Y7100D02*
G01X12100Y6300D01*
G01X12100Y6300D02*
G01X14800Y6300D01*
G01X14800Y6300D02*
G01X14800Y7100D01*
G01X14800Y7100D02*
G01X12100Y7100D01*
G04 draw reference designator for part C52*
G54D13*
G01X13150Y6822D02*
G01X13168Y6786D01*
G01X13114Y6857D02*
G01X13150Y6822D01*
G01X13078Y6875D02*
G01X13114Y6857D01*
G01X13007Y6875D02*
G01X13078Y6875D01*
G01X13007Y6875D02*
G01X12971Y6857D01*
G01X12971Y6857D02*
G01X12935Y6822D01*
G01X12935Y6822D02*
G01X12917Y6786D01*
G01X12917Y6786D02*
G01X12900Y6732D01*
G01X12900Y6732D02*
G01X12900Y6643D01*
G01X12900Y6643D02*
G01X12917Y6589D01*
G01X12917Y6589D02*
G01X12935Y6553D01*
G01X12935Y6553D02*
G01X12971Y6517D01*
G01X12971Y6517D02*
G01X13007Y6500D01*
G01X13078Y6500D02*
G01X13007Y6500D01*
G01X13114Y6517D02*
G01X13078Y6500D01*
G01X13150Y6553D02*
G01X13114Y6517D01*
G01X13168Y6589D02*
G01X13150Y6553D01*
G01X13347Y6875D02*
G01X13526Y6875D01*
G01X13347Y6875D02*
G01X13329Y6714D01*
G01X13347Y6732D02*
G01X13329Y6714D01*
G01X13401Y6750D02*
G01X13347Y6732D01*
G01X13454Y6750D02*
G01X13401Y6750D01*
G01X13454Y6750D02*
G01X13508Y6732D01*
G01X13508Y6732D02*
G01X13544Y6696D01*
G01X13544Y6696D02*
G01X13562Y6643D01*
G01X13562Y6643D02*
G01X13562Y6607D01*
G01X13562Y6607D02*
G01X13544Y6553D01*
G01X13544Y6553D02*
G01X13508Y6517D01*
G01X13508Y6517D02*
G01X13454Y6500D01*
G01X13401Y6500D02*
G01X13454Y6500D01*
G01X13347Y6517D02*
G01X13401Y6500D01*
G01X13329Y6535D02*
G01X13347Y6517D01*
G01X13311Y6571D02*
G01X13329Y6535D01*
G01X13723Y6804D02*
G01X13723Y6786D01*
G01X13741Y6840D02*
G01X13723Y6804D01*
G01X13758Y6857D02*
G01X13741Y6840D01*
G01X13794Y6875D02*
G01X13758Y6857D01*
G01X13866Y6875D02*
G01X13794Y6875D01*
G01X13866Y6875D02*
G01X13902Y6857D01*
G01X13902Y6857D02*
G01X13920Y6840D01*
G01X13920Y6840D02*
G01X13937Y6804D01*
G01X13937Y6804D02*
G01X13937Y6768D01*
G01X13937Y6768D02*
G01X13920Y6732D01*
G01X13920Y6732D02*
G01X13884Y6678D01*
G01X13884Y6678D02*
G01X13705Y6500D01*
G01X13955Y6500D02*
G01X13705Y6500D01*
G04 Draw part R52*
G04 draw part outline for part R52*
G01X10325Y7093D02*
G01X11822Y7093D01*
G01X11822Y7093D02*
G01X11822Y6306D01*
G01X11822Y6306D02*
G01X10325Y6306D01*
G01X10325Y6306D02*
G01X10325Y7093D01*
G04 draw reference designator for part R52*
G01X10600Y7575D02*
G01X10600Y7200D01*
G01X10761Y7575D02*
G01X10600Y7575D01*
G01X10761Y7575D02*
G01X10814Y7557D01*
G01X10814Y7557D02*
G01X10832Y7540D01*
G01X10832Y7540D02*
G01X10850Y7504D01*
G01X10850Y7504D02*
G01X10850Y7468D01*
G01X10850Y7468D02*
G01X10832Y7432D01*
G01X10832Y7432D02*
G01X10814Y7414D01*
G01X10814Y7414D02*
G01X10761Y7396D01*
G01X10600Y7396D02*
G01X10761Y7396D01*
G01X10725Y7396D02*
G01X10850Y7200D01*
G01X11029Y7575D02*
G01X11208Y7575D01*
G01X11029Y7575D02*
G01X11011Y7414D01*
G01X11029Y7432D02*
G01X11011Y7414D01*
G01X11083Y7450D02*
G01X11029Y7432D01*
G01X11136Y7450D02*
G01X11083Y7450D01*
G01X11136Y7450D02*
G01X11190Y7432D01*
G01X11190Y7432D02*
G01X11226Y7396D01*
G01X11226Y7396D02*
G01X11244Y7343D01*
G01X11244Y7343D02*
G01X11244Y7307D01*
G01X11244Y7307D02*
G01X11226Y7253D01*
G01X11226Y7253D02*
G01X11190Y7217D01*
G01X11190Y7217D02*
G01X11136Y7200D01*
G01X11083Y7200D02*
G01X11136Y7200D01*
G01X11029Y7217D02*
G01X11083Y7200D01*
G01X11011Y7235D02*
G01X11029Y7217D01*
G01X10993Y7271D02*
G01X11011Y7235D01*
G01X11405Y7504D02*
G01X11405Y7486D01*
G01X11423Y7540D02*
G01X11405Y7504D01*
G01X11441Y7557D02*
G01X11423Y7540D01*
G01X11476Y7575D02*
G01X11441Y7557D01*
G01X11548Y7575D02*
G01X11476Y7575D01*
G01X11548Y7575D02*
G01X11584Y7557D01*
G01X11584Y7557D02*
G01X11602Y7540D01*
G01X11602Y7540D02*
G01X11620Y7504D01*
G01X11620Y7504D02*
G01X11620Y7468D01*
G01X11620Y7468D02*
G01X11602Y7432D01*
G01X11602Y7432D02*
G01X11566Y7378D01*
G01X11566Y7378D02*
G01X11387Y7200D01*
G01X11637Y7200D02*
G01X11387Y7200D01*
G04 Draw part D01*
G04 draw part outline for part D01*
G01X17560Y7900D02*
G01X17560Y9300D01*
G01X17560Y9300D02*
G01X19240Y9300D01*
G01X19240Y9300D02*
G01X19240Y7900D01*
G01X19240Y7900D02*
G01X17560Y7900D01*
G04 draw reference designator for part D01*
G01X17800Y9775D02*
G01X17800Y9400D01*
G01X17925Y9775D02*
G01X17800Y9775D01*
G01X17925Y9775D02*
G01X17978Y9757D01*
G01X17978Y9757D02*
G01X18014Y9722D01*
G01X18014Y9722D02*
G01X18032Y9686D01*
G01X18032Y9686D02*
G01X18050Y9632D01*
G01X18050Y9632D02*
G01X18050Y9543D01*
G01X18050Y9543D02*
G01X18032Y9489D01*
G01X18032Y9489D02*
G01X18014Y9453D01*
G01X18014Y9453D02*
G01X17978Y9417D01*
G01X17978Y9417D02*
G01X17925Y9400D01*
G01X17800Y9400D02*
G01X17925Y9400D01*
G01X18301Y9775D02*
G01X18247Y9757D01*
G01X18247Y9757D02*
G01X18211Y9704D01*
G01X18211Y9704D02*
G01X18193Y9614D01*
G01X18193Y9614D02*
G01X18193Y9561D01*
G01X18193Y9561D02*
G01X18211Y9471D01*
G01X18211Y9471D02*
G01X18247Y9417D01*
G01X18247Y9417D02*
G01X18301Y9400D01*
G01X18336Y9400D02*
G01X18301Y9400D01*
G01X18390Y9417D02*
G01X18336Y9400D01*
G01X18426Y9471D02*
G01X18390Y9417D01*
G01X18444Y9561D02*
G01X18426Y9471D01*
G01X18444Y9614D02*
G01X18444Y9561D01*
G01X18426Y9704D02*
G01X18444Y9614D01*
G01X18390Y9757D02*
G01X18426Y9704D01*
G01X18336Y9775D02*
G01X18390Y9757D01*
G01X18301Y9775D02*
G01X18336Y9775D01*
G01X18623Y9722D02*
G01X18587Y9704D01*
G01X18676Y9775D02*
G01X18623Y9722D01*
G01X18676Y9775D02*
G01X18676Y9400D01*
G04 Draw part C01*
G04 draw part outline for part C01*
G01X17625Y7733D02*
G01X19122Y7733D01*
G01X19122Y7733D02*
G01X19122Y6866D01*
G01X19122Y6866D02*
G01X17625Y6866D01*
G01X17625Y6866D02*
G01X17625Y7733D01*
G04 draw reference designator for part C01*
G01X18150Y6722D02*
G01X18168Y6686D01*
G01X18114Y6757D02*
G01X18150Y6722D01*
G01X18078Y6775D02*
G01X18114Y6757D01*
G01X18007Y6775D02*
G01X18078Y6775D01*
G01X18007Y6775D02*
G01X17971Y6757D01*
G01X17971Y6757D02*
G01X17935Y6722D01*
G01X17935Y6722D02*
G01X17917Y6686D01*
G01X17917Y6686D02*
G01X17900Y6632D01*
G01X17900Y6632D02*
G01X17900Y6543D01*
G01X17900Y6543D02*
G01X17917Y6489D01*
G01X17917Y6489D02*
G01X17935Y6453D01*
G01X17935Y6453D02*
G01X17971Y6417D01*
G01X17971Y6417D02*
G01X18007Y6400D01*
G01X18078Y6400D02*
G01X18007Y6400D01*
G01X18114Y6417D02*
G01X18078Y6400D01*
G01X18150Y6453D02*
G01X18114Y6417D01*
G01X18168Y6489D02*
G01X18150Y6453D01*
G01X18418Y6775D02*
G01X18365Y6757D01*
G01X18365Y6757D02*
G01X18329Y6704D01*
G01X18329Y6704D02*
G01X18311Y6614D01*
G01X18311Y6614D02*
G01X18311Y6561D01*
G01X18311Y6561D02*
G01X18329Y6471D01*
G01X18329Y6471D02*
G01X18365Y6417D01*
G01X18365Y6417D02*
G01X18418Y6400D01*
G01X18454Y6400D02*
G01X18418Y6400D01*
G01X18508Y6417D02*
G01X18454Y6400D01*
G01X18544Y6471D02*
G01X18508Y6417D01*
G01X18562Y6561D02*
G01X18544Y6471D01*
G01X18562Y6614D02*
G01X18562Y6561D01*
G01X18544Y6704D02*
G01X18562Y6614D01*
G01X18508Y6757D02*
G01X18544Y6704D01*
G01X18454Y6775D02*
G01X18508Y6757D01*
G01X18418Y6775D02*
G01X18454Y6775D01*
G01X18741Y6722D02*
G01X18705Y6704D01*
G01X18794Y6775D02*
G01X18741Y6722D01*
G01X18794Y6775D02*
G01X18794Y6400D01*
G04 Draw part R01*
G04 draw part outline for part R01*
G01X15725Y7293D02*
G01X17222Y7293D01*
G01X17222Y7293D02*
G01X17222Y6506D01*
G01X17222Y6506D02*
G01X15725Y6506D01*
G01X15725Y6506D02*
G01X15725Y7293D01*
G04 draw reference designator for part R01*
G01X16000Y6375D02*
G01X16000Y6000D01*
G01X16161Y6375D02*
G01X16000Y6375D01*
G01X16161Y6375D02*
G01X16214Y6357D01*
G01X16214Y6357D02*
G01X16232Y6340D01*
G01X16232Y6340D02*
G01X16250Y6304D01*
G01X16250Y6304D02*
G01X16250Y6268D01*
G01X16250Y6268D02*
G01X16232Y6232D01*
G01X16232Y6232D02*
G01X16214Y6214D01*
G01X16214Y6214D02*
G01X16161Y6196D01*
G01X16000Y6196D02*
G01X16161Y6196D01*
G01X16125Y6196D02*
G01X16250Y6000D01*
G01X16501Y6375D02*
G01X16447Y6357D01*
G01X16447Y6357D02*
G01X16411Y6304D01*
G01X16411Y6304D02*
G01X16393Y6214D01*
G01X16393Y6214D02*
G01X16393Y6161D01*
G01X16393Y6161D02*
G01X16411Y6071D01*
G01X16411Y6071D02*
G01X16447Y6017D01*
G01X16447Y6017D02*
G01X16501Y6000D01*
G01X16536Y6000D02*
G01X16501Y6000D01*
G01X16590Y6017D02*
G01X16536Y6000D01*
G01X16626Y6071D02*
G01X16590Y6017D01*
G01X16644Y6161D02*
G01X16626Y6071D01*
G01X16644Y6214D02*
G01X16644Y6161D01*
G01X16626Y6304D02*
G01X16644Y6214D01*
G01X16590Y6357D02*
G01X16626Y6304D01*
G01X16536Y6375D02*
G01X16590Y6357D01*
G01X16501Y6375D02*
G01X16536Y6375D01*
G01X16823Y6322D02*
G01X16787Y6304D01*
G01X16876Y6375D02*
G01X16823Y6322D01*
G01X16876Y6375D02*
G01X16876Y6000D01*
G04 Draw part R02*
G04 draw part outline for part R02*
G01X17274Y7606D02*
G01X15777Y7606D01*
G01X15777Y7606D02*
G01X15777Y8393D01*
G01X15777Y8393D02*
G01X17274Y8393D01*
G01X17274Y8393D02*
G01X17274Y7606D01*
G04 draw reference designator for part R02*
G01X14700Y8175D02*
G01X14700Y7800D01*
G01X14861Y8175D02*
G01X14700Y8175D01*
G01X14861Y8175D02*
G01X14914Y8157D01*
G01X14914Y8157D02*
G01X14932Y8140D01*
G01X14932Y8140D02*
G01X14950Y8104D01*
G01X14950Y8104D02*
G01X14950Y8068D01*
G01X14950Y8068D02*
G01X14932Y8032D01*
G01X14932Y8032D02*
G01X14914Y8014D01*
G01X14914Y8014D02*
G01X14861Y7996D01*
G01X14700Y7996D02*
G01X14861Y7996D01*
G01X14825Y7996D02*
G01X14950Y7800D01*
G01X15201Y8175D02*
G01X15147Y8157D01*
G01X15147Y8157D02*
G01X15111Y8104D01*
G01X15111Y8104D02*
G01X15093Y8014D01*
G01X15093Y8014D02*
G01X15093Y7961D01*
G01X15093Y7961D02*
G01X15111Y7871D01*
G01X15111Y7871D02*
G01X15147Y7817D01*
G01X15147Y7817D02*
G01X15201Y7800D01*
G01X15236Y7800D02*
G01X15201Y7800D01*
G01X15290Y7817D02*
G01X15236Y7800D01*
G01X15326Y7871D02*
G01X15290Y7817D01*
G01X15344Y7961D02*
G01X15326Y7871D01*
G01X15344Y8014D02*
G01X15344Y7961D01*
G01X15326Y8104D02*
G01X15344Y8014D01*
G01X15290Y8157D02*
G01X15326Y8104D01*
G01X15236Y8175D02*
G01X15290Y8157D01*
G01X15201Y8175D02*
G01X15236Y8175D01*
G01X15505Y8104D02*
G01X15505Y8086D01*
G01X15523Y8140D02*
G01X15505Y8104D01*
G01X15541Y8157D02*
G01X15523Y8140D01*
G01X15576Y8175D02*
G01X15541Y8157D01*
G01X15648Y8175D02*
G01X15576Y8175D01*
G01X15648Y8175D02*
G01X15684Y8157D01*
G01X15684Y8157D02*
G01X15702Y8140D01*
G01X15702Y8140D02*
G01X15720Y8104D01*
G01X15720Y8104D02*
G01X15720Y8068D01*
G01X15720Y8068D02*
G01X15702Y8032D01*
G01X15702Y8032D02*
G01X15666Y7978D01*
G01X15666Y7978D02*
G01X15487Y7800D01*
G01X15737Y7800D02*
G01X15487Y7800D01*
G04 Draw part gndpad1*
G04 draw part outline for part gndpad1*
G04 Draw part R51*
G04 draw part outline for part R51*
G01X6725Y4293D02*
G01X8222Y4293D01*
G01X8222Y4293D02*
G01X8222Y3506D01*
G01X8222Y3506D02*
G01X6725Y3506D01*
G01X6725Y3506D02*
G01X6725Y4293D01*
G04 draw reference designator for part R51*
G01X7000Y4775D02*
G01X7000Y4400D01*
G01X7161Y4775D02*
G01X7000Y4775D01*
G01X7161Y4775D02*
G01X7214Y4757D01*
G01X7214Y4757D02*
G01X7232Y4740D01*
G01X7232Y4740D02*
G01X7250Y4704D01*
G01X7250Y4704D02*
G01X7250Y4668D01*
G01X7250Y4668D02*
G01X7232Y4632D01*
G01X7232Y4632D02*
G01X7214Y4614D01*
G01X7214Y4614D02*
G01X7161Y4596D01*
G01X7000Y4596D02*
G01X7161Y4596D01*
G01X7125Y4596D02*
G01X7250Y4400D01*
G01X7429Y4775D02*
G01X7608Y4775D01*
G01X7429Y4775D02*
G01X7411Y4614D01*
G01X7429Y4632D02*
G01X7411Y4614D01*
G01X7483Y4650D02*
G01X7429Y4632D01*
G01X7536Y4650D02*
G01X7483Y4650D01*
G01X7536Y4650D02*
G01X7590Y4632D01*
G01X7590Y4632D02*
G01X7626Y4596D01*
G01X7626Y4596D02*
G01X7644Y4543D01*
G01X7644Y4543D02*
G01X7644Y4507D01*
G01X7644Y4507D02*
G01X7626Y4453D01*
G01X7626Y4453D02*
G01X7590Y4417D01*
G01X7590Y4417D02*
G01X7536Y4400D01*
G01X7483Y4400D02*
G01X7536Y4400D01*
G01X7429Y4417D02*
G01X7483Y4400D01*
G01X7411Y4435D02*
G01X7429Y4417D01*
G01X7393Y4471D02*
G01X7411Y4435D01*
G01X7823Y4722D02*
G01X7787Y4704D01*
G01X7876Y4775D02*
G01X7823Y4722D01*
G01X7876Y4775D02*
G01X7876Y4400D01*
G04 Draw part C61*
G04 draw part outline for part C61*
G54D11*
G01X2500Y6300D02*
G01X2500Y5500D01*
G01X2500Y5500D02*
G01X5200Y5500D01*
G01X5200Y5500D02*
G01X5200Y6300D01*
G01X5200Y6300D02*
G01X2500Y6300D01*
G04 draw reference designator for part C61*
G54D13*
G01X3650Y6022D02*
G01X3668Y5986D01*
G01X3614Y6057D02*
G01X3650Y6022D01*
G01X3578Y6075D02*
G01X3614Y6057D01*
G01X3507Y6075D02*
G01X3578Y6075D01*
G01X3507Y6075D02*
G01X3471Y6057D01*
G01X3471Y6057D02*
G01X3435Y6022D01*
G01X3435Y6022D02*
G01X3417Y5986D01*
G01X3417Y5986D02*
G01X3400Y5932D01*
G01X3400Y5932D02*
G01X3400Y5843D01*
G01X3400Y5843D02*
G01X3417Y5789D01*
G01X3417Y5789D02*
G01X3435Y5753D01*
G01X3435Y5753D02*
G01X3471Y5717D01*
G01X3471Y5717D02*
G01X3507Y5700D01*
G01X3578Y5700D02*
G01X3507Y5700D01*
G01X3614Y5717D02*
G01X3578Y5700D01*
G01X3650Y5753D02*
G01X3614Y5717D01*
G01X3668Y5789D02*
G01X3650Y5753D01*
G01X4008Y6057D02*
G01X4026Y6022D01*
G01X3954Y6075D02*
G01X4008Y6057D01*
G01X3918Y6075D02*
G01X3954Y6075D01*
G01X3918Y6075D02*
G01X3865Y6057D01*
G01X3865Y6057D02*
G01X3829Y6004D01*
G01X3829Y6004D02*
G01X3811Y5914D01*
G01X3811Y5914D02*
G01X3811Y5825D01*
G01X3811Y5825D02*
G01X3829Y5753D01*
G01X3829Y5753D02*
G01X3865Y5717D01*
G01X3865Y5717D02*
G01X3918Y5700D01*
G01X3936Y5700D02*
G01X3918Y5700D01*
G01X3990Y5717D02*
G01X3936Y5700D01*
G01X4026Y5753D02*
G01X3990Y5717D01*
G01X4044Y5807D02*
G01X4026Y5753D01*
G01X4044Y5825D02*
G01X4044Y5807D01*
G01X4026Y5878D02*
G01X4044Y5825D01*
G01X3990Y5914D02*
G01X4026Y5878D01*
G01X3936Y5932D02*
G01X3990Y5914D01*
G01X3918Y5932D02*
G01X3936Y5932D01*
G01X3918Y5932D02*
G01X3865Y5914D01*
G01X3865Y5914D02*
G01X3829Y5878D01*
G01X3829Y5878D02*
G01X3811Y5825D01*
G01X4223Y6022D02*
G01X4187Y6004D01*
G01X4276Y6075D02*
G01X4223Y6022D01*
G01X4276Y6075D02*
G01X4276Y5700D01*
G04 Draw part C62*
G04 draw part outline for part C62*
G54D11*
G01X5100Y6600D02*
G01X5100Y7400D01*
G01X5100Y7400D02*
G01X2400Y7400D01*
G01X2400Y7400D02*
G01X2400Y6600D01*
G01X2400Y6600D02*
G01X5100Y6600D01*
G04 draw reference designator for part C62*
G54D13*
G01X3550Y7122D02*
G01X3568Y7086D01*
G01X3514Y7157D02*
G01X3550Y7122D01*
G01X3478Y7175D02*
G01X3514Y7157D01*
G01X3407Y7175D02*
G01X3478Y7175D01*
G01X3407Y7175D02*
G01X3371Y7157D01*
G01X3371Y7157D02*
G01X3335Y7122D01*
G01X3335Y7122D02*
G01X3317Y7086D01*
G01X3317Y7086D02*
G01X3300Y7032D01*
G01X3300Y7032D02*
G01X3300Y6943D01*
G01X3300Y6943D02*
G01X3317Y6889D01*
G01X3317Y6889D02*
G01X3335Y6853D01*
G01X3335Y6853D02*
G01X3371Y6817D01*
G01X3371Y6817D02*
G01X3407Y6800D01*
G01X3478Y6800D02*
G01X3407Y6800D01*
G01X3514Y6817D02*
G01X3478Y6800D01*
G01X3550Y6853D02*
G01X3514Y6817D01*
G01X3568Y6889D02*
G01X3550Y6853D01*
G01X3908Y7157D02*
G01X3926Y7122D01*
G01X3854Y7175D02*
G01X3908Y7157D01*
G01X3818Y7175D02*
G01X3854Y7175D01*
G01X3818Y7175D02*
G01X3765Y7157D01*
G01X3765Y7157D02*
G01X3729Y7104D01*
G01X3729Y7104D02*
G01X3711Y7014D01*
G01X3711Y7014D02*
G01X3711Y6925D01*
G01X3711Y6925D02*
G01X3729Y6853D01*
G01X3729Y6853D02*
G01X3765Y6817D01*
G01X3765Y6817D02*
G01X3818Y6800D01*
G01X3836Y6800D02*
G01X3818Y6800D01*
G01X3890Y6817D02*
G01X3836Y6800D01*
G01X3926Y6853D02*
G01X3890Y6817D01*
G01X3944Y6907D02*
G01X3926Y6853D01*
G01X3944Y6925D02*
G01X3944Y6907D01*
G01X3926Y6978D02*
G01X3944Y6925D01*
G01X3890Y7014D02*
G01X3926Y6978D01*
G01X3836Y7032D02*
G01X3890Y7014D01*
G01X3818Y7032D02*
G01X3836Y7032D01*
G01X3818Y7032D02*
G01X3765Y7014D01*
G01X3765Y7014D02*
G01X3729Y6978D01*
G01X3729Y6978D02*
G01X3711Y6925D01*
G01X4105Y7104D02*
G01X4105Y7086D01*
G01X4123Y7140D02*
G01X4105Y7104D01*
G01X4141Y7157D02*
G01X4123Y7140D01*
G01X4176Y7175D02*
G01X4141Y7157D01*
G01X4248Y7175D02*
G01X4176Y7175D01*
G01X4248Y7175D02*
G01X4284Y7157D01*
G01X4284Y7157D02*
G01X4302Y7140D01*
G01X4302Y7140D02*
G01X4320Y7104D01*
G01X4320Y7104D02*
G01X4320Y7068D01*
G01X4320Y7068D02*
G01X4302Y7032D01*
G01X4302Y7032D02*
G01X4266Y6978D01*
G01X4266Y6978D02*
G01X4087Y6800D01*
G01X4337Y6800D02*
G01X4087Y6800D01*
G04 Draw part R61*
G04 draw part outline for part R61*
G01X4925Y5193D02*
G01X6422Y5193D01*
G01X6422Y5193D02*
G01X6422Y4406D01*
G01X6422Y4406D02*
G01X4925Y4406D01*
G01X4925Y4406D02*
G01X4925Y5193D01*
G04 draw reference designator for part R61*
G01X3900Y4975D02*
G01X3900Y4600D01*
G01X4061Y4975D02*
G01X3900Y4975D01*
G01X4061Y4975D02*
G01X4114Y4957D01*
G01X4114Y4957D02*
G01X4132Y4940D01*
G01X4132Y4940D02*
G01X4150Y4904D01*
G01X4150Y4904D02*
G01X4150Y4868D01*
G01X4150Y4868D02*
G01X4132Y4832D01*
G01X4132Y4832D02*
G01X4114Y4814D01*
G01X4114Y4814D02*
G01X4061Y4796D01*
G01X3900Y4796D02*
G01X4061Y4796D01*
G01X4025Y4796D02*
G01X4150Y4600D01*
G01X4490Y4957D02*
G01X4508Y4922D01*
G01X4436Y4975D02*
G01X4490Y4957D01*
G01X4401Y4975D02*
G01X4436Y4975D01*
G01X4401Y4975D02*
G01X4347Y4957D01*
G01X4347Y4957D02*
G01X4311Y4904D01*
G01X4311Y4904D02*
G01X4293Y4814D01*
G01X4293Y4814D02*
G01X4293Y4725D01*
G01X4293Y4725D02*
G01X4311Y4653D01*
G01X4311Y4653D02*
G01X4347Y4617D01*
G01X4347Y4617D02*
G01X4401Y4600D01*
G01X4418Y4600D02*
G01X4401Y4600D01*
G01X4472Y4617D02*
G01X4418Y4600D01*
G01X4508Y4653D02*
G01X4472Y4617D01*
G01X4526Y4707D02*
G01X4508Y4653D01*
G01X4526Y4725D02*
G01X4526Y4707D01*
G01X4508Y4778D02*
G01X4526Y4725D01*
G01X4472Y4814D02*
G01X4508Y4778D01*
G01X4418Y4832D02*
G01X4472Y4814D01*
G01X4401Y4832D02*
G01X4418Y4832D01*
G01X4401Y4832D02*
G01X4347Y4814D01*
G01X4347Y4814D02*
G01X4311Y4778D01*
G01X4311Y4778D02*
G01X4293Y4725D01*
G01X4705Y4922D02*
G01X4669Y4904D01*
G01X4758Y4975D02*
G01X4705Y4922D01*
G01X4758Y4975D02*
G01X4758Y4600D01*
G04 Draw part R63*
G04 draw part outline for part R63*
G01X1925Y5293D02*
G01X3422Y5293D01*
G01X3422Y5293D02*
G01X3422Y4506D01*
G01X3422Y4506D02*
G01X1925Y4506D01*
G01X1925Y4506D02*
G01X1925Y5293D01*
G04 draw reference designator for part R63*
G01X700Y5075D02*
G01X700Y4700D01*
G01X861Y5075D02*
G01X700Y5075D01*
G01X861Y5075D02*
G01X914Y5057D01*
G01X914Y5057D02*
G01X932Y5040D01*
G01X932Y5040D02*
G01X950Y5004D01*
G01X950Y5004D02*
G01X950Y4968D01*
G01X950Y4968D02*
G01X932Y4932D01*
G01X932Y4932D02*
G01X914Y4914D01*
G01X914Y4914D02*
G01X861Y4896D01*
G01X700Y4896D02*
G01X861Y4896D01*
G01X825Y4896D02*
G01X950Y4700D01*
G01X1290Y5057D02*
G01X1308Y5022D01*
G01X1236Y5075D02*
G01X1290Y5057D01*
G01X1201Y5075D02*
G01X1236Y5075D01*
G01X1201Y5075D02*
G01X1147Y5057D01*
G01X1147Y5057D02*
G01X1111Y5004D01*
G01X1111Y5004D02*
G01X1093Y4914D01*
G01X1093Y4914D02*
G01X1093Y4825D01*
G01X1093Y4825D02*
G01X1111Y4753D01*
G01X1111Y4753D02*
G01X1147Y4717D01*
G01X1147Y4717D02*
G01X1201Y4700D01*
G01X1218Y4700D02*
G01X1201Y4700D01*
G01X1272Y4717D02*
G01X1218Y4700D01*
G01X1308Y4753D02*
G01X1272Y4717D01*
G01X1326Y4807D02*
G01X1308Y4753D01*
G01X1326Y4825D02*
G01X1326Y4807D01*
G01X1308Y4878D02*
G01X1326Y4825D01*
G01X1272Y4914D02*
G01X1308Y4878D01*
G01X1218Y4932D02*
G01X1272Y4914D01*
G01X1201Y4932D02*
G01X1218Y4932D01*
G01X1201Y4932D02*
G01X1147Y4914D01*
G01X1147Y4914D02*
G01X1111Y4878D01*
G01X1111Y4878D02*
G01X1093Y4825D01*
G01X1702Y5075D02*
G01X1505Y5075D01*
G01X1702Y5075D02*
G01X1594Y4932D01*
G01X1648Y4932D02*
G01X1594Y4932D01*
G01X1648Y4932D02*
G01X1684Y4914D01*
G01X1684Y4914D02*
G01X1702Y4896D01*
G01X1702Y4896D02*
G01X1720Y4843D01*
G01X1720Y4843D02*
G01X1720Y4807D01*
G01X1720Y4807D02*
G01X1702Y4753D01*
G01X1702Y4753D02*
G01X1666Y4717D01*
G01X1666Y4717D02*
G01X1612Y4700D01*
G01X1558Y4700D02*
G01X1612Y4700D01*
G01X1505Y4717D02*
G01X1558Y4700D01*
G01X1487Y4735D02*
G01X1505Y4717D01*
G01X1469Y4771D02*
G01X1487Y4735D01*
G04 Draw part R65*
G04 draw part outline for part R65*
G01X8725Y7793D02*
G01X10222Y7793D01*
G01X10222Y7793D02*
G01X10222Y7006D01*
G01X10222Y7006D02*
G01X8725Y7006D01*
G01X8725Y7006D02*
G01X8725Y7793D01*
G04 draw reference designator for part R65*
G01X8900Y6875D02*
G01X8900Y6500D01*
G01X9061Y6875D02*
G01X8900Y6875D01*
G01X9061Y6875D02*
G01X9114Y6857D01*
G01X9114Y6857D02*
G01X9132Y6840D01*
G01X9132Y6840D02*
G01X9150Y6804D01*
G01X9150Y6804D02*
G01X9150Y6768D01*
G01X9150Y6768D02*
G01X9132Y6732D01*
G01X9132Y6732D02*
G01X9114Y6714D01*
G01X9114Y6714D02*
G01X9061Y6696D01*
G01X8900Y6696D02*
G01X9061Y6696D01*
G01X9025Y6696D02*
G01X9150Y6500D01*
G01X9490Y6857D02*
G01X9508Y6822D01*
G01X9436Y6875D02*
G01X9490Y6857D01*
G01X9401Y6875D02*
G01X9436Y6875D01*
G01X9401Y6875D02*
G01X9347Y6857D01*
G01X9347Y6857D02*
G01X9311Y6804D01*
G01X9311Y6804D02*
G01X9293Y6714D01*
G01X9293Y6714D02*
G01X9293Y6625D01*
G01X9293Y6625D02*
G01X9311Y6553D01*
G01X9311Y6553D02*
G01X9347Y6517D01*
G01X9347Y6517D02*
G01X9401Y6500D01*
G01X9418Y6500D02*
G01X9401Y6500D01*
G01X9472Y6517D02*
G01X9418Y6500D01*
G01X9508Y6553D02*
G01X9472Y6517D01*
G01X9526Y6607D02*
G01X9508Y6553D01*
G01X9526Y6625D02*
G01X9526Y6607D01*
G01X9508Y6678D02*
G01X9526Y6625D01*
G01X9472Y6714D02*
G01X9508Y6678D01*
G01X9418Y6732D02*
G01X9472Y6714D01*
G01X9401Y6732D02*
G01X9418Y6732D01*
G01X9401Y6732D02*
G01X9347Y6714D01*
G01X9347Y6714D02*
G01X9311Y6678D01*
G01X9311Y6678D02*
G01X9293Y6625D01*
G01X9705Y6875D02*
G01X9884Y6875D01*
G01X9705Y6875D02*
G01X9687Y6714D01*
G01X9705Y6732D02*
G01X9687Y6714D01*
G01X9758Y6750D02*
G01X9705Y6732D01*
G01X9812Y6750D02*
G01X9758Y6750D01*
G01X9812Y6750D02*
G01X9866Y6732D01*
G01X9866Y6732D02*
G01X9902Y6696D01*
G01X9902Y6696D02*
G01X9920Y6643D01*
G01X9920Y6643D02*
G01X9920Y6607D01*
G01X9920Y6607D02*
G01X9902Y6553D01*
G01X9902Y6553D02*
G01X9866Y6517D01*
G01X9866Y6517D02*
G01X9812Y6500D01*
G01X9758Y6500D02*
G01X9812Y6500D01*
G01X9705Y6517D02*
G01X9758Y6500D01*
G01X9687Y6535D02*
G01X9705Y6517D01*
G01X9669Y6571D02*
G01X9687Y6535D01*
G04 Draw part C63*
G04 draw part outline for part C63*
G01X2925Y8733D02*
G01X4422Y8733D01*
G01X4422Y8733D02*
G01X4422Y7866D01*
G01X4422Y7866D02*
G01X2925Y7866D01*
G01X2925Y7866D02*
G01X2925Y8733D01*
G04 draw reference designator for part C63*
G01X3350Y9122D02*
G01X3368Y9086D01*
G01X3314Y9157D02*
G01X3350Y9122D01*
G01X3278Y9175D02*
G01X3314Y9157D01*
G01X3207Y9175D02*
G01X3278Y9175D01*
G01X3207Y9175D02*
G01X3171Y9157D01*
G01X3171Y9157D02*
G01X3135Y9122D01*
G01X3135Y9122D02*
G01X3117Y9086D01*
G01X3117Y9086D02*
G01X3100Y9032D01*
G01X3100Y9032D02*
G01X3100Y8943D01*
G01X3100Y8943D02*
G01X3117Y8889D01*
G01X3117Y8889D02*
G01X3135Y8853D01*
G01X3135Y8853D02*
G01X3171Y8817D01*
G01X3171Y8817D02*
G01X3207Y8800D01*
G01X3278Y8800D02*
G01X3207Y8800D01*
G01X3314Y8817D02*
G01X3278Y8800D01*
G01X3350Y8853D02*
G01X3314Y8817D01*
G01X3368Y8889D02*
G01X3350Y8853D01*
G01X3708Y9157D02*
G01X3726Y9122D01*
G01X3654Y9175D02*
G01X3708Y9157D01*
G01X3618Y9175D02*
G01X3654Y9175D01*
G01X3618Y9175D02*
G01X3565Y9157D01*
G01X3565Y9157D02*
G01X3529Y9104D01*
G01X3529Y9104D02*
G01X3511Y9014D01*
G01X3511Y9014D02*
G01X3511Y8925D01*
G01X3511Y8925D02*
G01X3529Y8853D01*
G01X3529Y8853D02*
G01X3565Y8817D01*
G01X3565Y8817D02*
G01X3618Y8800D01*
G01X3636Y8800D02*
G01X3618Y8800D01*
G01X3690Y8817D02*
G01X3636Y8800D01*
G01X3726Y8853D02*
G01X3690Y8817D01*
G01X3744Y8907D02*
G01X3726Y8853D01*
G01X3744Y8925D02*
G01X3744Y8907D01*
G01X3726Y8978D02*
G01X3744Y8925D01*
G01X3690Y9014D02*
G01X3726Y8978D01*
G01X3636Y9032D02*
G01X3690Y9014D01*
G01X3618Y9032D02*
G01X3636Y9032D01*
G01X3618Y9032D02*
G01X3565Y9014D01*
G01X3565Y9014D02*
G01X3529Y8978D01*
G01X3529Y8978D02*
G01X3511Y8925D01*
G01X4120Y9175D02*
G01X3923Y9175D01*
G01X4120Y9175D02*
G01X4012Y9032D01*
G01X4066Y9032D02*
G01X4012Y9032D01*
G01X4066Y9032D02*
G01X4102Y9014D01*
G01X4102Y9014D02*
G01X4120Y8996D01*
G01X4120Y8996D02*
G01X4137Y8943D01*
G01X4137Y8943D02*
G01X4137Y8907D01*
G01X4137Y8907D02*
G01X4120Y8853D01*
G01X4120Y8853D02*
G01X4084Y8817D01*
G01X4084Y8817D02*
G01X4030Y8800D01*
G01X3976Y8800D02*
G01X4030Y8800D01*
G01X3923Y8817D02*
G01X3976Y8800D01*
G01X3905Y8835D02*
G01X3923Y8817D01*
G01X3887Y8871D02*
G01X3905Y8835D01*
G04 Draw part R66*
G04 draw part outline for part R66*
G01X4825Y8493D02*
G01X6322Y8493D01*
G01X6322Y8493D02*
G01X6322Y7706D01*
G01X6322Y7706D02*
G01X4825Y7706D01*
G01X4825Y7706D02*
G01X4825Y8493D01*
G04 draw reference designator for part R66*
G01X5200Y7575D02*
G01X5200Y7200D01*
G01X5361Y7575D02*
G01X5200Y7575D01*
G01X5361Y7575D02*
G01X5414Y7557D01*
G01X5414Y7557D02*
G01X5432Y7540D01*
G01X5432Y7540D02*
G01X5450Y7504D01*
G01X5450Y7504D02*
G01X5450Y7468D01*
G01X5450Y7468D02*
G01X5432Y7432D01*
G01X5432Y7432D02*
G01X5414Y7414D01*
G01X5414Y7414D02*
G01X5361Y7396D01*
G01X5200Y7396D02*
G01X5361Y7396D01*
G01X5325Y7396D02*
G01X5450Y7200D01*
G01X5790Y7557D02*
G01X5808Y7522D01*
G01X5736Y7575D02*
G01X5790Y7557D01*
G01X5701Y7575D02*
G01X5736Y7575D01*
G01X5701Y7575D02*
G01X5647Y7557D01*
G01X5647Y7557D02*
G01X5611Y7504D01*
G01X5611Y7504D02*
G01X5593Y7414D01*
G01X5593Y7414D02*
G01X5593Y7325D01*
G01X5593Y7325D02*
G01X5611Y7253D01*
G01X5611Y7253D02*
G01X5647Y7217D01*
G01X5647Y7217D02*
G01X5701Y7200D01*
G01X5718Y7200D02*
G01X5701Y7200D01*
G01X5772Y7217D02*
G01X5718Y7200D01*
G01X5808Y7253D02*
G01X5772Y7217D01*
G01X5826Y7307D02*
G01X5808Y7253D01*
G01X5826Y7325D02*
G01X5826Y7307D01*
G01X5808Y7378D02*
G01X5826Y7325D01*
G01X5772Y7414D02*
G01X5808Y7378D01*
G01X5718Y7432D02*
G01X5772Y7414D01*
G01X5701Y7432D02*
G01X5718Y7432D01*
G01X5701Y7432D02*
G01X5647Y7414D01*
G01X5647Y7414D02*
G01X5611Y7378D01*
G01X5611Y7378D02*
G01X5593Y7325D01*
G01X6166Y7557D02*
G01X6184Y7522D01*
G01X6112Y7575D02*
G01X6166Y7557D01*
G01X6076Y7575D02*
G01X6112Y7575D01*
G01X6076Y7575D02*
G01X6023Y7557D01*
G01X6023Y7557D02*
G01X5987Y7504D01*
G01X5987Y7504D02*
G01X5969Y7414D01*
G01X5969Y7414D02*
G01X5969Y7325D01*
G01X5969Y7325D02*
G01X5987Y7253D01*
G01X5987Y7253D02*
G01X6023Y7217D01*
G01X6023Y7217D02*
G01X6076Y7200D01*
G01X6094Y7200D02*
G01X6076Y7200D01*
G01X6148Y7217D02*
G01X6094Y7200D01*
G01X6184Y7253D02*
G01X6148Y7217D01*
G01X6202Y7307D02*
G01X6184Y7253D01*
G01X6202Y7325D02*
G01X6202Y7307D01*
G01X6184Y7378D02*
G01X6202Y7325D01*
G01X6148Y7414D02*
G01X6184Y7378D01*
G01X6094Y7432D02*
G01X6148Y7414D01*
G01X6076Y7432D02*
G01X6094Y7432D01*
G01X6076Y7432D02*
G01X6023Y7414D01*
G01X6023Y7414D02*
G01X5987Y7378D01*
G01X5987Y7378D02*
G01X5969Y7325D01*
G04 Draw part R67*
G04 draw part outline for part R67*
G01X1025Y8693D02*
G01X2522Y8693D01*
G01X2522Y8693D02*
G01X2522Y7906D01*
G01X2522Y7906D02*
G01X1025Y7906D01*
G01X1025Y7906D02*
G01X1025Y8693D01*
G04 draw reference designator for part R67*
G01X1200Y7775D02*
G01X1200Y7400D01*
G01X1361Y7775D02*
G01X1200Y7775D01*
G01X1361Y7775D02*
G01X1414Y7757D01*
G01X1414Y7757D02*
G01X1432Y7740D01*
G01X1432Y7740D02*
G01X1450Y7704D01*
G01X1450Y7704D02*
G01X1450Y7668D01*
G01X1450Y7668D02*
G01X1432Y7632D01*
G01X1432Y7632D02*
G01X1414Y7614D01*
G01X1414Y7614D02*
G01X1361Y7596D01*
G01X1200Y7596D02*
G01X1361Y7596D01*
G01X1325Y7596D02*
G01X1450Y7400D01*
G01X1790Y7757D02*
G01X1808Y7722D01*
G01X1736Y7775D02*
G01X1790Y7757D01*
G01X1701Y7775D02*
G01X1736Y7775D01*
G01X1701Y7775D02*
G01X1647Y7757D01*
G01X1647Y7757D02*
G01X1611Y7704D01*
G01X1611Y7704D02*
G01X1593Y7614D01*
G01X1593Y7614D02*
G01X1593Y7525D01*
G01X1593Y7525D02*
G01X1611Y7453D01*
G01X1611Y7453D02*
G01X1647Y7417D01*
G01X1647Y7417D02*
G01X1701Y7400D01*
G01X1718Y7400D02*
G01X1701Y7400D01*
G01X1772Y7417D02*
G01X1718Y7400D01*
G01X1808Y7453D02*
G01X1772Y7417D01*
G01X1826Y7507D02*
G01X1808Y7453D01*
G01X1826Y7525D02*
G01X1826Y7507D01*
G01X1808Y7578D02*
G01X1826Y7525D01*
G01X1772Y7614D02*
G01X1808Y7578D01*
G01X1718Y7632D02*
G01X1772Y7614D01*
G01X1701Y7632D02*
G01X1718Y7632D01*
G01X1701Y7632D02*
G01X1647Y7614D01*
G01X1647Y7614D02*
G01X1611Y7578D01*
G01X1611Y7578D02*
G01X1593Y7525D01*
G01X2220Y7775D02*
G01X2041Y7400D01*
G01X2220Y7775D02*
G01X1969Y7775D01*
G04 Draw part m1*
G04 draw part outline for part m1*
G04 Draw part m3*
G04 draw part outline for part m3*
G01X8425Y5633D02*
G01X9922Y5633D01*
G01X9922Y5633D02*
G01X9922Y4766D01*
G01X9922Y4766D02*
G01X8425Y4766D01*
G01X8425Y4766D02*
G01X8425Y5633D01*
G04 draw value for part m3*
G01X9057Y4643D02*
G01X9057Y4268D01*
G01X9021Y4500D02*
G01X9057Y4464D01*
G01X8986Y4518D02*
G01X9021Y4500D01*
G01X8932Y4518D02*
G01X8986Y4518D01*
G01X8932Y4518D02*
G01X8896Y4500D01*
G01X8896Y4500D02*
G01X8860Y4464D01*
G01X8860Y4464D02*
G01X8843Y4411D01*
G01X8843Y4411D02*
G01X8843Y4375D01*
G01X8843Y4375D02*
G01X8860Y4321D01*
G01X8860Y4321D02*
G01X8896Y4285D01*
G01X8896Y4285D02*
G01X8932Y4268D01*
G01X8986Y4268D02*
G01X8932Y4268D01*
G01X9021Y4285D02*
G01X8986Y4268D01*
G01X9057Y4321D02*
G01X9021Y4285D01*
G01X9379Y4500D02*
G01X9415Y4464D01*
G01X9344Y4518D02*
G01X9379Y4500D01*
G01X9290Y4518D02*
G01X9344Y4518D01*
G01X9290Y4518D02*
G01X9254Y4500D01*
G01X9254Y4500D02*
G01X9218Y4464D01*
G01X9218Y4464D02*
G01X9200Y4411D01*
G01X9200Y4411D02*
G01X9200Y4375D01*
G01X9200Y4375D02*
G01X9218Y4321D01*
G01X9218Y4321D02*
G01X9254Y4285D01*
G01X9254Y4285D02*
G01X9290Y4268D01*
G01X9344Y4268D02*
G01X9290Y4268D01*
G01X9379Y4285D02*
G01X9344Y4268D01*
G01X9415Y4321D02*
G01X9379Y4285D01*
G04 Draw part m4*
G04 draw part outline for part m4*
G04 Draw part m5*
G04 draw part outline for part m5*
G01X24925Y4233D02*
G01X26422Y4233D01*
G01X26422Y4233D02*
G01X26422Y3366D01*
G01X26422Y3366D02*
G01X24925Y3366D01*
G01X24925Y3366D02*
G01X24925Y4233D01*
G04 draw value for part m5*
G01X25505Y3140D02*
G01X25505Y2765D01*
G01X25469Y2997D02*
G01X25505Y2961D01*
G01X25434Y3015D02*
G01X25469Y2997D01*
G01X25380Y3015D02*
G01X25434Y3015D01*
G01X25380Y3015D02*
G01X25344Y2997D01*
G01X25344Y2997D02*
G01X25308Y2961D01*
G01X25308Y2961D02*
G01X25291Y2908D01*
G01X25291Y2908D02*
G01X25291Y2872D01*
G01X25291Y2872D02*
G01X25308Y2818D01*
G01X25308Y2818D02*
G01X25344Y2782D01*
G01X25344Y2782D02*
G01X25380Y2765D01*
G01X25434Y2765D02*
G01X25380Y2765D01*
G01X25469Y2782D02*
G01X25434Y2765D01*
G01X25505Y2818D02*
G01X25469Y2782D01*
G01X25827Y2997D02*
G01X25863Y2961D01*
G01X25792Y3015D02*
G01X25827Y2997D01*
G01X25738Y3015D02*
G01X25792Y3015D01*
G01X25738Y3015D02*
G01X25702Y2997D01*
G01X25702Y2997D02*
G01X25666Y2961D01*
G01X25666Y2961D02*
G01X25648Y2908D01*
G01X25648Y2908D02*
G01X25648Y2872D01*
G01X25648Y2872D02*
G01X25666Y2818D01*
G01X25666Y2818D02*
G01X25702Y2782D01*
G01X25702Y2782D02*
G01X25738Y2765D01*
G01X25792Y2765D02*
G01X25738Y2765D01*
G01X25827Y2782D02*
G01X25792Y2765D01*
G01X25863Y2818D02*
G01X25827Y2782D01*
G04 Draw part m6*
G04 draw part outline for part m6*
G04 Draw part m15*
G04 draw part outline for part m15*
G01X25574Y8566D02*
G01X24077Y8566D01*
G01X24077Y8566D02*
G01X24077Y9433D01*
G01X24077Y9433D02*
G01X25574Y9433D01*
G01X25574Y9433D02*
G01X25574Y8566D01*
G04 draw value for part m15*
G01X26100Y9235D02*
G01X26100Y8860D01*
G01X26064Y9092D02*
G01X26100Y9056D01*
G01X26029Y9110D02*
G01X26064Y9092D01*
G01X25975Y9110D02*
G01X26029Y9110D01*
G01X25975Y9110D02*
G01X25939Y9092D01*
G01X25939Y9092D02*
G01X25903Y9056D01*
G01X25903Y9056D02*
G01X25886Y9003D01*
G01X25886Y9003D02*
G01X25886Y8967D01*
G01X25886Y8967D02*
G01X25903Y8913D01*
G01X25903Y8913D02*
G01X25939Y8877D01*
G01X25939Y8877D02*
G01X25975Y8860D01*
G01X26029Y8860D02*
G01X25975Y8860D01*
G01X26064Y8877D02*
G01X26029Y8860D01*
G01X26100Y8913D02*
G01X26064Y8877D01*
G01X26422Y9092D02*
G01X26458Y9056D01*
G01X26387Y9110D02*
G01X26422Y9092D01*
G01X26333Y9110D02*
G01X26387Y9110D01*
G01X26333Y9110D02*
G01X26297Y9092D01*
G01X26297Y9092D02*
G01X26261Y9056D01*
G01X26261Y9056D02*
G01X26243Y9003D01*
G01X26243Y9003D02*
G01X26243Y8967D01*
G01X26243Y8967D02*
G01X26261Y8913D01*
G01X26261Y8913D02*
G01X26297Y8877D01*
G01X26297Y8877D02*
G01X26333Y8860D01*
G01X26387Y8860D02*
G01X26333Y8860D01*
G01X26422Y8877D02*
G01X26387Y8860D01*
G01X26458Y8913D02*
G01X26422Y8877D01*
G04 Draw part m16*
G04 draw part outline for part m16*
G04 Draw part j1*
G04 draw part outline for part j1*
G04 Draw part j2*
G04 draw part outline for part j2*
G04 Draw part j3*
G04 draw part outline for part j3*
G04 Draw part j4*
G04 draw part outline for part j4*
G04 Draw part U2*
G04 draw part outline for part U2*
G01X6400Y6700D02*
G01X8500Y6700D01*
G01X8500Y6700D02*
G01X8500Y8200D01*
G01X8500Y8200D02*
G01X6400Y8200D01*
G01X6400Y8200D02*
G01X6400Y6700D01*
G01X6400Y6700D02*
G01X6600Y6700D01*
G01X6600Y6700D02*
G01X6600Y7200D01*
G01X6600Y7200D02*
G01X6400Y7200D01*
G01X6400Y7200D02*
G01X6400Y6700D01*
G04 draw reference designator for part U2*
G01X5800Y6475D02*
G01X5800Y6207D01*
G01X5800Y6207D02*
G01X5817Y6153D01*
G01X5817Y6153D02*
G01X5853Y6117D01*
G01X5853Y6117D02*
G01X5907Y6100D01*
G01X5943Y6100D02*
G01X5907Y6100D01*
G01X5996Y6117D02*
G01X5943Y6100D01*
G01X6032Y6153D02*
G01X5996Y6117D01*
G01X6050Y6207D02*
G01X6032Y6153D01*
G01X6050Y6475D02*
G01X6050Y6207D01*
G01X6211Y6404D02*
G01X6211Y6386D01*
G01X6229Y6440D02*
G01X6211Y6404D01*
G01X6247Y6457D02*
G01X6229Y6440D01*
G01X6283Y6475D02*
G01X6247Y6457D01*
G01X6354Y6475D02*
G01X6283Y6475D01*
G01X6354Y6475D02*
G01X6390Y6457D01*
G01X6390Y6457D02*
G01X6408Y6440D01*
G01X6408Y6440D02*
G01X6426Y6404D01*
G01X6426Y6404D02*
G01X6426Y6368D01*
G01X6426Y6368D02*
G01X6408Y6332D01*
G01X6408Y6332D02*
G01X6372Y6278D01*
G01X6372Y6278D02*
G01X6193Y6100D01*
G01X6444Y6100D02*
G01X6193Y6100D01*
G04 Draw part j6*
G04 draw part outline for part j6*
G04 Draw part LED*
G04 draw part outline for part LED*
G01X8280Y1300D02*
G01X8279Y1339D01*
G01X8276Y1378D01*
G01X8272Y1417D01*
G01X8266Y1456D01*
G01X8258Y1494D01*
G01X8249Y1532D01*
G01X8238Y1570D01*
G01X8225Y1607D01*
G01X8211Y1644D01*
G01X8195Y1680D01*
G01X8178Y1715D01*
G01X8159Y1750D01*
G01X8139Y1783D01*
G01X8117Y1816D01*
G01X8094Y1847D01*
G01X8069Y1878D01*
G01X8043Y1908D01*
G01X8016Y1936D01*
G01X7988Y1963D01*
G01X7958Y1989D01*
G01X7927Y2014D01*
G01X7896Y2037D01*
G01X7863Y2059D01*
G01X7829Y2079D01*
G01X7795Y2098D01*
G01X7760Y2115D01*
G01X7724Y2131D01*
G01X7687Y2145D01*
G01X7650Y2158D01*
G01X7612Y2169D01*
G01X7574Y2178D01*
G01X7536Y2186D01*
G01X7497Y2192D01*
G01X7458Y2196D01*
G01X7419Y2199D01*
G01X7380Y2200D01*
G01X7380Y2200D02*
G01X7340Y2199D01*
G01X7301Y2196D01*
G01X7262Y2192D01*
G01X7223Y2186D01*
G01X7185Y2178D01*
G01X7147Y2169D01*
G01X7109Y2158D01*
G01X7072Y2145D01*
G01X7035Y2131D01*
G01X6999Y2115D01*
G01X6964Y2098D01*
G01X6929Y2079D01*
G01X6896Y2059D01*
G01X6863Y2037D01*
G01X6832Y2014D01*
G01X6801Y1989D01*
G01X6771Y1963D01*
G01X6743Y1936D01*
G01X6716Y1908D01*
G01X6690Y1878D01*
G01X6665Y1847D01*
G01X6642Y1816D01*
G01X6620Y1783D01*
G01X6600Y1749D01*
G01X6581Y1715D01*
G01X6564Y1680D01*
G01X6548Y1644D01*
G01X6534Y1607D01*
G01X6521Y1570D01*
G01X6510Y1532D01*
G01X6501Y1494D01*
G01X6493Y1456D01*
G01X6487Y1417D01*
G01X6483Y1378D01*
G01X6480Y1339D01*
G01X6480Y1300D01*
G01X6480Y1300D02*
G01X6480Y1260D01*
G01X6483Y1221D01*
G01X6487Y1182D01*
G01X6493Y1143D01*
G01X6501Y1105D01*
G01X6510Y1067D01*
G01X6521Y1029D01*
G01X6534Y992D01*
G01X6548Y955D01*
G01X6564Y919D01*
G01X6581Y884D01*
G01X6600Y849D01*
G01X6620Y816D01*
G01X6642Y783D01*
G01X6665Y752D01*
G01X6690Y721D01*
G01X6716Y691D01*
G01X6743Y663D01*
G01X6771Y636D01*
G01X6801Y610D01*
G01X6832Y585D01*
G01X6863Y562D01*
G01X6896Y540D01*
G01X6930Y520D01*
G01X6964Y501D01*
G01X6999Y484D01*
G01X7035Y468D01*
G01X7072Y454D01*
G01X7109Y441D01*
G01X7147Y430D01*
G01X7185Y421D01*
G01X7223Y413D01*
G01X7262Y407D01*
G01X7301Y403D01*
G01X7340Y400D01*
G01X7380Y400D01*
G01X7380Y400D02*
G01X7419Y400D01*
G01X7458Y403D01*
G01X7497Y407D01*
G01X7536Y413D01*
G01X7574Y421D01*
G01X7612Y430D01*
G01X7650Y441D01*
G01X7687Y454D01*
G01X7724Y468D01*
G01X7760Y484D01*
G01X7795Y501D01*
G01X7830Y520D01*
G01X7863Y540D01*
G01X7896Y562D01*
G01X7927Y585D01*
G01X7958Y610D01*
G01X7988Y636D01*
G01X8016Y663D01*
G01X8043Y691D01*
G01X8069Y721D01*
G01X8094Y752D01*
G01X8117Y783D01*
G01X8139Y816D01*
G01X8159Y850D01*
G01X8178Y884D01*
G01X8195Y919D01*
G01X8211Y955D01*
G01X8225Y992D01*
G01X8238Y1029D01*
G01X8249Y1067D01*
G01X8258Y1105D01*
G01X8266Y1143D01*
G01X8272Y1182D01*
G01X8276Y1221D01*
G01X8279Y1260D01*
G01X8280Y1300D01*
G04 draw reference designator for part LED*
G01X8400Y1475D02*
G01X8400Y1100D01*
G01X8614Y1100D02*
G01X8400Y1100D01*
G01X8757Y1475D02*
G01X8757Y1100D01*
G01X8990Y1475D02*
G01X8757Y1475D01*
G01X8901Y1296D02*
G01X8757Y1296D01*
G01X8990Y1100D02*
G01X8757Y1100D01*
G01X9133Y1475D02*
G01X9133Y1100D01*
G01X9258Y1475D02*
G01X9133Y1475D01*
G01X9258Y1475D02*
G01X9312Y1457D01*
G01X9312Y1457D02*
G01X9348Y1422D01*
G01X9348Y1422D02*
G01X9366Y1386D01*
G01X9366Y1386D02*
G01X9384Y1332D01*
G01X9384Y1332D02*
G01X9384Y1243D01*
G01X9384Y1243D02*
G01X9366Y1189D01*
G01X9366Y1189D02*
G01X9348Y1153D01*
G01X9348Y1153D02*
G01X9312Y1117D01*
G01X9312Y1117D02*
G01X9258Y1100D01*
G01X9133Y1100D02*
G01X9258Y1100D01*
G04 Draw part R03*
G04 draw part outline for part R03*
G01X10925Y5593D02*
G01X12422Y5593D01*
G01X12422Y5593D02*
G01X12422Y4806D01*
G01X12422Y4806D02*
G01X10925Y4806D01*
G01X10925Y4806D02*
G01X10925Y5593D01*
G04 draw reference designator for part R03*
G01X12600Y5375D02*
G01X12600Y5000D01*
G01X12761Y5375D02*
G01X12600Y5375D01*
G01X12761Y5375D02*
G01X12814Y5357D01*
G01X12814Y5357D02*
G01X12832Y5340D01*
G01X12832Y5340D02*
G01X12850Y5304D01*
G01X12850Y5304D02*
G01X12850Y5268D01*
G01X12850Y5268D02*
G01X12832Y5232D01*
G01X12832Y5232D02*
G01X12814Y5214D01*
G01X12814Y5214D02*
G01X12761Y5196D01*
G01X12600Y5196D02*
G01X12761Y5196D01*
G01X12725Y5196D02*
G01X12850Y5000D01*
G01X13101Y5375D02*
G01X13047Y5357D01*
G01X13047Y5357D02*
G01X13011Y5304D01*
G01X13011Y5304D02*
G01X12993Y5214D01*
G01X12993Y5214D02*
G01X12993Y5161D01*
G01X12993Y5161D02*
G01X13011Y5071D01*
G01X13011Y5071D02*
G01X13047Y5017D01*
G01X13047Y5017D02*
G01X13101Y5000D01*
G01X13136Y5000D02*
G01X13101Y5000D01*
G01X13190Y5017D02*
G01X13136Y5000D01*
G01X13226Y5071D02*
G01X13190Y5017D01*
G01X13244Y5161D02*
G01X13226Y5071D01*
G01X13244Y5214D02*
G01X13244Y5161D01*
G01X13226Y5304D02*
G01X13244Y5214D01*
G01X13190Y5357D02*
G01X13226Y5304D01*
G01X13136Y5375D02*
G01X13190Y5357D01*
G01X13101Y5375D02*
G01X13136Y5375D01*
G01X13620Y5375D02*
G01X13423Y5375D01*
G01X13620Y5375D02*
G01X13512Y5232D01*
G01X13566Y5232D02*
G01X13512Y5232D01*
G01X13566Y5232D02*
G01X13602Y5214D01*
G01X13602Y5214D02*
G01X13620Y5196D01*
G01X13620Y5196D02*
G01X13637Y5143D01*
G01X13637Y5143D02*
G01X13637Y5107D01*
G01X13637Y5107D02*
G01X13620Y5053D01*
G01X13620Y5053D02*
G01X13584Y5017D01*
G01X13584Y5017D02*
G01X13530Y5000D01*
G01X13476Y5000D02*
G01X13530Y5000D01*
G01X13423Y5017D02*
G01X13476Y5000D01*
G01X13405Y5035D02*
G01X13423Y5017D01*
G01X13387Y5071D02*
G01X13405Y5035D01*
G04 Draw part dc9*
G04 draw part outline for part dc9*
G01X6725Y3233D02*
G01X8222Y3233D01*
G01X8222Y3233D02*
G01X8222Y2366D01*
G01X8222Y2366D02*
G01X6725Y2366D01*
G01X6725Y2366D02*
G01X6725Y3233D01*
G04 draw value for part dc9*
G01X8576Y2980D02*
G01X8576Y2605D01*
G01X8540Y2837D02*
G01X8576Y2801D01*
G01X8505Y2855D02*
G01X8540Y2837D01*
G01X8451Y2855D02*
G01X8505Y2855D01*
G01X8451Y2855D02*
G01X8415Y2837D01*
G01X8415Y2837D02*
G01X8379Y2801D01*
G01X8379Y2801D02*
G01X8362Y2748D01*
G01X8362Y2748D02*
G01X8362Y2712D01*
G01X8362Y2712D02*
G01X8379Y2658D01*
G01X8379Y2658D02*
G01X8415Y2622D01*
G01X8415Y2622D02*
G01X8451Y2605D01*
G01X8505Y2605D02*
G01X8451Y2605D01*
G01X8540Y2622D02*
G01X8505Y2605D01*
G01X8576Y2658D02*
G01X8540Y2622D01*
G01X8898Y2837D02*
G01X8934Y2801D01*
G01X8863Y2855D02*
G01X8898Y2837D01*
G01X8809Y2855D02*
G01X8863Y2855D01*
G01X8809Y2855D02*
G01X8773Y2837D01*
G01X8773Y2837D02*
G01X8737Y2801D01*
G01X8737Y2801D02*
G01X8719Y2748D01*
G01X8719Y2748D02*
G01X8719Y2712D01*
G01X8719Y2712D02*
G01X8737Y2658D01*
G01X8737Y2658D02*
G01X8773Y2622D01*
G01X8773Y2622D02*
G01X8809Y2605D01*
G01X8863Y2605D02*
G01X8809Y2605D01*
G01X8898Y2622D02*
G01X8863Y2605D01*
G01X8934Y2658D02*
G01X8898Y2622D01*

G04 Draw traces*

G04 Draw Text*
G54D10*
G01X31218Y600D02*
G01X31181Y636D01*
G01X31181Y636D02*
G01X31145Y654D01*
G01X31145Y654D02*
G01X31090Y654D01*
G01X31090Y654D02*
G01X31054Y636D01*
G01X31054Y636D02*
G01X31018Y600D01*
G01X31018Y600D02*
G01X31000Y545D01*
G01X31000Y545D02*
G01X31000Y509D01*
G01X31000Y509D02*
G01X31018Y454D01*
G01X31018Y454D02*
G01X31054Y418D01*
G01X31054Y418D02*
G01X31090Y400D01*
G01X31090Y400D02*
G01X31145Y400D01*
G01X31145Y400D02*
G01X31181Y418D01*
G01X31181Y418D02*
G01X31218Y454D01*
G01X31363Y654D02*
G01X31436Y400D01*
G01X31509Y654D02*
G01X31436Y400D01*
G01X31509Y654D02*
G01X31581Y400D01*
G01X31654Y654D02*
G01X31581Y400D01*
G01X22218Y500D02*
G01X22181Y536D01*
G01X22181Y536D02*
G01X22145Y554D01*
G01X22145Y554D02*
G01X22090Y554D01*
G01X22090Y554D02*
G01X22054Y536D01*
G01X22054Y536D02*
G01X22018Y500D01*
G01X22018Y500D02*
G01X22000Y445D01*
G01X22000Y445D02*
G01X22000Y409D01*
G01X22000Y409D02*
G01X22018Y354D01*
G01X22018Y354D02*
G01X22054Y318D01*
G01X22054Y318D02*
G01X22090Y300D01*
G01X22090Y300D02*
G01X22145Y300D01*
G01X22145Y300D02*
G01X22181Y318D01*
G01X22181Y318D02*
G01X22218Y354D01*
G01X22363Y554D02*
G01X22436Y300D01*
G01X22509Y554D02*
G01X22436Y300D01*
G01X22509Y554D02*
G01X22581Y300D01*
G01X22654Y554D02*
G01X22581Y300D01*
G01X13218Y500D02*
G01X13181Y536D01*
G01X13181Y536D02*
G01X13145Y554D01*
G01X13145Y554D02*
G01X13090Y554D01*
G01X13090Y554D02*
G01X13054Y536D01*
G01X13054Y536D02*
G01X13018Y500D01*
G01X13018Y500D02*
G01X13000Y445D01*
G01X13000Y445D02*
G01X13000Y409D01*
G01X13000Y409D02*
G01X13018Y354D01*
G01X13018Y354D02*
G01X13054Y318D01*
G01X13054Y318D02*
G01X13090Y300D01*
G01X13090Y300D02*
G01X13145Y300D01*
G01X13145Y300D02*
G01X13181Y318D01*
G01X13181Y318D02*
G01X13218Y354D01*
G01X13363Y554D02*
G01X13436Y300D01*
G01X13509Y554D02*
G01X13436Y300D01*
G01X13509Y554D02*
G01X13581Y300D01*
G01X13654Y554D02*
G01X13581Y300D01*
G01X4118Y500D02*
G01X4081Y536D01*
G01X4081Y536D02*
G01X4045Y554D01*
G01X4045Y554D02*
G01X3990Y554D01*
G01X3990Y554D02*
G01X3954Y536D01*
G01X3954Y536D02*
G01X3918Y500D01*
G01X3918Y500D02*
G01X3900Y445D01*
G01X3900Y445D02*
G01X3900Y409D01*
G01X3900Y409D02*
G01X3918Y354D01*
G01X3918Y354D02*
G01X3954Y318D01*
G01X3954Y318D02*
G01X3990Y300D01*
G01X3990Y300D02*
G01X4045Y300D01*
G01X4045Y300D02*
G01X4081Y318D01*
G01X4081Y318D02*
G01X4118Y354D01*
G01X4263Y554D02*
G01X4336Y300D01*
G01X4409Y554D02*
G01X4336Y300D01*
G01X4409Y554D02*
G01X4481Y300D01*
G01X4554Y554D02*
G01X4481Y300D01*
G01X8018Y7054D02*
G01X8018Y6800D01*
G01X8018Y7000D02*
G01X7981Y7036D01*
G01X7981Y7036D02*
G01X7945Y7054D01*
G01X7945Y7054D02*
G01X7890Y7054D01*
G01X7890Y7054D02*
G01X7854Y7036D01*
G01X7854Y7036D02*
G01X7818Y7000D01*
G01X7818Y7000D02*
G01X7800Y6945D01*
G01X7800Y6945D02*
G01X7800Y6909D01*
G01X7800Y6909D02*
G01X7818Y6854D01*
G01X7818Y6854D02*
G01X7854Y6818D01*
G01X7854Y6818D02*
G01X7890Y6800D01*
G01X7890Y6800D02*
G01X7945Y6800D01*
G01X7945Y6800D02*
G01X7981Y6818D01*
G01X7981Y6818D02*
G01X8018Y6854D01*
G01X8381Y7181D02*
G01X8199Y7181D01*
G01X8199Y7181D02*
G01X8181Y7018D01*
G01X8181Y7018D02*
G01X8199Y7036D01*
G01X8199Y7036D02*
G01X8254Y7054D01*
G01X8254Y7054D02*
G01X8309Y7054D01*
G01X8309Y7054D02*
G01X8363Y7036D01*
G01X8363Y7036D02*
G01X8399Y7000D01*
G01X8399Y7000D02*
G01X8418Y6945D01*
G01X8418Y6945D02*
G01X8418Y6909D01*
G01X8418Y6909D02*
G01X8399Y6854D01*
G01X8399Y6854D02*
G01X8363Y6818D01*
G01X8363Y6818D02*
G01X8309Y6800D01*
G01X8309Y6800D02*
G01X8254Y6800D01*
G01X8254Y6800D02*
G01X8199Y6818D01*
G01X8199Y6818D02*
G01X8181Y6836D01*
G01X8181Y6836D02*
G01X8163Y6872D01*
G01X6918Y7054D02*
G01X6918Y6800D01*
G01X6918Y7000D02*
G01X6881Y7036D01*
G01X6881Y7036D02*
G01X6845Y7054D01*
G01X6845Y7054D02*
G01X6790Y7054D01*
G01X6790Y7054D02*
G01X6754Y7036D01*
G01X6754Y7036D02*
G01X6718Y7000D01*
G01X6718Y7000D02*
G01X6700Y6945D01*
G01X6700Y6945D02*
G01X6700Y6909D01*
G01X6700Y6909D02*
G01X6718Y6854D01*
G01X6718Y6854D02*
G01X6754Y6818D01*
G01X6754Y6818D02*
G01X6790Y6800D01*
G01X6790Y6800D02*
G01X6845Y6800D01*
G01X6845Y6800D02*
G01X6881Y6818D01*
G01X6881Y6818D02*
G01X6918Y6854D01*
G01X7281Y7127D02*
G01X7263Y7163D01*
G01X7263Y7163D02*
G01X7209Y7181D01*
G01X7209Y7181D02*
G01X7172Y7181D01*
G01X7172Y7181D02*
G01X7118Y7163D01*
G01X7118Y7163D02*
G01X7081Y7109D01*
G01X7081Y7109D02*
G01X7063Y7018D01*
G01X7063Y7018D02*
G01X7063Y6927D01*
G01X7063Y6927D02*
G01X7081Y6854D01*
G01X7081Y6854D02*
G01X7118Y6818D01*
G01X7118Y6818D02*
G01X7172Y6800D01*
G01X7172Y6800D02*
G01X7190Y6800D01*
G01X7190Y6800D02*
G01X7245Y6818D01*
G01X7245Y6818D02*
G01X7281Y6854D01*
G01X7281Y6854D02*
G01X7299Y6909D01*
G01X7299Y6909D02*
G01X7299Y6927D01*
G01X7299Y6927D02*
G01X7281Y6981D01*
G01X7281Y6981D02*
G01X7245Y7018D01*
G01X7245Y7018D02*
G01X7190Y7036D01*
G01X7190Y7036D02*
G01X7172Y7036D01*
G01X7172Y7036D02*
G01X7118Y7018D01*
G01X7118Y7018D02*
G01X7081Y6981D01*
G01X7081Y6981D02*
G01X7063Y6927D01*
G01X8018Y7954D02*
G01X8018Y7700D01*
G01X8018Y7900D02*
G01X7981Y7936D01*
G01X7981Y7936D02*
G01X7945Y7954D01*
G01X7945Y7954D02*
G01X7890Y7954D01*
G01X7890Y7954D02*
G01X7854Y7936D01*
G01X7854Y7936D02*
G01X7818Y7900D01*
G01X7818Y7900D02*
G01X7800Y7845D01*
G01X7800Y7845D02*
G01X7800Y7809D01*
G01X7800Y7809D02*
G01X7818Y7754D01*
G01X7818Y7754D02*
G01X7854Y7718D01*
G01X7854Y7718D02*
G01X7890Y7700D01*
G01X7890Y7700D02*
G01X7945Y7700D01*
G01X7945Y7700D02*
G01X7981Y7718D01*
G01X7981Y7718D02*
G01X8018Y7754D01*
G01X8345Y8081D02*
G01X8163Y7827D01*
G01X8163Y7827D02*
G01X8436Y7827D01*
G01X8345Y8081D02*
G01X8345Y7700D01*
G01X5200Y1675D02*
G01X5200Y1300D01*
G01X5200Y1675D02*
G01X5361Y1675D01*
G01X5361Y1675D02*
G01X5414Y1657D01*
G01X5414Y1657D02*
G01X5432Y1640D01*
G01X5432Y1640D02*
G01X5450Y1604D01*
G01X5450Y1604D02*
G01X5450Y1568D01*
G01X5450Y1568D02*
G01X5432Y1532D01*
G01X5432Y1532D02*
G01X5414Y1514D01*
G01X5414Y1514D02*
G01X5361Y1496D01*
G01X5361Y1496D02*
G01X5200Y1496D01*
G01X5325Y1496D02*
G01X5450Y1300D01*
G01X5808Y1622D02*
G01X5790Y1657D01*
G01X5790Y1657D02*
G01X5736Y1675D01*
G01X5736Y1675D02*
G01X5701Y1675D01*
G01X5701Y1675D02*
G01X5647Y1657D01*
G01X5647Y1657D02*
G01X5611Y1604D01*
G01X5611Y1604D02*
G01X5593Y1514D01*
G01X5593Y1514D02*
G01X5593Y1425D01*
G01X5593Y1425D02*
G01X5611Y1353D01*
G01X5611Y1353D02*
G01X5647Y1317D01*
G01X5647Y1317D02*
G01X5701Y1300D01*
G01X5701Y1300D02*
G01X5718Y1300D01*
G01X5718Y1300D02*
G01X5772Y1317D01*
G01X5772Y1317D02*
G01X5808Y1353D01*
G01X5808Y1353D02*
G01X5826Y1407D01*
G01X5826Y1407D02*
G01X5826Y1425D01*
G01X5826Y1425D02*
G01X5808Y1478D01*
G01X5808Y1478D02*
G01X5772Y1514D01*
G01X5772Y1514D02*
G01X5718Y1532D01*
G01X5718Y1532D02*
G01X5701Y1532D01*
G01X5701Y1532D02*
G01X5647Y1514D01*
G01X5647Y1514D02*
G01X5611Y1478D01*
G01X5611Y1478D02*
G01X5593Y1425D01*
G01X5987Y1586D02*
G01X5987Y1604D01*
G01X5987Y1604D02*
G01X6005Y1640D01*
G01X6005Y1640D02*
G01X6023Y1657D01*
G01X6023Y1657D02*
G01X6058Y1675D01*
G01X6058Y1675D02*
G01X6130Y1675D01*
G01X6130Y1675D02*
G01X6166Y1657D01*
G01X6166Y1657D02*
G01X6184Y1640D01*
G01X6184Y1640D02*
G01X6202Y1604D01*
G01X6202Y1604D02*
G01X6202Y1568D01*
G01X6202Y1568D02*
G01X6184Y1532D01*
G01X6184Y1532D02*
G01X6148Y1478D01*
G01X6148Y1478D02*
G01X5969Y1300D01*
G01X5969Y1300D02*
G01X6220Y1300D01*
G01X5100Y3775D02*
G01X5100Y3400D01*
G01X5100Y3775D02*
G01X5261Y3775D01*
G01X5261Y3775D02*
G01X5314Y3757D01*
G01X5314Y3757D02*
G01X5332Y3740D01*
G01X5332Y3740D02*
G01X5350Y3704D01*
G01X5350Y3704D02*
G01X5350Y3668D01*
G01X5350Y3668D02*
G01X5332Y3632D01*
G01X5332Y3632D02*
G01X5314Y3614D01*
G01X5314Y3614D02*
G01X5261Y3596D01*
G01X5261Y3596D02*
G01X5100Y3596D01*
G01X5225Y3596D02*
G01X5350Y3400D01*
G01X5708Y3722D02*
G01X5690Y3757D01*
G01X5690Y3757D02*
G01X5636Y3775D01*
G01X5636Y3775D02*
G01X5601Y3775D01*
G01X5601Y3775D02*
G01X5547Y3757D01*
G01X5547Y3757D02*
G01X5511Y3704D01*
G01X5511Y3704D02*
G01X5493Y3614D01*
G01X5493Y3614D02*
G01X5493Y3525D01*
G01X5493Y3525D02*
G01X5511Y3453D01*
G01X5511Y3453D02*
G01X5547Y3417D01*
G01X5547Y3417D02*
G01X5601Y3400D01*
G01X5601Y3400D02*
G01X5618Y3400D01*
G01X5618Y3400D02*
G01X5672Y3417D01*
G01X5672Y3417D02*
G01X5708Y3453D01*
G01X5708Y3453D02*
G01X5726Y3507D01*
G01X5726Y3507D02*
G01X5726Y3525D01*
G01X5726Y3525D02*
G01X5708Y3578D01*
G01X5708Y3578D02*
G01X5672Y3614D01*
G01X5672Y3614D02*
G01X5618Y3632D01*
G01X5618Y3632D02*
G01X5601Y3632D01*
G01X5601Y3632D02*
G01X5547Y3614D01*
G01X5547Y3614D02*
G01X5511Y3578D01*
G01X5511Y3578D02*
G01X5493Y3525D01*
G01X6048Y3775D02*
G01X5869Y3525D01*
G01X5869Y3525D02*
G01X6137Y3525D01*
G01X6048Y3775D02*
G01X6048Y3400D01*
G01X25318Y6554D02*
G01X25318Y6300D01*
G01X25318Y6500D02*
G01X25281Y6536D01*
G01X25281Y6536D02*
G01X25245Y6554D01*
G01X25245Y6554D02*
G01X25190Y6554D01*
G01X25190Y6554D02*
G01X25154Y6536D01*
G01X25154Y6536D02*
G01X25118Y6500D01*
G01X25118Y6500D02*
G01X25100Y6445D01*
G01X25100Y6445D02*
G01X25100Y6409D01*
G01X25100Y6409D02*
G01X25118Y6354D01*
G01X25118Y6354D02*
G01X25154Y6318D01*
G01X25154Y6318D02*
G01X25190Y6300D01*
G01X25190Y6300D02*
G01X25245Y6300D01*
G01X25245Y6300D02*
G01X25281Y6318D01*
G01X25281Y6318D02*
G01X25318Y6354D01*
G01X25499Y6681D02*
G01X25699Y6681D01*
G01X25699Y6681D02*
G01X25590Y6536D01*
G01X25590Y6536D02*
G01X25645Y6536D01*
G01X25645Y6536D02*
G01X25681Y6518D01*
G01X25681Y6518D02*
G01X25699Y6500D01*
G01X25699Y6500D02*
G01X25718Y6445D01*
G01X25718Y6445D02*
G01X25718Y6409D01*
G01X25718Y6409D02*
G01X25699Y6354D01*
G01X25699Y6354D02*
G01X25663Y6318D01*
G01X25663Y6318D02*
G01X25609Y6300D01*
G01X25609Y6300D02*
G01X25554Y6300D01*
G01X25554Y6300D02*
G01X25499Y6318D01*
G01X25499Y6318D02*
G01X25481Y6336D01*
G01X25481Y6336D02*
G01X25463Y6372D01*
G01X26718Y6554D02*
G01X26718Y6300D01*
G01X26718Y6500D02*
G01X26681Y6536D01*
G01X26681Y6536D02*
G01X26645Y6554D01*
G01X26645Y6554D02*
G01X26590Y6554D01*
G01X26590Y6554D02*
G01X26554Y6536D01*
G01X26554Y6536D02*
G01X26518Y6500D01*
G01X26518Y6500D02*
G01X26500Y6445D01*
G01X26500Y6445D02*
G01X26500Y6409D01*
G01X26500Y6409D02*
G01X26518Y6354D01*
G01X26518Y6354D02*
G01X26554Y6318D01*
G01X26554Y6318D02*
G01X26590Y6300D01*
G01X26590Y6300D02*
G01X26645Y6300D01*
G01X26645Y6300D02*
G01X26681Y6318D01*
G01X26681Y6318D02*
G01X26718Y6354D01*
G01X26863Y6609D02*
G01X26899Y6627D01*
G01X26899Y6627D02*
G01X26954Y6681D01*
G01X26954Y6681D02*
G01X26954Y6300D01*
G01X26618Y5654D02*
G01X26618Y5400D01*
G01X26618Y5600D02*
G01X26581Y5636D01*
G01X26581Y5636D02*
G01X26545Y5654D01*
G01X26545Y5654D02*
G01X26490Y5654D01*
G01X26490Y5654D02*
G01X26454Y5636D01*
G01X26454Y5636D02*
G01X26418Y5600D01*
G01X26418Y5600D02*
G01X26400Y5545D01*
G01X26400Y5545D02*
G01X26400Y5509D01*
G01X26400Y5509D02*
G01X26418Y5454D01*
G01X26418Y5454D02*
G01X26454Y5418D01*
G01X26454Y5418D02*
G01X26490Y5400D01*
G01X26490Y5400D02*
G01X26545Y5400D01*
G01X26545Y5400D02*
G01X26581Y5418D01*
G01X26581Y5418D02*
G01X26618Y5454D01*
G01X27018Y5781D02*
G01X26836Y5400D01*
G01X26763Y5781D02*
G01X27018Y5781D01*
G01X25318Y5654D02*
G01X25318Y5400D01*
G01X25318Y5600D02*
G01X25281Y5636D01*
G01X25281Y5636D02*
G01X25245Y5654D01*
G01X25245Y5654D02*
G01X25190Y5654D01*
G01X25190Y5654D02*
G01X25154Y5636D01*
G01X25154Y5636D02*
G01X25118Y5600D01*
G01X25118Y5600D02*
G01X25100Y5545D01*
G01X25100Y5545D02*
G01X25100Y5509D01*
G01X25100Y5509D02*
G01X25118Y5454D01*
G01X25118Y5454D02*
G01X25154Y5418D01*
G01X25154Y5418D02*
G01X25190Y5400D01*
G01X25190Y5400D02*
G01X25245Y5400D01*
G01X25245Y5400D02*
G01X25281Y5418D01*
G01X25281Y5418D02*
G01X25318Y5454D01*
G01X25481Y5690D02*
G01X25481Y5709D01*
G01X25481Y5709D02*
G01X25499Y5745D01*
G01X25499Y5745D02*
G01X25518Y5763D01*
G01X25518Y5763D02*
G01X25554Y5781D01*
G01X25554Y5781D02*
G01X25627Y5781D01*
G01X25627Y5781D02*
G01X25663Y5763D01*
G01X25663Y5763D02*
G01X25681Y5745D01*
G01X25681Y5745D02*
G01X25699Y5709D01*
G01X25699Y5709D02*
G01X25699Y5672D01*
G01X25699Y5672D02*
G01X25681Y5636D01*
G01X25681Y5636D02*
G01X25645Y5581D01*
G01X25645Y5581D02*
G01X25463Y5400D01*
G01X25463Y5400D02*
G01X25718Y5400D01*
M00*
M02*
