G04 FreePCB version 1.353*
G04 C:\Users\Spatt\Dropbox\HPF-Pre\Design explorations\Channel Two\CAM 03\top_solder_mask.grb*
G04 top solder mask layer *
G04 Scale: 100 percent, Rotated: No, Reflected: No *
%FSLAX24Y24*%
%MOIN*%
%LN top solder mask *%
G04 Rounded Rectangle Macro, params: W/2, H/2, R *
%AMRNDREC*
21,1,$1+$1,$2+$2-$3-$3,0,0,0*
21,1,$1+$1-$3-$3,$2+$2,0,0,0*
1,1,$3+$3,$1-$3,$2-$3*
1,1,$3+$3,$3-$1,$2-$3*
1,1,$3+$3,$1-$3,$3-$2*
1,1,$3+$3,$3-$1,$3-$2*%
G04 Rectangular Thermal Macro, params: W/2, H/2, T/2 *
%AMRECTHERM*
$4=$3/2*
21,1,$1-$3,$2-$3,0-$1/2-$4,0-$2/2-$4,0*
21,1,$1-$3,$2-$3,0-$1/2-$4,$2/2+$4,0*
21,1,$1-$3,$2-$3,$1/2+$4,0-$2/2-$4,0*
21,1,$1-$3,$2-$3,$1/2+$4,$2/2+$4,0*%
%ADD10C,0.005000*%
%ADD11C,0.131000*%
%ADD12C,0.126000*%
%ADD13R,0.033717X0.073087*%
%ADD14R,0.067181X0.071118*%
%ADD15R,0.067181X0.078992*%
%ADD16C,0.072000*%
%ADD17R,0.064000X0.056000*%
%ADD18C,0.056000*%
%ADD19R,0.076000X0.076000*%
%ADD20C,0.076000*%
%ADD21R,0.081000X0.081000*%
%ADD22C,0.081000*%
%ADD23C,0.044000*%
%ADD24C,0.016000*%
G90*
G70D02*

G04 Step and Repeat for panelization *

G04 ----------------------- Draw board outline (positive)*
%LPD*%
G54D10*
G01X0Y10100D02*
G01X0Y0D01*
G04 end of side 1*
G01X32700Y0D01*
G04 end of side 2*
G01X32700Y10100D01*
G04 end of side 3*
G01X0Y10100D01*

G04 -------------- Draw Parts, Pads, Traces, Vias and Text (positive)*
%LPD*%
G04 Draw part POT1*
G54D11*
G01X4350Y3600D03*
G01X2880Y3600D03*
G01X1400Y3600D03*
G01X4350Y1630D03*
G01X2880Y1630D03*
G54D12*
G01X1400Y1630D03*
G04 Draw part R22*
G54D11*
G01X13350Y3600D03*
G01X11880Y3600D03*
G01X10400Y3600D03*
G01X13350Y1630D03*
G01X11880Y1630D03*
G54D12*
G01X10400Y1630D03*
G04 Draw part R25*
G54D11*
G01X22350Y3600D03*
G01X20880Y3600D03*
G01X19400Y3600D03*
G01X22350Y1630D03*
G01X20880Y1630D03*
G54D12*
G01X19400Y1630D03*
G04 Draw part R72*
G54D11*
G01X31350Y3600D03*
G01X29880Y3600D03*
G01X28400Y3600D03*
G01X31350Y1630D03*
G01X29880Y1630D03*
G54D12*
G01X28400Y1630D03*
G04 Draw part U1*
G54D13*
G01X25300Y4800D03*
G01X25555Y4800D03*
G01X25811Y4800D03*
G01X26067Y4800D03*
G01X26323Y4800D03*
G01X26579Y4800D03*
G01X26835Y4800D03*
G01X26835Y7359D03*
G01X26579Y7359D03*
G01X26323Y7359D03*
G01X26067Y7359D03*
G01X25811Y7359D03*
G01X25555Y7359D03*
G01X25300Y7359D03*
G04 Draw part R31*
G54D14*
G01X20000Y7800D03*
G01X20748Y7800D03*
G04 Draw part C31*
G54D15*
G01X21900Y8300D03*
G01X22648Y8300D03*
G04 Draw part R32*
G54D14*
G01X21900Y7100D03*
G01X22648Y7100D03*
G04 Draw part R11*
G01X29200Y7500D03*
G01X28451Y7500D03*
G04 Draw part C11*
G54D15*
G01X31300Y7300D03*
G01X30551Y7300D03*
G04 Draw part R12*
G54D14*
G01X31300Y6300D03*
G01X30551Y6300D03*
G04 Draw part C30*
G54D15*
G01X20700Y6700D03*
G01X19951Y6700D03*
G04 Draw part C10*
G01X28500Y6500D03*
G01X29248Y6500D03*
G04 Draw part R71*
G54D14*
G01X30500Y4700D03*
G01X31248Y4700D03*
G04 Draw part R43*
G01X11000Y9000D03*
G01X11748Y9000D03*
G04 Draw part R44*
G01X12900Y9100D03*
G01X13648Y9100D03*
G04 Draw part R41*
G01X5200Y9100D03*
G01X5948Y9100D03*
G04 Draw part R42*
G01X9100Y9000D03*
G01X9848Y9000D03*
G04 Draw part C22*
G54D15*
G01X20800Y4700D03*
G01X20051Y4700D03*
G04 Draw part R26*
G54D14*
G01X17100Y3200D03*
G01X17848Y3200D03*
G04 Draw part R24*
G01X23600Y2600D03*
G01X24348Y2600D03*
G04 Draw part R23*
G01X17500Y1200D03*
G01X16751Y1200D03*
G04 Draw part R21*
G01X15200Y3200D03*
G01X15948Y3200D03*
G04 Draw part C21*
G54D15*
G01X14900Y1200D03*
G01X15648Y1200D03*
G04 Draw part R27*
G54D14*
G01X15100Y4900D03*
G01X15848Y4900D03*
G04 Draw part C51*
G54D16*
G01X14400Y7900D03*
G01X12400Y7900D03*
G04 Draw part C52*
G01X12400Y6700D03*
G01X14400Y6700D03*
G04 Draw part R52*
G54D14*
G01X10700Y6700D03*
G01X11448Y6700D03*
G04 Draw part D01*
G54D17*
G01X17900Y8600D03*
G01X18800Y8200D03*
G01X18800Y9000D03*
G04 Draw part C01*
G54D15*
G01X18000Y7300D03*
G01X18748Y7300D03*
G04 Draw part R01*
G54D14*
G01X16100Y6900D03*
G01X16848Y6900D03*
G04 Draw part R02*
G01X16900Y8000D03*
G01X16151Y8000D03*
G04 Draw part gndpad1*
G54D18*
G01X26100Y8300D03*
G04 Draw part R51*
G54D14*
G01X7100Y3900D03*
G01X7848Y3900D03*
G04 Draw part C61*
G54D16*
G01X2800Y5900D03*
G01X4800Y5900D03*
G04 Draw part C62*
G01X4800Y7000D03*
G01X2800Y7000D03*
G04 Draw part R61*
G54D14*
G01X5300Y4800D03*
G01X6048Y4800D03*
G04 Draw part R63*
G01X2300Y4900D03*
G01X3048Y4900D03*
G04 Draw part R65*
G01X9100Y7400D03*
G01X9848Y7400D03*
G04 Draw part C63*
G54D15*
G01X3300Y8300D03*
G01X4048Y8300D03*
G04 Draw part R66*
G54D14*
G01X5200Y8100D03*
G01X5948Y8100D03*
G04 Draw part R67*
G01X1400Y8300D03*
G01X2148Y8300D03*
G04 Draw part m1*
G54D18*
G01X7500Y7800D03*
G04 Draw part m3*
G54D15*
G01X8800Y5200D03*
G01X9548Y5200D03*
G04 Draw part m4*
G54D18*
G01X10300Y5200D03*
G04 Draw part m5*
G54D15*
G01X25300Y3800D03*
G01X26048Y3800D03*
G04 Draw part m6*
G54D18*
G01X19100Y6600D03*
G04 Draw part m15*
G54D15*
G01X25200Y9000D03*
G01X24451Y9000D03*
G04 Draw part m16*
G54D18*
G01X26000Y9000D03*
G04 Draw part j1*
G54D19*
G01X27700Y9300D03*
G54D20*
G01X28500Y9300D03*
G04 Draw part j2*
G54D19*
G01X20000Y9300D03*
G54D20*
G01X20800Y9300D03*
G04 Draw part j3*
G54D19*
G01X16200Y9300D03*
G54D20*
G01X17000Y9300D03*
G04 Draw part j4*
G54D19*
G01X1300Y9300D03*
G54D20*
G01X2100Y9300D03*
G04 Draw part U2*
G54D13*
G01X6700Y6200D03*
G01X6955Y6200D03*
G01X7211Y6200D03*
G01X7467Y6200D03*
G01X7723Y6200D03*
G01X7979Y6200D03*
G01X8235Y6200D03*
G01X8235Y8759D03*
G01X7979Y8759D03*
G01X7723Y8759D03*
G01X7467Y8759D03*
G01X7211Y8759D03*
G01X6955Y8759D03*
G01X6700Y8759D03*
G04 Draw part j6*
G54D18*
G01X24400Y3800D03*
G04 Draw part LED*
G54D21*
G01X6880Y1300D03*
G54D22*
G01X7880Y1300D03*
G04 Draw part R03*
G54D14*
G01X11300Y5200D03*
G01X12048Y5200D03*
G04 Draw part dc9*
G54D15*
G01X7100Y2800D03*
G01X7848Y2800D03*

G04 Draw traces*
G54D23*
G01X26500Y5900D03*
G01X25700Y5900D03*
G01X17800Y5000D03*
G01X17800Y5600D03*
G01X15100Y6200D03*
G01X15100Y5600D03*
G01X17100Y1900D03*
G01X17100Y2500D03*
G01X6400Y6900D03*
G01X7000Y6900D03*
G01X7800Y5500D03*
G01X7800Y4900D03*
G01X27900Y5200D03*
G01X27900Y5800D03*
G01X10400Y8600D03*
G01X17500Y6600D03*
G01X17500Y5900D03*

G04 Draw Text*
G54D24*

G04 Draw solder mask cutouts*
M00*
M02*
