%TF.GenerationSoftware,KiCad,Pcbnew,8.0.6*%
%TF.CreationDate,2024-11-09T16:50:09-06:00*%
%TF.ProjectId,Channel Two v2,4368616e-6e65-46c2-9054-776f2076322e,rev?*%
%TF.SameCoordinates,Original*%
%TF.FileFunction,Soldermask,Top*%
%TF.FilePolarity,Negative*%
%FSLAX46Y46*%
G04 Gerber Fmt 4.6, Leading zero omitted, Abs format (unit mm)*
G04 Created by KiCad (PCBNEW 8.0.6) date 2024-11-09 16:50:09*
%MOMM*%
%LPD*%
G01*
G04 APERTURE LIST*
G04 Aperture macros list*
%AMRoundRect*
0 Rectangle with rounded corners*
0 $1 Rounding radius*
0 $2 $3 $4 $5 $6 $7 $8 $9 X,Y pos of 4 corners*
0 Add a 4 corners polygon primitive as box body*
4,1,4,$2,$3,$4,$5,$6,$7,$8,$9,$2,$3,0*
0 Add four circle primitives for the rounded corners*
1,1,$1+$1,$2,$3*
1,1,$1+$1,$4,$5*
1,1,$1+$1,$6,$7*
1,1,$1+$1,$8,$9*
0 Add four rect primitives between the rounded corners*
20,1,$1+$1,$2,$3,$4,$5,0*
20,1,$1+$1,$4,$5,$6,$7,0*
20,1,$1+$1,$6,$7,$8,$9,0*
20,1,$1+$1,$8,$9,$2,$3,0*%
G04 Aperture macros list end*
%ADD10RoundRect,0.250000X-0.350000X-0.450000X0.350000X-0.450000X0.350000X0.450000X-0.350000X0.450000X0*%
%ADD11R,1.800000X1.800000*%
%ADD12C,1.800000*%
%ADD13RoundRect,0.162500X-0.837500X-0.162500X0.837500X-0.162500X0.837500X0.162500X-0.837500X0.162500X0*%
%ADD14RoundRect,0.162500X0.837500X0.162500X-0.837500X0.162500X-0.837500X-0.162500X0.837500X-0.162500X0*%
%ADD15R,1.350000X1.350000*%
%ADD16O,1.350000X1.350000*%
%ADD17RoundRect,0.250000X0.350000X0.450000X-0.350000X0.450000X-0.350000X-0.450000X0.350000X-0.450000X0*%
%ADD18RoundRect,0.250000X-0.337500X-0.475000X0.337500X-0.475000X0.337500X0.475000X-0.337500X0.475000X0*%
%ADD19RoundRect,0.250000X0.337500X0.475000X-0.337500X0.475000X-0.337500X-0.475000X0.337500X-0.475000X0*%
%ADD20C,2.900000*%
%ADD21RoundRect,0.100000X0.100000X-0.637500X0.100000X0.637500X-0.100000X0.637500X-0.100000X-0.637500X0*%
%ADD22C,1.600000*%
G04 APERTURE END LIST*
D10*
%TO.C,R25*%
X149418800Y-90779600D03*
X151418800Y-90779600D03*
%TD*%
D11*
%TO.C,D1*%
X153670000Y-96570800D03*
D12*
X156210000Y-96570800D03*
%TD*%
D13*
%TO.C,D2*%
X141698400Y-88915200D03*
X141698400Y-90815200D03*
X145118400Y-89865200D03*
%TD*%
D14*
%TO.C,Q1*%
X135213200Y-89850000D03*
X138633200Y-88900000D03*
X138633200Y-90800000D03*
%TD*%
D15*
%TO.C,J3*%
X92996000Y-83820000D03*
D16*
X94996000Y-83820000D03*
%TD*%
D17*
%TO.C,R24*%
X154755600Y-83362800D03*
X152755600Y-83362800D03*
%TD*%
D10*
%TO.C,R23*%
X145050000Y-86360000D03*
X147050000Y-86360000D03*
%TD*%
D17*
%TO.C,R22*%
X139605000Y-83820000D03*
X141605000Y-83820000D03*
%TD*%
D15*
%TO.C,J4*%
X136890000Y-83820000D03*
D16*
X134890000Y-83820000D03*
%TD*%
D18*
%TO.C,C16*%
X117475000Y-92075000D03*
X119550000Y-92075000D03*
%TD*%
D19*
%TO.C,C15*%
X156260800Y-90779600D03*
X154185800Y-90779600D03*
%TD*%
D18*
%TO.C,C14*%
X104728100Y-99110800D03*
X106803100Y-99110800D03*
%TD*%
D19*
%TO.C,C13*%
X142007500Y-86360000D03*
X139932500Y-86360000D03*
%TD*%
D18*
%TO.C,C12*%
X169476600Y-89357200D03*
X171551600Y-89357200D03*
%TD*%
D20*
%TO.C,RV3*%
X147260000Y-101600000D03*
X143510000Y-101600000D03*
X139760000Y-101600000D03*
X139760000Y-96600000D03*
X143510000Y-96600000D03*
X147260000Y-96600000D03*
%TD*%
%TO.C,RV2*%
X124400000Y-101600000D03*
X120650000Y-101600000D03*
X116900000Y-101600000D03*
X116900000Y-96600000D03*
X120650000Y-96600000D03*
X124400000Y-96600000D03*
%TD*%
%TO.C,RV1*%
X170120000Y-101600000D03*
X166370000Y-101600000D03*
X162620000Y-101600000D03*
X162620000Y-96600000D03*
X166370000Y-96600000D03*
X170120000Y-96600000D03*
%TD*%
D21*
%TO.C,U2*%
X111450000Y-92925000D03*
X112100000Y-92925000D03*
X112750000Y-92925000D03*
X113400000Y-92925000D03*
X114050000Y-92925000D03*
X114700000Y-92925000D03*
X115350000Y-92925000D03*
X115350000Y-87200000D03*
X114700000Y-87200000D03*
X114050000Y-87200000D03*
X113400000Y-87200000D03*
X112750000Y-87200000D03*
X112100000Y-87200000D03*
X111450000Y-87200000D03*
%TD*%
%TO.C,U1*%
X158506400Y-92608400D03*
X159156400Y-92608400D03*
X159806400Y-92608400D03*
X160456400Y-92608400D03*
X161106400Y-92608400D03*
X161756400Y-92608400D03*
X162406400Y-92608400D03*
X162406400Y-86883400D03*
X161756400Y-86883400D03*
X161106400Y-86883400D03*
X160456400Y-86883400D03*
X159806400Y-86883400D03*
X159156400Y-86883400D03*
X158506400Y-86883400D03*
%TD*%
D20*
%TO.C,RV4*%
X94040000Y-101600000D03*
X97790000Y-101600000D03*
X101540000Y-101600000D03*
X94040000Y-96600000D03*
X97790000Y-96600000D03*
X101540000Y-96600000D03*
%TD*%
D10*
%TO.C,R21*%
X92885000Y-87122000D03*
X94885000Y-87122000D03*
%TD*%
D17*
%TO.C,R20*%
X94901000Y-91694000D03*
X92901000Y-91694000D03*
%TD*%
%TO.C,R19*%
X130540000Y-85725000D03*
X128540000Y-85725000D03*
%TD*%
D10*
%TO.C,R18*%
X97383600Y-91744800D03*
X99383600Y-91744800D03*
%TD*%
%TO.C,R17*%
X101803200Y-91744800D03*
X103803200Y-91744800D03*
%TD*%
D17*
%TO.C,R16*%
X109220000Y-87249000D03*
X107220000Y-87249000D03*
%TD*%
%TO.C,R15*%
X106851200Y-95402400D03*
X104851200Y-95402400D03*
%TD*%
D10*
%TO.C,R14*%
X114750000Y-84150000D03*
X116750000Y-84150000D03*
%TD*%
%TO.C,R13*%
X109850000Y-84150000D03*
X111850000Y-84150000D03*
%TD*%
D17*
%TO.C,R12*%
X120650000Y-85950000D03*
X118650000Y-85950000D03*
%TD*%
%TO.C,R11*%
X133197600Y-98348800D03*
X131197600Y-98348800D03*
%TD*%
%TO.C,R10*%
X126095000Y-85725000D03*
X124095000Y-85725000D03*
%TD*%
%TO.C,R9*%
X135400000Y-101550000D03*
X133400000Y-101550000D03*
%TD*%
%TO.C,R8*%
X113810800Y-101550000D03*
X111810800Y-101550000D03*
%TD*%
%TO.C,R7*%
X152450000Y-101650000D03*
X150450000Y-101650000D03*
%TD*%
%TO.C,R6*%
X131200000Y-101550000D03*
X129200000Y-101550000D03*
%TD*%
%TO.C,R5*%
X169570400Y-93065600D03*
X171570400Y-93065600D03*
%TD*%
D10*
%TO.C,R4*%
X167182800Y-91592400D03*
X165182800Y-91592400D03*
%TD*%
D17*
%TO.C,R3*%
X171383200Y-87000000D03*
X169383200Y-87000000D03*
%TD*%
D10*
%TO.C,R2*%
X161231400Y-83395900D03*
X163231400Y-83395900D03*
%TD*%
%TO.C,R1*%
X149368000Y-86969600D03*
X151368000Y-86969600D03*
%TD*%
D16*
%TO.C,J2*%
X169500000Y-83820000D03*
D15*
X171500000Y-83820000D03*
%TD*%
D16*
%TO.C,J1*%
X147878800Y-83820000D03*
D15*
X149878800Y-83820000D03*
%TD*%
D18*
%TO.C,C11*%
X92847500Y-89408000D03*
X94922500Y-89408000D03*
%TD*%
D22*
%TO.C,C10*%
X99648000Y-84074000D03*
X104648000Y-84074000D03*
%TD*%
%TO.C,C9*%
X104608000Y-87249000D03*
X99608000Y-87249000D03*
%TD*%
%TO.C,C8*%
X130730000Y-88900000D03*
X125730000Y-88900000D03*
%TD*%
%TO.C,C7*%
X130770000Y-92075000D03*
X125770000Y-92075000D03*
%TD*%
D19*
%TO.C,C6*%
X123592500Y-93345000D03*
X121517500Y-93345000D03*
%TD*%
%TO.C,C5*%
X158720700Y-100228400D03*
X156645700Y-100228400D03*
%TD*%
D18*
%TO.C,C4*%
X165158600Y-89357200D03*
X167233600Y-89357200D03*
%TD*%
D19*
%TO.C,C3*%
X165209400Y-87020400D03*
X167284400Y-87020400D03*
%TD*%
D18*
%TO.C,C2*%
X156906400Y-83395900D03*
X158981400Y-83395900D03*
%TD*%
%TO.C,C1*%
X153568400Y-86969600D03*
X155643400Y-86969600D03*
%TD*%
M02*
