%TF.GenerationSoftware,KiCad,Pcbnew,8.0.6*%
%TF.CreationDate,2024-11-09T16:50:09-06:00*%
%TF.ProjectId,Channel Two v2,4368616e-6e65-46c2-9054-776f2076322e,rev?*%
%TF.SameCoordinates,Original*%
%TF.FileFunction,Legend,Top*%
%TF.FilePolarity,Positive*%
%FSLAX46Y46*%
G04 Gerber Fmt 4.6, Leading zero omitted, Abs format (unit mm)*
G04 Created by KiCad (PCBNEW 8.0.6) date 2024-11-09 16:50:09*
%MOMM*%
%LPD*%
G01*
G04 APERTURE LIST*
%ADD10C,0.150000*%
%ADD11C,0.100000*%
%ADD12C,0.120000*%
G04 APERTURE END LIST*
D10*
X149877542Y-92961619D02*
X149544209Y-92485428D01*
X149306114Y-92961619D02*
X149306114Y-91961619D01*
X149306114Y-91961619D02*
X149687066Y-91961619D01*
X149687066Y-91961619D02*
X149782304Y-92009238D01*
X149782304Y-92009238D02*
X149829923Y-92056857D01*
X149829923Y-92056857D02*
X149877542Y-92152095D01*
X149877542Y-92152095D02*
X149877542Y-92294952D01*
X149877542Y-92294952D02*
X149829923Y-92390190D01*
X149829923Y-92390190D02*
X149782304Y-92437809D01*
X149782304Y-92437809D02*
X149687066Y-92485428D01*
X149687066Y-92485428D02*
X149306114Y-92485428D01*
X150258495Y-92056857D02*
X150306114Y-92009238D01*
X150306114Y-92009238D02*
X150401352Y-91961619D01*
X150401352Y-91961619D02*
X150639447Y-91961619D01*
X150639447Y-91961619D02*
X150734685Y-92009238D01*
X150734685Y-92009238D02*
X150782304Y-92056857D01*
X150782304Y-92056857D02*
X150829923Y-92152095D01*
X150829923Y-92152095D02*
X150829923Y-92247333D01*
X150829923Y-92247333D02*
X150782304Y-92390190D01*
X150782304Y-92390190D02*
X150210876Y-92961619D01*
X150210876Y-92961619D02*
X150829923Y-92961619D01*
X151734685Y-91961619D02*
X151258495Y-91961619D01*
X151258495Y-91961619D02*
X151210876Y-92437809D01*
X151210876Y-92437809D02*
X151258495Y-92390190D01*
X151258495Y-92390190D02*
X151353733Y-92342571D01*
X151353733Y-92342571D02*
X151591828Y-92342571D01*
X151591828Y-92342571D02*
X151687066Y-92390190D01*
X151687066Y-92390190D02*
X151734685Y-92437809D01*
X151734685Y-92437809D02*
X151782304Y-92533047D01*
X151782304Y-92533047D02*
X151782304Y-92771142D01*
X151782304Y-92771142D02*
X151734685Y-92866380D01*
X151734685Y-92866380D02*
X151687066Y-92914000D01*
X151687066Y-92914000D02*
X151591828Y-92961619D01*
X151591828Y-92961619D02*
X151353733Y-92961619D01*
X151353733Y-92961619D02*
X151258495Y-92914000D01*
X151258495Y-92914000D02*
X151210876Y-92866380D01*
X157503905Y-97025619D02*
X157503905Y-96025619D01*
X157503905Y-96025619D02*
X157742000Y-96025619D01*
X157742000Y-96025619D02*
X157884857Y-96073238D01*
X157884857Y-96073238D02*
X157980095Y-96168476D01*
X157980095Y-96168476D02*
X158027714Y-96263714D01*
X158027714Y-96263714D02*
X158075333Y-96454190D01*
X158075333Y-96454190D02*
X158075333Y-96597047D01*
X158075333Y-96597047D02*
X158027714Y-96787523D01*
X158027714Y-96787523D02*
X157980095Y-96882761D01*
X157980095Y-96882761D02*
X157884857Y-96978000D01*
X157884857Y-96978000D02*
X157742000Y-97025619D01*
X157742000Y-97025619D02*
X157503905Y-97025619D01*
X159027714Y-97025619D02*
X158456286Y-97025619D01*
X158742000Y-97025619D02*
X158742000Y-96025619D01*
X158742000Y-96025619D02*
X158646762Y-96168476D01*
X158646762Y-96168476D02*
X158551524Y-96263714D01*
X158551524Y-96263714D02*
X158456286Y-96311333D01*
X142771905Y-92961619D02*
X142771905Y-91961619D01*
X142771905Y-91961619D02*
X143010000Y-91961619D01*
X143010000Y-91961619D02*
X143152857Y-92009238D01*
X143152857Y-92009238D02*
X143248095Y-92104476D01*
X143248095Y-92104476D02*
X143295714Y-92199714D01*
X143295714Y-92199714D02*
X143343333Y-92390190D01*
X143343333Y-92390190D02*
X143343333Y-92533047D01*
X143343333Y-92533047D02*
X143295714Y-92723523D01*
X143295714Y-92723523D02*
X143248095Y-92818761D01*
X143248095Y-92818761D02*
X143152857Y-92914000D01*
X143152857Y-92914000D02*
X143010000Y-92961619D01*
X143010000Y-92961619D02*
X142771905Y-92961619D01*
X143724286Y-92056857D02*
X143771905Y-92009238D01*
X143771905Y-92009238D02*
X143867143Y-91961619D01*
X143867143Y-91961619D02*
X144105238Y-91961619D01*
X144105238Y-91961619D02*
X144200476Y-92009238D01*
X144200476Y-92009238D02*
X144248095Y-92056857D01*
X144248095Y-92056857D02*
X144295714Y-92152095D01*
X144295714Y-92152095D02*
X144295714Y-92247333D01*
X144295714Y-92247333D02*
X144248095Y-92390190D01*
X144248095Y-92390190D02*
X143676667Y-92961619D01*
X143676667Y-92961619D02*
X144295714Y-92961619D01*
X136827961Y-93050057D02*
X136732723Y-93002438D01*
X136732723Y-93002438D02*
X136637485Y-92907200D01*
X136637485Y-92907200D02*
X136494628Y-92764342D01*
X136494628Y-92764342D02*
X136399390Y-92716723D01*
X136399390Y-92716723D02*
X136304152Y-92716723D01*
X136351771Y-92954819D02*
X136256533Y-92907200D01*
X136256533Y-92907200D02*
X136161295Y-92811961D01*
X136161295Y-92811961D02*
X136113676Y-92621485D01*
X136113676Y-92621485D02*
X136113676Y-92288152D01*
X136113676Y-92288152D02*
X136161295Y-92097676D01*
X136161295Y-92097676D02*
X136256533Y-92002438D01*
X136256533Y-92002438D02*
X136351771Y-91954819D01*
X136351771Y-91954819D02*
X136542247Y-91954819D01*
X136542247Y-91954819D02*
X136637485Y-92002438D01*
X136637485Y-92002438D02*
X136732723Y-92097676D01*
X136732723Y-92097676D02*
X136780342Y-92288152D01*
X136780342Y-92288152D02*
X136780342Y-92621485D01*
X136780342Y-92621485D02*
X136732723Y-92811961D01*
X136732723Y-92811961D02*
X136637485Y-92907200D01*
X136637485Y-92907200D02*
X136542247Y-92954819D01*
X136542247Y-92954819D02*
X136351771Y-92954819D01*
X137732723Y-92954819D02*
X137161295Y-92954819D01*
X137447009Y-92954819D02*
X137447009Y-91954819D01*
X137447009Y-91954819D02*
X137351771Y-92097676D01*
X137351771Y-92097676D02*
X137256533Y-92192914D01*
X137256533Y-92192914D02*
X137161295Y-92240533D01*
X153331942Y-85544819D02*
X152998609Y-85068628D01*
X152760514Y-85544819D02*
X152760514Y-84544819D01*
X152760514Y-84544819D02*
X153141466Y-84544819D01*
X153141466Y-84544819D02*
X153236704Y-84592438D01*
X153236704Y-84592438D02*
X153284323Y-84640057D01*
X153284323Y-84640057D02*
X153331942Y-84735295D01*
X153331942Y-84735295D02*
X153331942Y-84878152D01*
X153331942Y-84878152D02*
X153284323Y-84973390D01*
X153284323Y-84973390D02*
X153236704Y-85021009D01*
X153236704Y-85021009D02*
X153141466Y-85068628D01*
X153141466Y-85068628D02*
X152760514Y-85068628D01*
X153712895Y-84640057D02*
X153760514Y-84592438D01*
X153760514Y-84592438D02*
X153855752Y-84544819D01*
X153855752Y-84544819D02*
X154093847Y-84544819D01*
X154093847Y-84544819D02*
X154189085Y-84592438D01*
X154189085Y-84592438D02*
X154236704Y-84640057D01*
X154236704Y-84640057D02*
X154284323Y-84735295D01*
X154284323Y-84735295D02*
X154284323Y-84830533D01*
X154284323Y-84830533D02*
X154236704Y-84973390D01*
X154236704Y-84973390D02*
X153665276Y-85544819D01*
X153665276Y-85544819D02*
X154284323Y-85544819D01*
X155141466Y-84878152D02*
X155141466Y-85544819D01*
X154903371Y-84497200D02*
X154665276Y-85211485D01*
X154665276Y-85211485D02*
X155284323Y-85211485D01*
X145725542Y-88620019D02*
X145392209Y-88143828D01*
X145154114Y-88620019D02*
X145154114Y-87620019D01*
X145154114Y-87620019D02*
X145535066Y-87620019D01*
X145535066Y-87620019D02*
X145630304Y-87667638D01*
X145630304Y-87667638D02*
X145677923Y-87715257D01*
X145677923Y-87715257D02*
X145725542Y-87810495D01*
X145725542Y-87810495D02*
X145725542Y-87953352D01*
X145725542Y-87953352D02*
X145677923Y-88048590D01*
X145677923Y-88048590D02*
X145630304Y-88096209D01*
X145630304Y-88096209D02*
X145535066Y-88143828D01*
X145535066Y-88143828D02*
X145154114Y-88143828D01*
X146106495Y-87715257D02*
X146154114Y-87667638D01*
X146154114Y-87667638D02*
X146249352Y-87620019D01*
X146249352Y-87620019D02*
X146487447Y-87620019D01*
X146487447Y-87620019D02*
X146582685Y-87667638D01*
X146582685Y-87667638D02*
X146630304Y-87715257D01*
X146630304Y-87715257D02*
X146677923Y-87810495D01*
X146677923Y-87810495D02*
X146677923Y-87905733D01*
X146677923Y-87905733D02*
X146630304Y-88048590D01*
X146630304Y-88048590D02*
X146058876Y-88620019D01*
X146058876Y-88620019D02*
X146677923Y-88620019D01*
X147011257Y-87620019D02*
X147630304Y-87620019D01*
X147630304Y-87620019D02*
X147296971Y-88000971D01*
X147296971Y-88000971D02*
X147439828Y-88000971D01*
X147439828Y-88000971D02*
X147535066Y-88048590D01*
X147535066Y-88048590D02*
X147582685Y-88096209D01*
X147582685Y-88096209D02*
X147630304Y-88191447D01*
X147630304Y-88191447D02*
X147630304Y-88429542D01*
X147630304Y-88429542D02*
X147582685Y-88524780D01*
X147582685Y-88524780D02*
X147535066Y-88572400D01*
X147535066Y-88572400D02*
X147439828Y-88620019D01*
X147439828Y-88620019D02*
X147154114Y-88620019D01*
X147154114Y-88620019D02*
X147058876Y-88572400D01*
X147058876Y-88572400D02*
X147011257Y-88524780D01*
X143222742Y-84274819D02*
X142889409Y-83798628D01*
X142651314Y-84274819D02*
X142651314Y-83274819D01*
X142651314Y-83274819D02*
X143032266Y-83274819D01*
X143032266Y-83274819D02*
X143127504Y-83322438D01*
X143127504Y-83322438D02*
X143175123Y-83370057D01*
X143175123Y-83370057D02*
X143222742Y-83465295D01*
X143222742Y-83465295D02*
X143222742Y-83608152D01*
X143222742Y-83608152D02*
X143175123Y-83703390D01*
X143175123Y-83703390D02*
X143127504Y-83751009D01*
X143127504Y-83751009D02*
X143032266Y-83798628D01*
X143032266Y-83798628D02*
X142651314Y-83798628D01*
X143603695Y-83370057D02*
X143651314Y-83322438D01*
X143651314Y-83322438D02*
X143746552Y-83274819D01*
X143746552Y-83274819D02*
X143984647Y-83274819D01*
X143984647Y-83274819D02*
X144079885Y-83322438D01*
X144079885Y-83322438D02*
X144127504Y-83370057D01*
X144127504Y-83370057D02*
X144175123Y-83465295D01*
X144175123Y-83465295D02*
X144175123Y-83560533D01*
X144175123Y-83560533D02*
X144127504Y-83703390D01*
X144127504Y-83703390D02*
X143556076Y-84274819D01*
X143556076Y-84274819D02*
X144175123Y-84274819D01*
X144556076Y-83370057D02*
X144603695Y-83322438D01*
X144603695Y-83322438D02*
X144698933Y-83274819D01*
X144698933Y-83274819D02*
X144937028Y-83274819D01*
X144937028Y-83274819D02*
X145032266Y-83322438D01*
X145032266Y-83322438D02*
X145079885Y-83370057D01*
X145079885Y-83370057D02*
X145127504Y-83465295D01*
X145127504Y-83465295D02*
X145127504Y-83560533D01*
X145127504Y-83560533D02*
X145079885Y-83703390D01*
X145079885Y-83703390D02*
X144508457Y-84274819D01*
X144508457Y-84274819D02*
X145127504Y-84274819D01*
X132042819Y-84153333D02*
X132757104Y-84153333D01*
X132757104Y-84153333D02*
X132899961Y-84200952D01*
X132899961Y-84200952D02*
X132995200Y-84296190D01*
X132995200Y-84296190D02*
X133042819Y-84439047D01*
X133042819Y-84439047D02*
X133042819Y-84534285D01*
X132376152Y-83248571D02*
X133042819Y-83248571D01*
X131995200Y-83486666D02*
X132709485Y-83724761D01*
X132709485Y-83724761D02*
X132709485Y-83105714D01*
X117869642Y-90754580D02*
X117822023Y-90802200D01*
X117822023Y-90802200D02*
X117679166Y-90849819D01*
X117679166Y-90849819D02*
X117583928Y-90849819D01*
X117583928Y-90849819D02*
X117441071Y-90802200D01*
X117441071Y-90802200D02*
X117345833Y-90706961D01*
X117345833Y-90706961D02*
X117298214Y-90611723D01*
X117298214Y-90611723D02*
X117250595Y-90421247D01*
X117250595Y-90421247D02*
X117250595Y-90278390D01*
X117250595Y-90278390D02*
X117298214Y-90087914D01*
X117298214Y-90087914D02*
X117345833Y-89992676D01*
X117345833Y-89992676D02*
X117441071Y-89897438D01*
X117441071Y-89897438D02*
X117583928Y-89849819D01*
X117583928Y-89849819D02*
X117679166Y-89849819D01*
X117679166Y-89849819D02*
X117822023Y-89897438D01*
X117822023Y-89897438D02*
X117869642Y-89945057D01*
X118822023Y-90849819D02*
X118250595Y-90849819D01*
X118536309Y-90849819D02*
X118536309Y-89849819D01*
X118536309Y-89849819D02*
X118441071Y-89992676D01*
X118441071Y-89992676D02*
X118345833Y-90087914D01*
X118345833Y-90087914D02*
X118250595Y-90135533D01*
X119679166Y-89849819D02*
X119488690Y-89849819D01*
X119488690Y-89849819D02*
X119393452Y-89897438D01*
X119393452Y-89897438D02*
X119345833Y-89945057D01*
X119345833Y-89945057D02*
X119250595Y-90087914D01*
X119250595Y-90087914D02*
X119202976Y-90278390D01*
X119202976Y-90278390D02*
X119202976Y-90659342D01*
X119202976Y-90659342D02*
X119250595Y-90754580D01*
X119250595Y-90754580D02*
X119298214Y-90802200D01*
X119298214Y-90802200D02*
X119393452Y-90849819D01*
X119393452Y-90849819D02*
X119583928Y-90849819D01*
X119583928Y-90849819D02*
X119679166Y-90802200D01*
X119679166Y-90802200D02*
X119726785Y-90754580D01*
X119726785Y-90754580D02*
X119774404Y-90659342D01*
X119774404Y-90659342D02*
X119774404Y-90421247D01*
X119774404Y-90421247D02*
X119726785Y-90326009D01*
X119726785Y-90326009D02*
X119679166Y-90278390D01*
X119679166Y-90278390D02*
X119583928Y-90230771D01*
X119583928Y-90230771D02*
X119393452Y-90230771D01*
X119393452Y-90230771D02*
X119298214Y-90278390D01*
X119298214Y-90278390D02*
X119250595Y-90326009D01*
X119250595Y-90326009D02*
X119202976Y-90421247D01*
X154580442Y-92819180D02*
X154532823Y-92866800D01*
X154532823Y-92866800D02*
X154389966Y-92914419D01*
X154389966Y-92914419D02*
X154294728Y-92914419D01*
X154294728Y-92914419D02*
X154151871Y-92866800D01*
X154151871Y-92866800D02*
X154056633Y-92771561D01*
X154056633Y-92771561D02*
X154009014Y-92676323D01*
X154009014Y-92676323D02*
X153961395Y-92485847D01*
X153961395Y-92485847D02*
X153961395Y-92342990D01*
X153961395Y-92342990D02*
X154009014Y-92152514D01*
X154009014Y-92152514D02*
X154056633Y-92057276D01*
X154056633Y-92057276D02*
X154151871Y-91962038D01*
X154151871Y-91962038D02*
X154294728Y-91914419D01*
X154294728Y-91914419D02*
X154389966Y-91914419D01*
X154389966Y-91914419D02*
X154532823Y-91962038D01*
X154532823Y-91962038D02*
X154580442Y-92009657D01*
X155532823Y-92914419D02*
X154961395Y-92914419D01*
X155247109Y-92914419D02*
X155247109Y-91914419D01*
X155247109Y-91914419D02*
X155151871Y-92057276D01*
X155151871Y-92057276D02*
X155056633Y-92152514D01*
X155056633Y-92152514D02*
X154961395Y-92200133D01*
X156437585Y-91914419D02*
X155961395Y-91914419D01*
X155961395Y-91914419D02*
X155913776Y-92390609D01*
X155913776Y-92390609D02*
X155961395Y-92342990D01*
X155961395Y-92342990D02*
X156056633Y-92295371D01*
X156056633Y-92295371D02*
X156294728Y-92295371D01*
X156294728Y-92295371D02*
X156389966Y-92342990D01*
X156389966Y-92342990D02*
X156437585Y-92390609D01*
X156437585Y-92390609D02*
X156485204Y-92485847D01*
X156485204Y-92485847D02*
X156485204Y-92723942D01*
X156485204Y-92723942D02*
X156437585Y-92819180D01*
X156437585Y-92819180D02*
X156389966Y-92866800D01*
X156389966Y-92866800D02*
X156294728Y-92914419D01*
X156294728Y-92914419D02*
X156056633Y-92914419D01*
X156056633Y-92914419D02*
X155961395Y-92866800D01*
X155961395Y-92866800D02*
X155913776Y-92819180D01*
X105122742Y-101248380D02*
X105075123Y-101296000D01*
X105075123Y-101296000D02*
X104932266Y-101343619D01*
X104932266Y-101343619D02*
X104837028Y-101343619D01*
X104837028Y-101343619D02*
X104694171Y-101296000D01*
X104694171Y-101296000D02*
X104598933Y-101200761D01*
X104598933Y-101200761D02*
X104551314Y-101105523D01*
X104551314Y-101105523D02*
X104503695Y-100915047D01*
X104503695Y-100915047D02*
X104503695Y-100772190D01*
X104503695Y-100772190D02*
X104551314Y-100581714D01*
X104551314Y-100581714D02*
X104598933Y-100486476D01*
X104598933Y-100486476D02*
X104694171Y-100391238D01*
X104694171Y-100391238D02*
X104837028Y-100343619D01*
X104837028Y-100343619D02*
X104932266Y-100343619D01*
X104932266Y-100343619D02*
X105075123Y-100391238D01*
X105075123Y-100391238D02*
X105122742Y-100438857D01*
X106075123Y-101343619D02*
X105503695Y-101343619D01*
X105789409Y-101343619D02*
X105789409Y-100343619D01*
X105789409Y-100343619D02*
X105694171Y-100486476D01*
X105694171Y-100486476D02*
X105598933Y-100581714D01*
X105598933Y-100581714D02*
X105503695Y-100629333D01*
X106932266Y-100676952D02*
X106932266Y-101343619D01*
X106694171Y-100296000D02*
X106456076Y-101010285D01*
X106456076Y-101010285D02*
X107075123Y-101010285D01*
X136771142Y-86719580D02*
X136723523Y-86767200D01*
X136723523Y-86767200D02*
X136580666Y-86814819D01*
X136580666Y-86814819D02*
X136485428Y-86814819D01*
X136485428Y-86814819D02*
X136342571Y-86767200D01*
X136342571Y-86767200D02*
X136247333Y-86671961D01*
X136247333Y-86671961D02*
X136199714Y-86576723D01*
X136199714Y-86576723D02*
X136152095Y-86386247D01*
X136152095Y-86386247D02*
X136152095Y-86243390D01*
X136152095Y-86243390D02*
X136199714Y-86052914D01*
X136199714Y-86052914D02*
X136247333Y-85957676D01*
X136247333Y-85957676D02*
X136342571Y-85862438D01*
X136342571Y-85862438D02*
X136485428Y-85814819D01*
X136485428Y-85814819D02*
X136580666Y-85814819D01*
X136580666Y-85814819D02*
X136723523Y-85862438D01*
X136723523Y-85862438D02*
X136771142Y-85910057D01*
X137723523Y-86814819D02*
X137152095Y-86814819D01*
X137437809Y-86814819D02*
X137437809Y-85814819D01*
X137437809Y-85814819D02*
X137342571Y-85957676D01*
X137342571Y-85957676D02*
X137247333Y-86052914D01*
X137247333Y-86052914D02*
X137152095Y-86100533D01*
X138056857Y-85814819D02*
X138675904Y-85814819D01*
X138675904Y-85814819D02*
X138342571Y-86195771D01*
X138342571Y-86195771D02*
X138485428Y-86195771D01*
X138485428Y-86195771D02*
X138580666Y-86243390D01*
X138580666Y-86243390D02*
X138628285Y-86291009D01*
X138628285Y-86291009D02*
X138675904Y-86386247D01*
X138675904Y-86386247D02*
X138675904Y-86624342D01*
X138675904Y-86624342D02*
X138628285Y-86719580D01*
X138628285Y-86719580D02*
X138580666Y-86767200D01*
X138580666Y-86767200D02*
X138485428Y-86814819D01*
X138485428Y-86814819D02*
X138199714Y-86814819D01*
X138199714Y-86814819D02*
X138104476Y-86767200D01*
X138104476Y-86767200D02*
X138056857Y-86719580D01*
X169943542Y-91596380D02*
X169895923Y-91644000D01*
X169895923Y-91644000D02*
X169753066Y-91691619D01*
X169753066Y-91691619D02*
X169657828Y-91691619D01*
X169657828Y-91691619D02*
X169514971Y-91644000D01*
X169514971Y-91644000D02*
X169419733Y-91548761D01*
X169419733Y-91548761D02*
X169372114Y-91453523D01*
X169372114Y-91453523D02*
X169324495Y-91263047D01*
X169324495Y-91263047D02*
X169324495Y-91120190D01*
X169324495Y-91120190D02*
X169372114Y-90929714D01*
X169372114Y-90929714D02*
X169419733Y-90834476D01*
X169419733Y-90834476D02*
X169514971Y-90739238D01*
X169514971Y-90739238D02*
X169657828Y-90691619D01*
X169657828Y-90691619D02*
X169753066Y-90691619D01*
X169753066Y-90691619D02*
X169895923Y-90739238D01*
X169895923Y-90739238D02*
X169943542Y-90786857D01*
X170895923Y-91691619D02*
X170324495Y-91691619D01*
X170610209Y-91691619D02*
X170610209Y-90691619D01*
X170610209Y-90691619D02*
X170514971Y-90834476D01*
X170514971Y-90834476D02*
X170419733Y-90929714D01*
X170419733Y-90929714D02*
X170324495Y-90977333D01*
X171276876Y-90786857D02*
X171324495Y-90739238D01*
X171324495Y-90739238D02*
X171419733Y-90691619D01*
X171419733Y-90691619D02*
X171657828Y-90691619D01*
X171657828Y-90691619D02*
X171753066Y-90739238D01*
X171753066Y-90739238D02*
X171800685Y-90786857D01*
X171800685Y-90786857D02*
X171848304Y-90882095D01*
X171848304Y-90882095D02*
X171848304Y-90977333D01*
X171848304Y-90977333D02*
X171800685Y-91120190D01*
X171800685Y-91120190D02*
X171229257Y-91691619D01*
X171229257Y-91691619D02*
X171848304Y-91691619D01*
D11*
X141644761Y-104343419D02*
X141311428Y-103867228D01*
X141073333Y-104343419D02*
X141073333Y-103343419D01*
X141073333Y-103343419D02*
X141454285Y-103343419D01*
X141454285Y-103343419D02*
X141549523Y-103391038D01*
X141549523Y-103391038D02*
X141597142Y-103438657D01*
X141597142Y-103438657D02*
X141644761Y-103533895D01*
X141644761Y-103533895D02*
X141644761Y-103676752D01*
X141644761Y-103676752D02*
X141597142Y-103771990D01*
X141597142Y-103771990D02*
X141549523Y-103819609D01*
X141549523Y-103819609D02*
X141454285Y-103867228D01*
X141454285Y-103867228D02*
X141073333Y-103867228D01*
X141930476Y-103343419D02*
X142263809Y-104343419D01*
X142263809Y-104343419D02*
X142597142Y-103343419D01*
X142835238Y-103343419D02*
X143454285Y-103343419D01*
X143454285Y-103343419D02*
X143120952Y-103724371D01*
X143120952Y-103724371D02*
X143263809Y-103724371D01*
X143263809Y-103724371D02*
X143359047Y-103771990D01*
X143359047Y-103771990D02*
X143406666Y-103819609D01*
X143406666Y-103819609D02*
X143454285Y-103914847D01*
X143454285Y-103914847D02*
X143454285Y-104152942D01*
X143454285Y-104152942D02*
X143406666Y-104248180D01*
X143406666Y-104248180D02*
X143359047Y-104295800D01*
X143359047Y-104295800D02*
X143263809Y-104343419D01*
X143263809Y-104343419D02*
X142978095Y-104343419D01*
X142978095Y-104343419D02*
X142882857Y-104295800D01*
X142882857Y-104295800D02*
X142835238Y-104248180D01*
X120054761Y-104343419D02*
X119721428Y-103867228D01*
X119483333Y-104343419D02*
X119483333Y-103343419D01*
X119483333Y-103343419D02*
X119864285Y-103343419D01*
X119864285Y-103343419D02*
X119959523Y-103391038D01*
X119959523Y-103391038D02*
X120007142Y-103438657D01*
X120007142Y-103438657D02*
X120054761Y-103533895D01*
X120054761Y-103533895D02*
X120054761Y-103676752D01*
X120054761Y-103676752D02*
X120007142Y-103771990D01*
X120007142Y-103771990D02*
X119959523Y-103819609D01*
X119959523Y-103819609D02*
X119864285Y-103867228D01*
X119864285Y-103867228D02*
X119483333Y-103867228D01*
X120340476Y-103343419D02*
X120673809Y-104343419D01*
X120673809Y-104343419D02*
X121007142Y-103343419D01*
X121292857Y-103438657D02*
X121340476Y-103391038D01*
X121340476Y-103391038D02*
X121435714Y-103343419D01*
X121435714Y-103343419D02*
X121673809Y-103343419D01*
X121673809Y-103343419D02*
X121769047Y-103391038D01*
X121769047Y-103391038D02*
X121816666Y-103438657D01*
X121816666Y-103438657D02*
X121864285Y-103533895D01*
X121864285Y-103533895D02*
X121864285Y-103629133D01*
X121864285Y-103629133D02*
X121816666Y-103771990D01*
X121816666Y-103771990D02*
X121245238Y-104343419D01*
X121245238Y-104343419D02*
X121864285Y-104343419D01*
X167552761Y-104343419D02*
X167219428Y-103867228D01*
X166981333Y-104343419D02*
X166981333Y-103343419D01*
X166981333Y-103343419D02*
X167362285Y-103343419D01*
X167362285Y-103343419D02*
X167457523Y-103391038D01*
X167457523Y-103391038D02*
X167505142Y-103438657D01*
X167505142Y-103438657D02*
X167552761Y-103533895D01*
X167552761Y-103533895D02*
X167552761Y-103676752D01*
X167552761Y-103676752D02*
X167505142Y-103771990D01*
X167505142Y-103771990D02*
X167457523Y-103819609D01*
X167457523Y-103819609D02*
X167362285Y-103867228D01*
X167362285Y-103867228D02*
X166981333Y-103867228D01*
X167838476Y-103343419D02*
X168171809Y-104343419D01*
X168171809Y-104343419D02*
X168505142Y-103343419D01*
X169362285Y-104343419D02*
X168790857Y-104343419D01*
X169076571Y-104343419D02*
X169076571Y-103343419D01*
X169076571Y-103343419D02*
X168981333Y-103486276D01*
X168981333Y-103486276D02*
X168886095Y-103581514D01*
X168886095Y-103581514D02*
X168790857Y-103629133D01*
D10*
X109386019Y-91744704D02*
X110195542Y-91744704D01*
X110195542Y-91744704D02*
X110290780Y-91697085D01*
X110290780Y-91697085D02*
X110338400Y-91649466D01*
X110338400Y-91649466D02*
X110386019Y-91554228D01*
X110386019Y-91554228D02*
X110386019Y-91363752D01*
X110386019Y-91363752D02*
X110338400Y-91268514D01*
X110338400Y-91268514D02*
X110290780Y-91220895D01*
X110290780Y-91220895D02*
X110195542Y-91173276D01*
X110195542Y-91173276D02*
X109386019Y-91173276D01*
X109481257Y-90744704D02*
X109433638Y-90697085D01*
X109433638Y-90697085D02*
X109386019Y-90601847D01*
X109386019Y-90601847D02*
X109386019Y-90363752D01*
X109386019Y-90363752D02*
X109433638Y-90268514D01*
X109433638Y-90268514D02*
X109481257Y-90220895D01*
X109481257Y-90220895D02*
X109576495Y-90173276D01*
X109576495Y-90173276D02*
X109671733Y-90173276D01*
X109671733Y-90173276D02*
X109814590Y-90220895D01*
X109814590Y-90220895D02*
X110386019Y-90792323D01*
X110386019Y-90792323D02*
X110386019Y-90173276D01*
X156436219Y-89149804D02*
X157245742Y-89149804D01*
X157245742Y-89149804D02*
X157340980Y-89102185D01*
X157340980Y-89102185D02*
X157388600Y-89054566D01*
X157388600Y-89054566D02*
X157436219Y-88959328D01*
X157436219Y-88959328D02*
X157436219Y-88768852D01*
X157436219Y-88768852D02*
X157388600Y-88673614D01*
X157388600Y-88673614D02*
X157340980Y-88625995D01*
X157340980Y-88625995D02*
X157245742Y-88578376D01*
X157245742Y-88578376D02*
X156436219Y-88578376D01*
X157436219Y-87578376D02*
X157436219Y-88149804D01*
X157436219Y-87864090D02*
X156436219Y-87864090D01*
X156436219Y-87864090D02*
X156579076Y-87959328D01*
X156579076Y-87959328D02*
X156674314Y-88054566D01*
X156674314Y-88054566D02*
X156721933Y-88149804D01*
D11*
X97194761Y-104597419D02*
X96861428Y-104121228D01*
X96623333Y-104597419D02*
X96623333Y-103597419D01*
X96623333Y-103597419D02*
X97004285Y-103597419D01*
X97004285Y-103597419D02*
X97099523Y-103645038D01*
X97099523Y-103645038D02*
X97147142Y-103692657D01*
X97147142Y-103692657D02*
X97194761Y-103787895D01*
X97194761Y-103787895D02*
X97194761Y-103930752D01*
X97194761Y-103930752D02*
X97147142Y-104025990D01*
X97147142Y-104025990D02*
X97099523Y-104073609D01*
X97099523Y-104073609D02*
X97004285Y-104121228D01*
X97004285Y-104121228D02*
X96623333Y-104121228D01*
X97480476Y-103597419D02*
X97813809Y-104597419D01*
X97813809Y-104597419D02*
X98147142Y-103597419D01*
X98909047Y-103930752D02*
X98909047Y-104597419D01*
X98670952Y-103549800D02*
X98432857Y-104264085D01*
X98432857Y-104264085D02*
X99051904Y-104264085D01*
D10*
X96385142Y-87729219D02*
X96051809Y-87253028D01*
X95813714Y-87729219D02*
X95813714Y-86729219D01*
X95813714Y-86729219D02*
X96194666Y-86729219D01*
X96194666Y-86729219D02*
X96289904Y-86776838D01*
X96289904Y-86776838D02*
X96337523Y-86824457D01*
X96337523Y-86824457D02*
X96385142Y-86919695D01*
X96385142Y-86919695D02*
X96385142Y-87062552D01*
X96385142Y-87062552D02*
X96337523Y-87157790D01*
X96337523Y-87157790D02*
X96289904Y-87205409D01*
X96289904Y-87205409D02*
X96194666Y-87253028D01*
X96194666Y-87253028D02*
X95813714Y-87253028D01*
X96766095Y-86824457D02*
X96813714Y-86776838D01*
X96813714Y-86776838D02*
X96908952Y-86729219D01*
X96908952Y-86729219D02*
X97147047Y-86729219D01*
X97147047Y-86729219D02*
X97242285Y-86776838D01*
X97242285Y-86776838D02*
X97289904Y-86824457D01*
X97289904Y-86824457D02*
X97337523Y-86919695D01*
X97337523Y-86919695D02*
X97337523Y-87014933D01*
X97337523Y-87014933D02*
X97289904Y-87157790D01*
X97289904Y-87157790D02*
X96718476Y-87729219D01*
X96718476Y-87729219D02*
X97337523Y-87729219D01*
X98289904Y-87729219D02*
X97718476Y-87729219D01*
X98004190Y-87729219D02*
X98004190Y-86729219D01*
X98004190Y-86729219D02*
X97908952Y-86872076D01*
X97908952Y-86872076D02*
X97813714Y-86967314D01*
X97813714Y-86967314D02*
X97718476Y-87014933D01*
X93496142Y-93926819D02*
X93162809Y-93450628D01*
X92924714Y-93926819D02*
X92924714Y-92926819D01*
X92924714Y-92926819D02*
X93305666Y-92926819D01*
X93305666Y-92926819D02*
X93400904Y-92974438D01*
X93400904Y-92974438D02*
X93448523Y-93022057D01*
X93448523Y-93022057D02*
X93496142Y-93117295D01*
X93496142Y-93117295D02*
X93496142Y-93260152D01*
X93496142Y-93260152D02*
X93448523Y-93355390D01*
X93448523Y-93355390D02*
X93400904Y-93403009D01*
X93400904Y-93403009D02*
X93305666Y-93450628D01*
X93305666Y-93450628D02*
X92924714Y-93450628D01*
X93877095Y-93022057D02*
X93924714Y-92974438D01*
X93924714Y-92974438D02*
X94019952Y-92926819D01*
X94019952Y-92926819D02*
X94258047Y-92926819D01*
X94258047Y-92926819D02*
X94353285Y-92974438D01*
X94353285Y-92974438D02*
X94400904Y-93022057D01*
X94400904Y-93022057D02*
X94448523Y-93117295D01*
X94448523Y-93117295D02*
X94448523Y-93212533D01*
X94448523Y-93212533D02*
X94400904Y-93355390D01*
X94400904Y-93355390D02*
X93829476Y-93926819D01*
X93829476Y-93926819D02*
X94448523Y-93926819D01*
X95067571Y-92926819D02*
X95162809Y-92926819D01*
X95162809Y-92926819D02*
X95258047Y-92974438D01*
X95258047Y-92974438D02*
X95305666Y-93022057D01*
X95305666Y-93022057D02*
X95353285Y-93117295D01*
X95353285Y-93117295D02*
X95400904Y-93307771D01*
X95400904Y-93307771D02*
X95400904Y-93545866D01*
X95400904Y-93545866D02*
X95353285Y-93736342D01*
X95353285Y-93736342D02*
X95305666Y-93831580D01*
X95305666Y-93831580D02*
X95258047Y-93879200D01*
X95258047Y-93879200D02*
X95162809Y-93926819D01*
X95162809Y-93926819D02*
X95067571Y-93926819D01*
X95067571Y-93926819D02*
X94972333Y-93879200D01*
X94972333Y-93879200D02*
X94924714Y-93831580D01*
X94924714Y-93831580D02*
X94877095Y-93736342D01*
X94877095Y-93736342D02*
X94829476Y-93545866D01*
X94829476Y-93545866D02*
X94829476Y-93307771D01*
X94829476Y-93307771D02*
X94877095Y-93117295D01*
X94877095Y-93117295D02*
X94924714Y-93022057D01*
X94924714Y-93022057D02*
X94972333Y-92974438D01*
X94972333Y-92974438D02*
X95067571Y-92926819D01*
X128897142Y-84528819D02*
X128563809Y-84052628D01*
X128325714Y-84528819D02*
X128325714Y-83528819D01*
X128325714Y-83528819D02*
X128706666Y-83528819D01*
X128706666Y-83528819D02*
X128801904Y-83576438D01*
X128801904Y-83576438D02*
X128849523Y-83624057D01*
X128849523Y-83624057D02*
X128897142Y-83719295D01*
X128897142Y-83719295D02*
X128897142Y-83862152D01*
X128897142Y-83862152D02*
X128849523Y-83957390D01*
X128849523Y-83957390D02*
X128801904Y-84005009D01*
X128801904Y-84005009D02*
X128706666Y-84052628D01*
X128706666Y-84052628D02*
X128325714Y-84052628D01*
X129849523Y-84528819D02*
X129278095Y-84528819D01*
X129563809Y-84528819D02*
X129563809Y-83528819D01*
X129563809Y-83528819D02*
X129468571Y-83671676D01*
X129468571Y-83671676D02*
X129373333Y-83766914D01*
X129373333Y-83766914D02*
X129278095Y-83814533D01*
X130325714Y-84528819D02*
X130516190Y-84528819D01*
X130516190Y-84528819D02*
X130611428Y-84481200D01*
X130611428Y-84481200D02*
X130659047Y-84433580D01*
X130659047Y-84433580D02*
X130754285Y-84290723D01*
X130754285Y-84290723D02*
X130801904Y-84100247D01*
X130801904Y-84100247D02*
X130801904Y-83719295D01*
X130801904Y-83719295D02*
X130754285Y-83624057D01*
X130754285Y-83624057D02*
X130706666Y-83576438D01*
X130706666Y-83576438D02*
X130611428Y-83528819D01*
X130611428Y-83528819D02*
X130420952Y-83528819D01*
X130420952Y-83528819D02*
X130325714Y-83576438D01*
X130325714Y-83576438D02*
X130278095Y-83624057D01*
X130278095Y-83624057D02*
X130230476Y-83719295D01*
X130230476Y-83719295D02*
X130230476Y-83957390D01*
X130230476Y-83957390D02*
X130278095Y-84052628D01*
X130278095Y-84052628D02*
X130325714Y-84100247D01*
X130325714Y-84100247D02*
X130420952Y-84147866D01*
X130420952Y-84147866D02*
X130611428Y-84147866D01*
X130611428Y-84147866D02*
X130706666Y-84100247D01*
X130706666Y-84100247D02*
X130754285Y-84052628D01*
X130754285Y-84052628D02*
X130801904Y-83957390D01*
X97604342Y-93926819D02*
X97271009Y-93450628D01*
X97032914Y-93926819D02*
X97032914Y-92926819D01*
X97032914Y-92926819D02*
X97413866Y-92926819D01*
X97413866Y-92926819D02*
X97509104Y-92974438D01*
X97509104Y-92974438D02*
X97556723Y-93022057D01*
X97556723Y-93022057D02*
X97604342Y-93117295D01*
X97604342Y-93117295D02*
X97604342Y-93260152D01*
X97604342Y-93260152D02*
X97556723Y-93355390D01*
X97556723Y-93355390D02*
X97509104Y-93403009D01*
X97509104Y-93403009D02*
X97413866Y-93450628D01*
X97413866Y-93450628D02*
X97032914Y-93450628D01*
X98556723Y-93926819D02*
X97985295Y-93926819D01*
X98271009Y-93926819D02*
X98271009Y-92926819D01*
X98271009Y-92926819D02*
X98175771Y-93069676D01*
X98175771Y-93069676D02*
X98080533Y-93164914D01*
X98080533Y-93164914D02*
X97985295Y-93212533D01*
X99128152Y-93355390D02*
X99032914Y-93307771D01*
X99032914Y-93307771D02*
X98985295Y-93260152D01*
X98985295Y-93260152D02*
X98937676Y-93164914D01*
X98937676Y-93164914D02*
X98937676Y-93117295D01*
X98937676Y-93117295D02*
X98985295Y-93022057D01*
X98985295Y-93022057D02*
X99032914Y-92974438D01*
X99032914Y-92974438D02*
X99128152Y-92926819D01*
X99128152Y-92926819D02*
X99318628Y-92926819D01*
X99318628Y-92926819D02*
X99413866Y-92974438D01*
X99413866Y-92974438D02*
X99461485Y-93022057D01*
X99461485Y-93022057D02*
X99509104Y-93117295D01*
X99509104Y-93117295D02*
X99509104Y-93164914D01*
X99509104Y-93164914D02*
X99461485Y-93260152D01*
X99461485Y-93260152D02*
X99413866Y-93307771D01*
X99413866Y-93307771D02*
X99318628Y-93355390D01*
X99318628Y-93355390D02*
X99128152Y-93355390D01*
X99128152Y-93355390D02*
X99032914Y-93403009D01*
X99032914Y-93403009D02*
X98985295Y-93450628D01*
X98985295Y-93450628D02*
X98937676Y-93545866D01*
X98937676Y-93545866D02*
X98937676Y-93736342D01*
X98937676Y-93736342D02*
X98985295Y-93831580D01*
X98985295Y-93831580D02*
X99032914Y-93879200D01*
X99032914Y-93879200D02*
X99128152Y-93926819D01*
X99128152Y-93926819D02*
X99318628Y-93926819D01*
X99318628Y-93926819D02*
X99413866Y-93879200D01*
X99413866Y-93879200D02*
X99461485Y-93831580D01*
X99461485Y-93831580D02*
X99509104Y-93736342D01*
X99509104Y-93736342D02*
X99509104Y-93545866D01*
X99509104Y-93545866D02*
X99461485Y-93450628D01*
X99461485Y-93450628D02*
X99413866Y-93403009D01*
X99413866Y-93403009D02*
X99318628Y-93355390D01*
X101617542Y-93926819D02*
X101284209Y-93450628D01*
X101046114Y-93926819D02*
X101046114Y-92926819D01*
X101046114Y-92926819D02*
X101427066Y-92926819D01*
X101427066Y-92926819D02*
X101522304Y-92974438D01*
X101522304Y-92974438D02*
X101569923Y-93022057D01*
X101569923Y-93022057D02*
X101617542Y-93117295D01*
X101617542Y-93117295D02*
X101617542Y-93260152D01*
X101617542Y-93260152D02*
X101569923Y-93355390D01*
X101569923Y-93355390D02*
X101522304Y-93403009D01*
X101522304Y-93403009D02*
X101427066Y-93450628D01*
X101427066Y-93450628D02*
X101046114Y-93450628D01*
X102569923Y-93926819D02*
X101998495Y-93926819D01*
X102284209Y-93926819D02*
X102284209Y-92926819D01*
X102284209Y-92926819D02*
X102188971Y-93069676D01*
X102188971Y-93069676D02*
X102093733Y-93164914D01*
X102093733Y-93164914D02*
X101998495Y-93212533D01*
X102903257Y-92926819D02*
X103569923Y-92926819D01*
X103569923Y-92926819D02*
X103141352Y-93926819D01*
X107577142Y-89353819D02*
X107243809Y-88877628D01*
X107005714Y-89353819D02*
X107005714Y-88353819D01*
X107005714Y-88353819D02*
X107386666Y-88353819D01*
X107386666Y-88353819D02*
X107481904Y-88401438D01*
X107481904Y-88401438D02*
X107529523Y-88449057D01*
X107529523Y-88449057D02*
X107577142Y-88544295D01*
X107577142Y-88544295D02*
X107577142Y-88687152D01*
X107577142Y-88687152D02*
X107529523Y-88782390D01*
X107529523Y-88782390D02*
X107481904Y-88830009D01*
X107481904Y-88830009D02*
X107386666Y-88877628D01*
X107386666Y-88877628D02*
X107005714Y-88877628D01*
X108529523Y-89353819D02*
X107958095Y-89353819D01*
X108243809Y-89353819D02*
X108243809Y-88353819D01*
X108243809Y-88353819D02*
X108148571Y-88496676D01*
X108148571Y-88496676D02*
X108053333Y-88591914D01*
X108053333Y-88591914D02*
X107958095Y-88639533D01*
X109386666Y-88353819D02*
X109196190Y-88353819D01*
X109196190Y-88353819D02*
X109100952Y-88401438D01*
X109100952Y-88401438D02*
X109053333Y-88449057D01*
X109053333Y-88449057D02*
X108958095Y-88591914D01*
X108958095Y-88591914D02*
X108910476Y-88782390D01*
X108910476Y-88782390D02*
X108910476Y-89163342D01*
X108910476Y-89163342D02*
X108958095Y-89258580D01*
X108958095Y-89258580D02*
X109005714Y-89306200D01*
X109005714Y-89306200D02*
X109100952Y-89353819D01*
X109100952Y-89353819D02*
X109291428Y-89353819D01*
X109291428Y-89353819D02*
X109386666Y-89306200D01*
X109386666Y-89306200D02*
X109434285Y-89258580D01*
X109434285Y-89258580D02*
X109481904Y-89163342D01*
X109481904Y-89163342D02*
X109481904Y-88925247D01*
X109481904Y-88925247D02*
X109434285Y-88830009D01*
X109434285Y-88830009D02*
X109386666Y-88782390D01*
X109386666Y-88782390D02*
X109291428Y-88734771D01*
X109291428Y-88734771D02*
X109100952Y-88734771D01*
X109100952Y-88734771D02*
X109005714Y-88782390D01*
X109005714Y-88782390D02*
X108958095Y-88830009D01*
X108958095Y-88830009D02*
X108910476Y-88925247D01*
X105208342Y-97507219D02*
X104875009Y-97031028D01*
X104636914Y-97507219D02*
X104636914Y-96507219D01*
X104636914Y-96507219D02*
X105017866Y-96507219D01*
X105017866Y-96507219D02*
X105113104Y-96554838D01*
X105113104Y-96554838D02*
X105160723Y-96602457D01*
X105160723Y-96602457D02*
X105208342Y-96697695D01*
X105208342Y-96697695D02*
X105208342Y-96840552D01*
X105208342Y-96840552D02*
X105160723Y-96935790D01*
X105160723Y-96935790D02*
X105113104Y-96983409D01*
X105113104Y-96983409D02*
X105017866Y-97031028D01*
X105017866Y-97031028D02*
X104636914Y-97031028D01*
X106160723Y-97507219D02*
X105589295Y-97507219D01*
X105875009Y-97507219D02*
X105875009Y-96507219D01*
X105875009Y-96507219D02*
X105779771Y-96650076D01*
X105779771Y-96650076D02*
X105684533Y-96745314D01*
X105684533Y-96745314D02*
X105589295Y-96792933D01*
X107065485Y-96507219D02*
X106589295Y-96507219D01*
X106589295Y-96507219D02*
X106541676Y-96983409D01*
X106541676Y-96983409D02*
X106589295Y-96935790D01*
X106589295Y-96935790D02*
X106684533Y-96888171D01*
X106684533Y-96888171D02*
X106922628Y-96888171D01*
X106922628Y-96888171D02*
X107017866Y-96935790D01*
X107017866Y-96935790D02*
X107065485Y-96983409D01*
X107065485Y-96983409D02*
X107113104Y-97078647D01*
X107113104Y-97078647D02*
X107113104Y-97316742D01*
X107113104Y-97316742D02*
X107065485Y-97411980D01*
X107065485Y-97411980D02*
X107017866Y-97459600D01*
X107017866Y-97459600D02*
X106922628Y-97507219D01*
X106922628Y-97507219D02*
X106684533Y-97507219D01*
X106684533Y-97507219D02*
X106589295Y-97459600D01*
X106589295Y-97459600D02*
X106541676Y-97411980D01*
X115107142Y-82954819D02*
X114773809Y-82478628D01*
X114535714Y-82954819D02*
X114535714Y-81954819D01*
X114535714Y-81954819D02*
X114916666Y-81954819D01*
X114916666Y-81954819D02*
X115011904Y-82002438D01*
X115011904Y-82002438D02*
X115059523Y-82050057D01*
X115059523Y-82050057D02*
X115107142Y-82145295D01*
X115107142Y-82145295D02*
X115107142Y-82288152D01*
X115107142Y-82288152D02*
X115059523Y-82383390D01*
X115059523Y-82383390D02*
X115011904Y-82431009D01*
X115011904Y-82431009D02*
X114916666Y-82478628D01*
X114916666Y-82478628D02*
X114535714Y-82478628D01*
X116059523Y-82954819D02*
X115488095Y-82954819D01*
X115773809Y-82954819D02*
X115773809Y-81954819D01*
X115773809Y-81954819D02*
X115678571Y-82097676D01*
X115678571Y-82097676D02*
X115583333Y-82192914D01*
X115583333Y-82192914D02*
X115488095Y-82240533D01*
X116916666Y-82288152D02*
X116916666Y-82954819D01*
X116678571Y-81907200D02*
X116440476Y-82621485D01*
X116440476Y-82621485D02*
X117059523Y-82621485D01*
X110207142Y-82954819D02*
X109873809Y-82478628D01*
X109635714Y-82954819D02*
X109635714Y-81954819D01*
X109635714Y-81954819D02*
X110016666Y-81954819D01*
X110016666Y-81954819D02*
X110111904Y-82002438D01*
X110111904Y-82002438D02*
X110159523Y-82050057D01*
X110159523Y-82050057D02*
X110207142Y-82145295D01*
X110207142Y-82145295D02*
X110207142Y-82288152D01*
X110207142Y-82288152D02*
X110159523Y-82383390D01*
X110159523Y-82383390D02*
X110111904Y-82431009D01*
X110111904Y-82431009D02*
X110016666Y-82478628D01*
X110016666Y-82478628D02*
X109635714Y-82478628D01*
X111159523Y-82954819D02*
X110588095Y-82954819D01*
X110873809Y-82954819D02*
X110873809Y-81954819D01*
X110873809Y-81954819D02*
X110778571Y-82097676D01*
X110778571Y-82097676D02*
X110683333Y-82192914D01*
X110683333Y-82192914D02*
X110588095Y-82240533D01*
X111492857Y-81954819D02*
X112111904Y-81954819D01*
X112111904Y-81954819D02*
X111778571Y-82335771D01*
X111778571Y-82335771D02*
X111921428Y-82335771D01*
X111921428Y-82335771D02*
X112016666Y-82383390D01*
X112016666Y-82383390D02*
X112064285Y-82431009D01*
X112064285Y-82431009D02*
X112111904Y-82526247D01*
X112111904Y-82526247D02*
X112111904Y-82764342D01*
X112111904Y-82764342D02*
X112064285Y-82859580D01*
X112064285Y-82859580D02*
X112016666Y-82907200D01*
X112016666Y-82907200D02*
X111921428Y-82954819D01*
X111921428Y-82954819D02*
X111635714Y-82954819D01*
X111635714Y-82954819D02*
X111540476Y-82907200D01*
X111540476Y-82907200D02*
X111492857Y-82859580D01*
X119007142Y-88054819D02*
X118673809Y-87578628D01*
X118435714Y-88054819D02*
X118435714Y-87054819D01*
X118435714Y-87054819D02*
X118816666Y-87054819D01*
X118816666Y-87054819D02*
X118911904Y-87102438D01*
X118911904Y-87102438D02*
X118959523Y-87150057D01*
X118959523Y-87150057D02*
X119007142Y-87245295D01*
X119007142Y-87245295D02*
X119007142Y-87388152D01*
X119007142Y-87388152D02*
X118959523Y-87483390D01*
X118959523Y-87483390D02*
X118911904Y-87531009D01*
X118911904Y-87531009D02*
X118816666Y-87578628D01*
X118816666Y-87578628D02*
X118435714Y-87578628D01*
X119959523Y-88054819D02*
X119388095Y-88054819D01*
X119673809Y-88054819D02*
X119673809Y-87054819D01*
X119673809Y-87054819D02*
X119578571Y-87197676D01*
X119578571Y-87197676D02*
X119483333Y-87292914D01*
X119483333Y-87292914D02*
X119388095Y-87340533D01*
X120340476Y-87150057D02*
X120388095Y-87102438D01*
X120388095Y-87102438D02*
X120483333Y-87054819D01*
X120483333Y-87054819D02*
X120721428Y-87054819D01*
X120721428Y-87054819D02*
X120816666Y-87102438D01*
X120816666Y-87102438D02*
X120864285Y-87150057D01*
X120864285Y-87150057D02*
X120911904Y-87245295D01*
X120911904Y-87245295D02*
X120911904Y-87340533D01*
X120911904Y-87340533D02*
X120864285Y-87483390D01*
X120864285Y-87483390D02*
X120292857Y-88054819D01*
X120292857Y-88054819D02*
X120911904Y-88054819D01*
X131554742Y-100453619D02*
X131221409Y-99977428D01*
X130983314Y-100453619D02*
X130983314Y-99453619D01*
X130983314Y-99453619D02*
X131364266Y-99453619D01*
X131364266Y-99453619D02*
X131459504Y-99501238D01*
X131459504Y-99501238D02*
X131507123Y-99548857D01*
X131507123Y-99548857D02*
X131554742Y-99644095D01*
X131554742Y-99644095D02*
X131554742Y-99786952D01*
X131554742Y-99786952D02*
X131507123Y-99882190D01*
X131507123Y-99882190D02*
X131459504Y-99929809D01*
X131459504Y-99929809D02*
X131364266Y-99977428D01*
X131364266Y-99977428D02*
X130983314Y-99977428D01*
X132507123Y-100453619D02*
X131935695Y-100453619D01*
X132221409Y-100453619D02*
X132221409Y-99453619D01*
X132221409Y-99453619D02*
X132126171Y-99596476D01*
X132126171Y-99596476D02*
X132030933Y-99691714D01*
X132030933Y-99691714D02*
X131935695Y-99739333D01*
X133459504Y-100453619D02*
X132888076Y-100453619D01*
X133173790Y-100453619D02*
X133173790Y-99453619D01*
X133173790Y-99453619D02*
X133078552Y-99596476D01*
X133078552Y-99596476D02*
X132983314Y-99691714D01*
X132983314Y-99691714D02*
X132888076Y-99739333D01*
X124579142Y-84528819D02*
X124245809Y-84052628D01*
X124007714Y-84528819D02*
X124007714Y-83528819D01*
X124007714Y-83528819D02*
X124388666Y-83528819D01*
X124388666Y-83528819D02*
X124483904Y-83576438D01*
X124483904Y-83576438D02*
X124531523Y-83624057D01*
X124531523Y-83624057D02*
X124579142Y-83719295D01*
X124579142Y-83719295D02*
X124579142Y-83862152D01*
X124579142Y-83862152D02*
X124531523Y-83957390D01*
X124531523Y-83957390D02*
X124483904Y-84005009D01*
X124483904Y-84005009D02*
X124388666Y-84052628D01*
X124388666Y-84052628D02*
X124007714Y-84052628D01*
X125531523Y-84528819D02*
X124960095Y-84528819D01*
X125245809Y-84528819D02*
X125245809Y-83528819D01*
X125245809Y-83528819D02*
X125150571Y-83671676D01*
X125150571Y-83671676D02*
X125055333Y-83766914D01*
X125055333Y-83766914D02*
X124960095Y-83814533D01*
X126150571Y-83528819D02*
X126245809Y-83528819D01*
X126245809Y-83528819D02*
X126341047Y-83576438D01*
X126341047Y-83576438D02*
X126388666Y-83624057D01*
X126388666Y-83624057D02*
X126436285Y-83719295D01*
X126436285Y-83719295D02*
X126483904Y-83909771D01*
X126483904Y-83909771D02*
X126483904Y-84147866D01*
X126483904Y-84147866D02*
X126436285Y-84338342D01*
X126436285Y-84338342D02*
X126388666Y-84433580D01*
X126388666Y-84433580D02*
X126341047Y-84481200D01*
X126341047Y-84481200D02*
X126245809Y-84528819D01*
X126245809Y-84528819D02*
X126150571Y-84528819D01*
X126150571Y-84528819D02*
X126055333Y-84481200D01*
X126055333Y-84481200D02*
X126007714Y-84433580D01*
X126007714Y-84433580D02*
X125960095Y-84338342D01*
X125960095Y-84338342D02*
X125912476Y-84147866D01*
X125912476Y-84147866D02*
X125912476Y-83909771D01*
X125912476Y-83909771D02*
X125960095Y-83719295D01*
X125960095Y-83719295D02*
X126007714Y-83624057D01*
X126007714Y-83624057D02*
X126055333Y-83576438D01*
X126055333Y-83576438D02*
X126150571Y-83528819D01*
X134233333Y-103654819D02*
X133900000Y-103178628D01*
X133661905Y-103654819D02*
X133661905Y-102654819D01*
X133661905Y-102654819D02*
X134042857Y-102654819D01*
X134042857Y-102654819D02*
X134138095Y-102702438D01*
X134138095Y-102702438D02*
X134185714Y-102750057D01*
X134185714Y-102750057D02*
X134233333Y-102845295D01*
X134233333Y-102845295D02*
X134233333Y-102988152D01*
X134233333Y-102988152D02*
X134185714Y-103083390D01*
X134185714Y-103083390D02*
X134138095Y-103131009D01*
X134138095Y-103131009D02*
X134042857Y-103178628D01*
X134042857Y-103178628D02*
X133661905Y-103178628D01*
X134709524Y-103654819D02*
X134900000Y-103654819D01*
X134900000Y-103654819D02*
X134995238Y-103607200D01*
X134995238Y-103607200D02*
X135042857Y-103559580D01*
X135042857Y-103559580D02*
X135138095Y-103416723D01*
X135138095Y-103416723D02*
X135185714Y-103226247D01*
X135185714Y-103226247D02*
X135185714Y-102845295D01*
X135185714Y-102845295D02*
X135138095Y-102750057D01*
X135138095Y-102750057D02*
X135090476Y-102702438D01*
X135090476Y-102702438D02*
X134995238Y-102654819D01*
X134995238Y-102654819D02*
X134804762Y-102654819D01*
X134804762Y-102654819D02*
X134709524Y-102702438D01*
X134709524Y-102702438D02*
X134661905Y-102750057D01*
X134661905Y-102750057D02*
X134614286Y-102845295D01*
X134614286Y-102845295D02*
X134614286Y-103083390D01*
X134614286Y-103083390D02*
X134661905Y-103178628D01*
X134661905Y-103178628D02*
X134709524Y-103226247D01*
X134709524Y-103226247D02*
X134804762Y-103273866D01*
X134804762Y-103273866D02*
X134995238Y-103273866D01*
X134995238Y-103273866D02*
X135090476Y-103226247D01*
X135090476Y-103226247D02*
X135138095Y-103178628D01*
X135138095Y-103178628D02*
X135185714Y-103083390D01*
X112644133Y-103654819D02*
X112310800Y-103178628D01*
X112072705Y-103654819D02*
X112072705Y-102654819D01*
X112072705Y-102654819D02*
X112453657Y-102654819D01*
X112453657Y-102654819D02*
X112548895Y-102702438D01*
X112548895Y-102702438D02*
X112596514Y-102750057D01*
X112596514Y-102750057D02*
X112644133Y-102845295D01*
X112644133Y-102845295D02*
X112644133Y-102988152D01*
X112644133Y-102988152D02*
X112596514Y-103083390D01*
X112596514Y-103083390D02*
X112548895Y-103131009D01*
X112548895Y-103131009D02*
X112453657Y-103178628D01*
X112453657Y-103178628D02*
X112072705Y-103178628D01*
X113215562Y-103083390D02*
X113120324Y-103035771D01*
X113120324Y-103035771D02*
X113072705Y-102988152D01*
X113072705Y-102988152D02*
X113025086Y-102892914D01*
X113025086Y-102892914D02*
X113025086Y-102845295D01*
X113025086Y-102845295D02*
X113072705Y-102750057D01*
X113072705Y-102750057D02*
X113120324Y-102702438D01*
X113120324Y-102702438D02*
X113215562Y-102654819D01*
X113215562Y-102654819D02*
X113406038Y-102654819D01*
X113406038Y-102654819D02*
X113501276Y-102702438D01*
X113501276Y-102702438D02*
X113548895Y-102750057D01*
X113548895Y-102750057D02*
X113596514Y-102845295D01*
X113596514Y-102845295D02*
X113596514Y-102892914D01*
X113596514Y-102892914D02*
X113548895Y-102988152D01*
X113548895Y-102988152D02*
X113501276Y-103035771D01*
X113501276Y-103035771D02*
X113406038Y-103083390D01*
X113406038Y-103083390D02*
X113215562Y-103083390D01*
X113215562Y-103083390D02*
X113120324Y-103131009D01*
X113120324Y-103131009D02*
X113072705Y-103178628D01*
X113072705Y-103178628D02*
X113025086Y-103273866D01*
X113025086Y-103273866D02*
X113025086Y-103464342D01*
X113025086Y-103464342D02*
X113072705Y-103559580D01*
X113072705Y-103559580D02*
X113120324Y-103607200D01*
X113120324Y-103607200D02*
X113215562Y-103654819D01*
X113215562Y-103654819D02*
X113406038Y-103654819D01*
X113406038Y-103654819D02*
X113501276Y-103607200D01*
X113501276Y-103607200D02*
X113548895Y-103559580D01*
X113548895Y-103559580D02*
X113596514Y-103464342D01*
X113596514Y-103464342D02*
X113596514Y-103273866D01*
X113596514Y-103273866D02*
X113548895Y-103178628D01*
X113548895Y-103178628D02*
X113501276Y-103131009D01*
X113501276Y-103131009D02*
X113406038Y-103083390D01*
X154433333Y-102104819D02*
X154100000Y-101628628D01*
X153861905Y-102104819D02*
X153861905Y-101104819D01*
X153861905Y-101104819D02*
X154242857Y-101104819D01*
X154242857Y-101104819D02*
X154338095Y-101152438D01*
X154338095Y-101152438D02*
X154385714Y-101200057D01*
X154385714Y-101200057D02*
X154433333Y-101295295D01*
X154433333Y-101295295D02*
X154433333Y-101438152D01*
X154433333Y-101438152D02*
X154385714Y-101533390D01*
X154385714Y-101533390D02*
X154338095Y-101581009D01*
X154338095Y-101581009D02*
X154242857Y-101628628D01*
X154242857Y-101628628D02*
X153861905Y-101628628D01*
X154766667Y-101104819D02*
X155433333Y-101104819D01*
X155433333Y-101104819D02*
X155004762Y-102104819D01*
X130033333Y-103654819D02*
X129700000Y-103178628D01*
X129461905Y-103654819D02*
X129461905Y-102654819D01*
X129461905Y-102654819D02*
X129842857Y-102654819D01*
X129842857Y-102654819D02*
X129938095Y-102702438D01*
X129938095Y-102702438D02*
X129985714Y-102750057D01*
X129985714Y-102750057D02*
X130033333Y-102845295D01*
X130033333Y-102845295D02*
X130033333Y-102988152D01*
X130033333Y-102988152D02*
X129985714Y-103083390D01*
X129985714Y-103083390D02*
X129938095Y-103131009D01*
X129938095Y-103131009D02*
X129842857Y-103178628D01*
X129842857Y-103178628D02*
X129461905Y-103178628D01*
X130890476Y-102654819D02*
X130700000Y-102654819D01*
X130700000Y-102654819D02*
X130604762Y-102702438D01*
X130604762Y-102702438D02*
X130557143Y-102750057D01*
X130557143Y-102750057D02*
X130461905Y-102892914D01*
X130461905Y-102892914D02*
X130414286Y-103083390D01*
X130414286Y-103083390D02*
X130414286Y-103464342D01*
X130414286Y-103464342D02*
X130461905Y-103559580D01*
X130461905Y-103559580D02*
X130509524Y-103607200D01*
X130509524Y-103607200D02*
X130604762Y-103654819D01*
X130604762Y-103654819D02*
X130795238Y-103654819D01*
X130795238Y-103654819D02*
X130890476Y-103607200D01*
X130890476Y-103607200D02*
X130938095Y-103559580D01*
X130938095Y-103559580D02*
X130985714Y-103464342D01*
X130985714Y-103464342D02*
X130985714Y-103226247D01*
X130985714Y-103226247D02*
X130938095Y-103131009D01*
X130938095Y-103131009D02*
X130890476Y-103083390D01*
X130890476Y-103083390D02*
X130795238Y-103035771D01*
X130795238Y-103035771D02*
X130604762Y-103035771D01*
X130604762Y-103035771D02*
X130509524Y-103083390D01*
X130509524Y-103083390D02*
X130461905Y-103131009D01*
X130461905Y-103131009D02*
X130414286Y-103226247D01*
X173204733Y-93467419D02*
X172871400Y-92991228D01*
X172633305Y-93467419D02*
X172633305Y-92467419D01*
X172633305Y-92467419D02*
X173014257Y-92467419D01*
X173014257Y-92467419D02*
X173109495Y-92515038D01*
X173109495Y-92515038D02*
X173157114Y-92562657D01*
X173157114Y-92562657D02*
X173204733Y-92657895D01*
X173204733Y-92657895D02*
X173204733Y-92800752D01*
X173204733Y-92800752D02*
X173157114Y-92895990D01*
X173157114Y-92895990D02*
X173109495Y-92943609D01*
X173109495Y-92943609D02*
X173014257Y-92991228D01*
X173014257Y-92991228D02*
X172633305Y-92991228D01*
X174109495Y-92467419D02*
X173633305Y-92467419D01*
X173633305Y-92467419D02*
X173585686Y-92943609D01*
X173585686Y-92943609D02*
X173633305Y-92895990D01*
X173633305Y-92895990D02*
X173728543Y-92848371D01*
X173728543Y-92848371D02*
X173966638Y-92848371D01*
X173966638Y-92848371D02*
X174061876Y-92895990D01*
X174061876Y-92895990D02*
X174109495Y-92943609D01*
X174109495Y-92943609D02*
X174157114Y-93038847D01*
X174157114Y-93038847D02*
X174157114Y-93276942D01*
X174157114Y-93276942D02*
X174109495Y-93372180D01*
X174109495Y-93372180D02*
X174061876Y-93419800D01*
X174061876Y-93419800D02*
X173966638Y-93467419D01*
X173966638Y-93467419D02*
X173728543Y-93467419D01*
X173728543Y-93467419D02*
X173633305Y-93419800D01*
X173633305Y-93419800D02*
X173585686Y-93372180D01*
X166304933Y-93723619D02*
X165971600Y-93247428D01*
X165733505Y-93723619D02*
X165733505Y-92723619D01*
X165733505Y-92723619D02*
X166114457Y-92723619D01*
X166114457Y-92723619D02*
X166209695Y-92771238D01*
X166209695Y-92771238D02*
X166257314Y-92818857D01*
X166257314Y-92818857D02*
X166304933Y-92914095D01*
X166304933Y-92914095D02*
X166304933Y-93056952D01*
X166304933Y-93056952D02*
X166257314Y-93152190D01*
X166257314Y-93152190D02*
X166209695Y-93199809D01*
X166209695Y-93199809D02*
X166114457Y-93247428D01*
X166114457Y-93247428D02*
X165733505Y-93247428D01*
X167162076Y-93056952D02*
X167162076Y-93723619D01*
X166923981Y-92676000D02*
X166685886Y-93390285D01*
X166685886Y-93390285D02*
X167304933Y-93390285D01*
X173116533Y-87354819D02*
X172783200Y-86878628D01*
X172545105Y-87354819D02*
X172545105Y-86354819D01*
X172545105Y-86354819D02*
X172926057Y-86354819D01*
X172926057Y-86354819D02*
X173021295Y-86402438D01*
X173021295Y-86402438D02*
X173068914Y-86450057D01*
X173068914Y-86450057D02*
X173116533Y-86545295D01*
X173116533Y-86545295D02*
X173116533Y-86688152D01*
X173116533Y-86688152D02*
X173068914Y-86783390D01*
X173068914Y-86783390D02*
X173021295Y-86831009D01*
X173021295Y-86831009D02*
X172926057Y-86878628D01*
X172926057Y-86878628D02*
X172545105Y-86878628D01*
X173449867Y-86354819D02*
X174068914Y-86354819D01*
X174068914Y-86354819D02*
X173735581Y-86735771D01*
X173735581Y-86735771D02*
X173878438Y-86735771D01*
X173878438Y-86735771D02*
X173973676Y-86783390D01*
X173973676Y-86783390D02*
X174021295Y-86831009D01*
X174021295Y-86831009D02*
X174068914Y-86926247D01*
X174068914Y-86926247D02*
X174068914Y-87164342D01*
X174068914Y-87164342D02*
X174021295Y-87259580D01*
X174021295Y-87259580D02*
X173973676Y-87307200D01*
X173973676Y-87307200D02*
X173878438Y-87354819D01*
X173878438Y-87354819D02*
X173592724Y-87354819D01*
X173592724Y-87354819D02*
X173497486Y-87307200D01*
X173497486Y-87307200D02*
X173449867Y-87259580D01*
X162214733Y-85550719D02*
X161881400Y-85074528D01*
X161643305Y-85550719D02*
X161643305Y-84550719D01*
X161643305Y-84550719D02*
X162024257Y-84550719D01*
X162024257Y-84550719D02*
X162119495Y-84598338D01*
X162119495Y-84598338D02*
X162167114Y-84645957D01*
X162167114Y-84645957D02*
X162214733Y-84741195D01*
X162214733Y-84741195D02*
X162214733Y-84884052D01*
X162214733Y-84884052D02*
X162167114Y-84979290D01*
X162167114Y-84979290D02*
X162119495Y-85026909D01*
X162119495Y-85026909D02*
X162024257Y-85074528D01*
X162024257Y-85074528D02*
X161643305Y-85074528D01*
X162595686Y-84645957D02*
X162643305Y-84598338D01*
X162643305Y-84598338D02*
X162738543Y-84550719D01*
X162738543Y-84550719D02*
X162976638Y-84550719D01*
X162976638Y-84550719D02*
X163071876Y-84598338D01*
X163071876Y-84598338D02*
X163119495Y-84645957D01*
X163119495Y-84645957D02*
X163167114Y-84741195D01*
X163167114Y-84741195D02*
X163167114Y-84836433D01*
X163167114Y-84836433D02*
X163119495Y-84979290D01*
X163119495Y-84979290D02*
X162548067Y-85550719D01*
X162548067Y-85550719D02*
X163167114Y-85550719D01*
X150301333Y-89074419D02*
X149968000Y-88598228D01*
X149729905Y-89074419D02*
X149729905Y-88074419D01*
X149729905Y-88074419D02*
X150110857Y-88074419D01*
X150110857Y-88074419D02*
X150206095Y-88122038D01*
X150206095Y-88122038D02*
X150253714Y-88169657D01*
X150253714Y-88169657D02*
X150301333Y-88264895D01*
X150301333Y-88264895D02*
X150301333Y-88407752D01*
X150301333Y-88407752D02*
X150253714Y-88502990D01*
X150253714Y-88502990D02*
X150206095Y-88550609D01*
X150206095Y-88550609D02*
X150110857Y-88598228D01*
X150110857Y-88598228D02*
X149729905Y-88598228D01*
X151253714Y-89074419D02*
X150682286Y-89074419D01*
X150968000Y-89074419D02*
X150968000Y-88074419D01*
X150968000Y-88074419D02*
X150872762Y-88217276D01*
X150872762Y-88217276D02*
X150777524Y-88312514D01*
X150777524Y-88312514D02*
X150682286Y-88360133D01*
X166654819Y-84053333D02*
X167369104Y-84053333D01*
X167369104Y-84053333D02*
X167511961Y-84100952D01*
X167511961Y-84100952D02*
X167607200Y-84196190D01*
X167607200Y-84196190D02*
X167654819Y-84339047D01*
X167654819Y-84339047D02*
X167654819Y-84434285D01*
X166750057Y-83624761D02*
X166702438Y-83577142D01*
X166702438Y-83577142D02*
X166654819Y-83481904D01*
X166654819Y-83481904D02*
X166654819Y-83243809D01*
X166654819Y-83243809D02*
X166702438Y-83148571D01*
X166702438Y-83148571D02*
X166750057Y-83100952D01*
X166750057Y-83100952D02*
X166845295Y-83053333D01*
X166845295Y-83053333D02*
X166940533Y-83053333D01*
X166940533Y-83053333D02*
X167083390Y-83100952D01*
X167083390Y-83100952D02*
X167654819Y-83672380D01*
X167654819Y-83672380D02*
X167654819Y-83053333D01*
X145285619Y-84153333D02*
X145999904Y-84153333D01*
X145999904Y-84153333D02*
X146142761Y-84200952D01*
X146142761Y-84200952D02*
X146238000Y-84296190D01*
X146238000Y-84296190D02*
X146285619Y-84439047D01*
X146285619Y-84439047D02*
X146285619Y-84534285D01*
X146285619Y-83153333D02*
X146285619Y-83724761D01*
X146285619Y-83439047D02*
X145285619Y-83439047D01*
X145285619Y-83439047D02*
X145428476Y-83534285D01*
X145428476Y-83534285D02*
X145523714Y-83629523D01*
X145523714Y-83629523D02*
X145571333Y-83724761D01*
X96544142Y-89767580D02*
X96496523Y-89815200D01*
X96496523Y-89815200D02*
X96353666Y-89862819D01*
X96353666Y-89862819D02*
X96258428Y-89862819D01*
X96258428Y-89862819D02*
X96115571Y-89815200D01*
X96115571Y-89815200D02*
X96020333Y-89719961D01*
X96020333Y-89719961D02*
X95972714Y-89624723D01*
X95972714Y-89624723D02*
X95925095Y-89434247D01*
X95925095Y-89434247D02*
X95925095Y-89291390D01*
X95925095Y-89291390D02*
X95972714Y-89100914D01*
X95972714Y-89100914D02*
X96020333Y-89005676D01*
X96020333Y-89005676D02*
X96115571Y-88910438D01*
X96115571Y-88910438D02*
X96258428Y-88862819D01*
X96258428Y-88862819D02*
X96353666Y-88862819D01*
X96353666Y-88862819D02*
X96496523Y-88910438D01*
X96496523Y-88910438D02*
X96544142Y-88958057D01*
X97496523Y-89862819D02*
X96925095Y-89862819D01*
X97210809Y-89862819D02*
X97210809Y-88862819D01*
X97210809Y-88862819D02*
X97115571Y-89005676D01*
X97115571Y-89005676D02*
X97020333Y-89100914D01*
X97020333Y-89100914D02*
X96925095Y-89148533D01*
X98448904Y-89862819D02*
X97877476Y-89862819D01*
X98163190Y-89862819D02*
X98163190Y-88862819D01*
X98163190Y-88862819D02*
X98067952Y-89005676D01*
X98067952Y-89005676D02*
X97972714Y-89100914D01*
X97972714Y-89100914D02*
X97877476Y-89148533D01*
X106646742Y-84433580D02*
X106599123Y-84481200D01*
X106599123Y-84481200D02*
X106456266Y-84528819D01*
X106456266Y-84528819D02*
X106361028Y-84528819D01*
X106361028Y-84528819D02*
X106218171Y-84481200D01*
X106218171Y-84481200D02*
X106122933Y-84385961D01*
X106122933Y-84385961D02*
X106075314Y-84290723D01*
X106075314Y-84290723D02*
X106027695Y-84100247D01*
X106027695Y-84100247D02*
X106027695Y-83957390D01*
X106027695Y-83957390D02*
X106075314Y-83766914D01*
X106075314Y-83766914D02*
X106122933Y-83671676D01*
X106122933Y-83671676D02*
X106218171Y-83576438D01*
X106218171Y-83576438D02*
X106361028Y-83528819D01*
X106361028Y-83528819D02*
X106456266Y-83528819D01*
X106456266Y-83528819D02*
X106599123Y-83576438D01*
X106599123Y-83576438D02*
X106646742Y-83624057D01*
X107599123Y-84528819D02*
X107027695Y-84528819D01*
X107313409Y-84528819D02*
X107313409Y-83528819D01*
X107313409Y-83528819D02*
X107218171Y-83671676D01*
X107218171Y-83671676D02*
X107122933Y-83766914D01*
X107122933Y-83766914D02*
X107027695Y-83814533D01*
X108218171Y-83528819D02*
X108313409Y-83528819D01*
X108313409Y-83528819D02*
X108408647Y-83576438D01*
X108408647Y-83576438D02*
X108456266Y-83624057D01*
X108456266Y-83624057D02*
X108503885Y-83719295D01*
X108503885Y-83719295D02*
X108551504Y-83909771D01*
X108551504Y-83909771D02*
X108551504Y-84147866D01*
X108551504Y-84147866D02*
X108503885Y-84338342D01*
X108503885Y-84338342D02*
X108456266Y-84433580D01*
X108456266Y-84433580D02*
X108408647Y-84481200D01*
X108408647Y-84481200D02*
X108313409Y-84528819D01*
X108313409Y-84528819D02*
X108218171Y-84528819D01*
X108218171Y-84528819D02*
X108122933Y-84481200D01*
X108122933Y-84481200D02*
X108075314Y-84433580D01*
X108075314Y-84433580D02*
X108027695Y-84338342D01*
X108027695Y-84338342D02*
X107980076Y-84147866D01*
X107980076Y-84147866D02*
X107980076Y-83909771D01*
X107980076Y-83909771D02*
X108027695Y-83719295D01*
X108027695Y-83719295D02*
X108075314Y-83624057D01*
X108075314Y-83624057D02*
X108122933Y-83576438D01*
X108122933Y-83576438D02*
X108218171Y-83528819D01*
X101941333Y-89858580D02*
X101893714Y-89906200D01*
X101893714Y-89906200D02*
X101750857Y-89953819D01*
X101750857Y-89953819D02*
X101655619Y-89953819D01*
X101655619Y-89953819D02*
X101512762Y-89906200D01*
X101512762Y-89906200D02*
X101417524Y-89810961D01*
X101417524Y-89810961D02*
X101369905Y-89715723D01*
X101369905Y-89715723D02*
X101322286Y-89525247D01*
X101322286Y-89525247D02*
X101322286Y-89382390D01*
X101322286Y-89382390D02*
X101369905Y-89191914D01*
X101369905Y-89191914D02*
X101417524Y-89096676D01*
X101417524Y-89096676D02*
X101512762Y-89001438D01*
X101512762Y-89001438D02*
X101655619Y-88953819D01*
X101655619Y-88953819D02*
X101750857Y-88953819D01*
X101750857Y-88953819D02*
X101893714Y-89001438D01*
X101893714Y-89001438D02*
X101941333Y-89049057D01*
X102417524Y-89953819D02*
X102608000Y-89953819D01*
X102608000Y-89953819D02*
X102703238Y-89906200D01*
X102703238Y-89906200D02*
X102750857Y-89858580D01*
X102750857Y-89858580D02*
X102846095Y-89715723D01*
X102846095Y-89715723D02*
X102893714Y-89525247D01*
X102893714Y-89525247D02*
X102893714Y-89144295D01*
X102893714Y-89144295D02*
X102846095Y-89049057D01*
X102846095Y-89049057D02*
X102798476Y-89001438D01*
X102798476Y-89001438D02*
X102703238Y-88953819D01*
X102703238Y-88953819D02*
X102512762Y-88953819D01*
X102512762Y-88953819D02*
X102417524Y-89001438D01*
X102417524Y-89001438D02*
X102369905Y-89049057D01*
X102369905Y-89049057D02*
X102322286Y-89144295D01*
X102322286Y-89144295D02*
X102322286Y-89382390D01*
X102322286Y-89382390D02*
X102369905Y-89477628D01*
X102369905Y-89477628D02*
X102417524Y-89525247D01*
X102417524Y-89525247D02*
X102512762Y-89572866D01*
X102512762Y-89572866D02*
X102703238Y-89572866D01*
X102703238Y-89572866D02*
X102798476Y-89525247D01*
X102798476Y-89525247D02*
X102846095Y-89477628D01*
X102846095Y-89477628D02*
X102893714Y-89382390D01*
X128103333Y-92434580D02*
X128055714Y-92482200D01*
X128055714Y-92482200D02*
X127912857Y-92529819D01*
X127912857Y-92529819D02*
X127817619Y-92529819D01*
X127817619Y-92529819D02*
X127674762Y-92482200D01*
X127674762Y-92482200D02*
X127579524Y-92386961D01*
X127579524Y-92386961D02*
X127531905Y-92291723D01*
X127531905Y-92291723D02*
X127484286Y-92101247D01*
X127484286Y-92101247D02*
X127484286Y-91958390D01*
X127484286Y-91958390D02*
X127531905Y-91767914D01*
X127531905Y-91767914D02*
X127579524Y-91672676D01*
X127579524Y-91672676D02*
X127674762Y-91577438D01*
X127674762Y-91577438D02*
X127817619Y-91529819D01*
X127817619Y-91529819D02*
X127912857Y-91529819D01*
X127912857Y-91529819D02*
X128055714Y-91577438D01*
X128055714Y-91577438D02*
X128103333Y-91625057D01*
X128674762Y-91958390D02*
X128579524Y-91910771D01*
X128579524Y-91910771D02*
X128531905Y-91863152D01*
X128531905Y-91863152D02*
X128484286Y-91767914D01*
X128484286Y-91767914D02*
X128484286Y-91720295D01*
X128484286Y-91720295D02*
X128531905Y-91625057D01*
X128531905Y-91625057D02*
X128579524Y-91577438D01*
X128579524Y-91577438D02*
X128674762Y-91529819D01*
X128674762Y-91529819D02*
X128865238Y-91529819D01*
X128865238Y-91529819D02*
X128960476Y-91577438D01*
X128960476Y-91577438D02*
X129008095Y-91625057D01*
X129008095Y-91625057D02*
X129055714Y-91720295D01*
X129055714Y-91720295D02*
X129055714Y-91767914D01*
X129055714Y-91767914D02*
X129008095Y-91863152D01*
X129008095Y-91863152D02*
X128960476Y-91910771D01*
X128960476Y-91910771D02*
X128865238Y-91958390D01*
X128865238Y-91958390D02*
X128674762Y-91958390D01*
X128674762Y-91958390D02*
X128579524Y-92006009D01*
X128579524Y-92006009D02*
X128531905Y-92053628D01*
X128531905Y-92053628D02*
X128484286Y-92148866D01*
X128484286Y-92148866D02*
X128484286Y-92339342D01*
X128484286Y-92339342D02*
X128531905Y-92434580D01*
X128531905Y-92434580D02*
X128579524Y-92482200D01*
X128579524Y-92482200D02*
X128674762Y-92529819D01*
X128674762Y-92529819D02*
X128865238Y-92529819D01*
X128865238Y-92529819D02*
X128960476Y-92482200D01*
X128960476Y-92482200D02*
X129008095Y-92434580D01*
X129008095Y-92434580D02*
X129055714Y-92339342D01*
X129055714Y-92339342D02*
X129055714Y-92148866D01*
X129055714Y-92148866D02*
X129008095Y-92053628D01*
X129008095Y-92053628D02*
X128960476Y-92006009D01*
X128960476Y-92006009D02*
X128865238Y-91958390D01*
X128063333Y-89259580D02*
X128015714Y-89307200D01*
X128015714Y-89307200D02*
X127872857Y-89354819D01*
X127872857Y-89354819D02*
X127777619Y-89354819D01*
X127777619Y-89354819D02*
X127634762Y-89307200D01*
X127634762Y-89307200D02*
X127539524Y-89211961D01*
X127539524Y-89211961D02*
X127491905Y-89116723D01*
X127491905Y-89116723D02*
X127444286Y-88926247D01*
X127444286Y-88926247D02*
X127444286Y-88783390D01*
X127444286Y-88783390D02*
X127491905Y-88592914D01*
X127491905Y-88592914D02*
X127539524Y-88497676D01*
X127539524Y-88497676D02*
X127634762Y-88402438D01*
X127634762Y-88402438D02*
X127777619Y-88354819D01*
X127777619Y-88354819D02*
X127872857Y-88354819D01*
X127872857Y-88354819D02*
X128015714Y-88402438D01*
X128015714Y-88402438D02*
X128063333Y-88450057D01*
X128396667Y-88354819D02*
X129063333Y-88354819D01*
X129063333Y-88354819D02*
X128634762Y-89354819D01*
X119467333Y-94085580D02*
X119419714Y-94133200D01*
X119419714Y-94133200D02*
X119276857Y-94180819D01*
X119276857Y-94180819D02*
X119181619Y-94180819D01*
X119181619Y-94180819D02*
X119038762Y-94133200D01*
X119038762Y-94133200D02*
X118943524Y-94037961D01*
X118943524Y-94037961D02*
X118895905Y-93942723D01*
X118895905Y-93942723D02*
X118848286Y-93752247D01*
X118848286Y-93752247D02*
X118848286Y-93609390D01*
X118848286Y-93609390D02*
X118895905Y-93418914D01*
X118895905Y-93418914D02*
X118943524Y-93323676D01*
X118943524Y-93323676D02*
X119038762Y-93228438D01*
X119038762Y-93228438D02*
X119181619Y-93180819D01*
X119181619Y-93180819D02*
X119276857Y-93180819D01*
X119276857Y-93180819D02*
X119419714Y-93228438D01*
X119419714Y-93228438D02*
X119467333Y-93276057D01*
X120324476Y-93180819D02*
X120134000Y-93180819D01*
X120134000Y-93180819D02*
X120038762Y-93228438D01*
X120038762Y-93228438D02*
X119991143Y-93276057D01*
X119991143Y-93276057D02*
X119895905Y-93418914D01*
X119895905Y-93418914D02*
X119848286Y-93609390D01*
X119848286Y-93609390D02*
X119848286Y-93990342D01*
X119848286Y-93990342D02*
X119895905Y-94085580D01*
X119895905Y-94085580D02*
X119943524Y-94133200D01*
X119943524Y-94133200D02*
X120038762Y-94180819D01*
X120038762Y-94180819D02*
X120229238Y-94180819D01*
X120229238Y-94180819D02*
X120324476Y-94133200D01*
X120324476Y-94133200D02*
X120372095Y-94085580D01*
X120372095Y-94085580D02*
X120419714Y-93990342D01*
X120419714Y-93990342D02*
X120419714Y-93752247D01*
X120419714Y-93752247D02*
X120372095Y-93657009D01*
X120372095Y-93657009D02*
X120324476Y-93609390D01*
X120324476Y-93609390D02*
X120229238Y-93561771D01*
X120229238Y-93561771D02*
X120038762Y-93561771D01*
X120038762Y-93561771D02*
X119943524Y-93609390D01*
X119943524Y-93609390D02*
X119895905Y-93657009D01*
X119895905Y-93657009D02*
X119848286Y-93752247D01*
X157285633Y-98869180D02*
X157238014Y-98916800D01*
X157238014Y-98916800D02*
X157095157Y-98964419D01*
X157095157Y-98964419D02*
X156999919Y-98964419D01*
X156999919Y-98964419D02*
X156857062Y-98916800D01*
X156857062Y-98916800D02*
X156761824Y-98821561D01*
X156761824Y-98821561D02*
X156714205Y-98726323D01*
X156714205Y-98726323D02*
X156666586Y-98535847D01*
X156666586Y-98535847D02*
X156666586Y-98392990D01*
X156666586Y-98392990D02*
X156714205Y-98202514D01*
X156714205Y-98202514D02*
X156761824Y-98107276D01*
X156761824Y-98107276D02*
X156857062Y-98012038D01*
X156857062Y-98012038D02*
X156999919Y-97964419D01*
X156999919Y-97964419D02*
X157095157Y-97964419D01*
X157095157Y-97964419D02*
X157238014Y-98012038D01*
X157238014Y-98012038D02*
X157285633Y-98059657D01*
X158190395Y-97964419D02*
X157714205Y-97964419D01*
X157714205Y-97964419D02*
X157666586Y-98440609D01*
X157666586Y-98440609D02*
X157714205Y-98392990D01*
X157714205Y-98392990D02*
X157809443Y-98345371D01*
X157809443Y-98345371D02*
X158047538Y-98345371D01*
X158047538Y-98345371D02*
X158142776Y-98392990D01*
X158142776Y-98392990D02*
X158190395Y-98440609D01*
X158190395Y-98440609D02*
X158238014Y-98535847D01*
X158238014Y-98535847D02*
X158238014Y-98773942D01*
X158238014Y-98773942D02*
X158190395Y-98869180D01*
X158190395Y-98869180D02*
X158142776Y-98916800D01*
X158142776Y-98916800D02*
X158047538Y-98964419D01*
X158047538Y-98964419D02*
X157809443Y-98964419D01*
X157809443Y-98964419D02*
X157714205Y-98916800D01*
X157714205Y-98916800D02*
X157666586Y-98869180D01*
X164189580Y-89269866D02*
X164237200Y-89317485D01*
X164237200Y-89317485D02*
X164284819Y-89460342D01*
X164284819Y-89460342D02*
X164284819Y-89555580D01*
X164284819Y-89555580D02*
X164237200Y-89698437D01*
X164237200Y-89698437D02*
X164141961Y-89793675D01*
X164141961Y-89793675D02*
X164046723Y-89841294D01*
X164046723Y-89841294D02*
X163856247Y-89888913D01*
X163856247Y-89888913D02*
X163713390Y-89888913D01*
X163713390Y-89888913D02*
X163522914Y-89841294D01*
X163522914Y-89841294D02*
X163427676Y-89793675D01*
X163427676Y-89793675D02*
X163332438Y-89698437D01*
X163332438Y-89698437D02*
X163284819Y-89555580D01*
X163284819Y-89555580D02*
X163284819Y-89460342D01*
X163284819Y-89460342D02*
X163332438Y-89317485D01*
X163332438Y-89317485D02*
X163380057Y-89269866D01*
X163618152Y-88412723D02*
X164284819Y-88412723D01*
X163237200Y-88650818D02*
X163951485Y-88888913D01*
X163951485Y-88888913D02*
X163951485Y-88269866D01*
X166101733Y-85754380D02*
X166054114Y-85802000D01*
X166054114Y-85802000D02*
X165911257Y-85849619D01*
X165911257Y-85849619D02*
X165816019Y-85849619D01*
X165816019Y-85849619D02*
X165673162Y-85802000D01*
X165673162Y-85802000D02*
X165577924Y-85706761D01*
X165577924Y-85706761D02*
X165530305Y-85611523D01*
X165530305Y-85611523D02*
X165482686Y-85421047D01*
X165482686Y-85421047D02*
X165482686Y-85278190D01*
X165482686Y-85278190D02*
X165530305Y-85087714D01*
X165530305Y-85087714D02*
X165577924Y-84992476D01*
X165577924Y-84992476D02*
X165673162Y-84897238D01*
X165673162Y-84897238D02*
X165816019Y-84849619D01*
X165816019Y-84849619D02*
X165911257Y-84849619D01*
X165911257Y-84849619D02*
X166054114Y-84897238D01*
X166054114Y-84897238D02*
X166101733Y-84944857D01*
X166435067Y-84849619D02*
X167054114Y-84849619D01*
X167054114Y-84849619D02*
X166720781Y-85230571D01*
X166720781Y-85230571D02*
X166863638Y-85230571D01*
X166863638Y-85230571D02*
X166958876Y-85278190D01*
X166958876Y-85278190D02*
X167006495Y-85325809D01*
X167006495Y-85325809D02*
X167054114Y-85421047D01*
X167054114Y-85421047D02*
X167054114Y-85659142D01*
X167054114Y-85659142D02*
X167006495Y-85754380D01*
X167006495Y-85754380D02*
X166958876Y-85802000D01*
X166958876Y-85802000D02*
X166863638Y-85849619D01*
X166863638Y-85849619D02*
X166577924Y-85849619D01*
X166577924Y-85849619D02*
X166482686Y-85802000D01*
X166482686Y-85802000D02*
X166435067Y-85754380D01*
X157914733Y-85455480D02*
X157867114Y-85503100D01*
X157867114Y-85503100D02*
X157724257Y-85550719D01*
X157724257Y-85550719D02*
X157629019Y-85550719D01*
X157629019Y-85550719D02*
X157486162Y-85503100D01*
X157486162Y-85503100D02*
X157390924Y-85407861D01*
X157390924Y-85407861D02*
X157343305Y-85312623D01*
X157343305Y-85312623D02*
X157295686Y-85122147D01*
X157295686Y-85122147D02*
X157295686Y-84979290D01*
X157295686Y-84979290D02*
X157343305Y-84788814D01*
X157343305Y-84788814D02*
X157390924Y-84693576D01*
X157390924Y-84693576D02*
X157486162Y-84598338D01*
X157486162Y-84598338D02*
X157629019Y-84550719D01*
X157629019Y-84550719D02*
X157724257Y-84550719D01*
X157724257Y-84550719D02*
X157867114Y-84598338D01*
X157867114Y-84598338D02*
X157914733Y-84645957D01*
X158295686Y-84645957D02*
X158343305Y-84598338D01*
X158343305Y-84598338D02*
X158438543Y-84550719D01*
X158438543Y-84550719D02*
X158676638Y-84550719D01*
X158676638Y-84550719D02*
X158771876Y-84598338D01*
X158771876Y-84598338D02*
X158819495Y-84645957D01*
X158819495Y-84645957D02*
X158867114Y-84741195D01*
X158867114Y-84741195D02*
X158867114Y-84836433D01*
X158867114Y-84836433D02*
X158819495Y-84979290D01*
X158819495Y-84979290D02*
X158248067Y-85550719D01*
X158248067Y-85550719D02*
X158867114Y-85550719D01*
X154722533Y-89056380D02*
X154674914Y-89104000D01*
X154674914Y-89104000D02*
X154532057Y-89151619D01*
X154532057Y-89151619D02*
X154436819Y-89151619D01*
X154436819Y-89151619D02*
X154293962Y-89104000D01*
X154293962Y-89104000D02*
X154198724Y-89008761D01*
X154198724Y-89008761D02*
X154151105Y-88913523D01*
X154151105Y-88913523D02*
X154103486Y-88723047D01*
X154103486Y-88723047D02*
X154103486Y-88580190D01*
X154103486Y-88580190D02*
X154151105Y-88389714D01*
X154151105Y-88389714D02*
X154198724Y-88294476D01*
X154198724Y-88294476D02*
X154293962Y-88199238D01*
X154293962Y-88199238D02*
X154436819Y-88151619D01*
X154436819Y-88151619D02*
X154532057Y-88151619D01*
X154532057Y-88151619D02*
X154674914Y-88199238D01*
X154674914Y-88199238D02*
X154722533Y-88246857D01*
X155674914Y-89151619D02*
X155103486Y-89151619D01*
X155389200Y-89151619D02*
X155389200Y-88151619D01*
X155389200Y-88151619D02*
X155293962Y-88294476D01*
X155293962Y-88294476D02*
X155198724Y-88389714D01*
X155198724Y-88389714D02*
X155103486Y-88437333D01*
D12*
%TO.C,R25*%
X150191736Y-90044600D02*
X150645864Y-90044600D01*
X150191736Y-91514600D02*
X150645864Y-91514600D01*
%TO.C,D1*%
X153380000Y-95334800D02*
X153380000Y-95490800D01*
X153380000Y-97650800D02*
X153380000Y-97806800D01*
X153380000Y-95335284D02*
G75*
G02*
X156612335Y-95492192I1560000J-1235516D01*
G01*
X153899039Y-95490800D02*
G75*
G02*
X155981130Y-95490963I1040961J-1080000D01*
G01*
X155981130Y-97650637D02*
G75*
G02*
X153899039Y-97650800I-1041130J1079837D01*
G01*
X156612335Y-97649408D02*
G75*
G02*
X153380000Y-97806316I-1672335J1078608D01*
G01*
%TO.C,D2*%
X144353400Y-90535200D02*
X144353400Y-91425200D01*
X144353400Y-91425200D02*
X142503400Y-91425200D01*
X144368400Y-88305200D02*
X142518400Y-88305200D01*
X144368400Y-88305200D02*
X144368400Y-89195200D01*
X142128400Y-88315200D02*
X141888400Y-87985200D01*
X142368400Y-87985200D01*
X142128400Y-88315200D01*
G36*
X142128400Y-88315200D02*
G01*
X141888400Y-87985200D01*
X142368400Y-87985200D01*
X142128400Y-88315200D01*
G37*
%TO.C,Q1*%
X138443200Y-91730000D02*
X137963200Y-91730000D01*
X138203200Y-91400000D01*
X138443200Y-91730000D01*
G36*
X138443200Y-91730000D02*
G01*
X137963200Y-91730000D01*
X138203200Y-91400000D01*
X138443200Y-91730000D01*
G37*
X135963200Y-91410000D02*
X135963200Y-90520000D01*
X135963200Y-91410000D02*
X137813200Y-91410000D01*
X135978200Y-88290000D02*
X137828200Y-88290000D01*
X135978200Y-89180000D02*
X135978200Y-88290000D01*
%TO.C,J3*%
X91936000Y-84880000D02*
X91936000Y-83820000D01*
X92996000Y-84880000D02*
X91936000Y-84880000D01*
X93996000Y-84880000D02*
X96056000Y-84880000D01*
X93996000Y-84880000D02*
X93996000Y-82760000D01*
X96056000Y-84880000D02*
X96056000Y-82760000D01*
X93996000Y-82760000D02*
X96056000Y-82760000D01*
%TO.C,R24*%
X153982664Y-84097800D02*
X153528536Y-84097800D01*
X153982664Y-82627800D02*
X153528536Y-82627800D01*
%TO.C,R23*%
X145822936Y-85625000D02*
X146277064Y-85625000D01*
X145822936Y-87095000D02*
X146277064Y-87095000D01*
%TO.C,R22*%
X140832064Y-83085000D02*
X140377936Y-83085000D01*
X140832064Y-84555000D02*
X140377936Y-84555000D01*
%TO.C,J4*%
X137950000Y-82760000D02*
X137950000Y-83820000D01*
X136890000Y-82760000D02*
X137950000Y-82760000D01*
X135890000Y-82760000D02*
X133830000Y-82760000D01*
X135890000Y-82760000D02*
X135890000Y-84880000D01*
X133830000Y-82760000D02*
X133830000Y-84880000D01*
X135890000Y-84880000D02*
X133830000Y-84880000D01*
%TO.C,C16*%
X118251248Y-91340000D02*
X118773752Y-91340000D01*
X118251248Y-92810000D02*
X118773752Y-92810000D01*
%TO.C,C15*%
X155484552Y-91514600D02*
X154962048Y-91514600D01*
X155484552Y-90044600D02*
X154962048Y-90044600D01*
%TO.C,C14*%
X105504348Y-98375800D02*
X106026852Y-98375800D01*
X105504348Y-99845800D02*
X106026852Y-99845800D01*
%TO.C,C13*%
X141231252Y-87095000D02*
X140708748Y-87095000D01*
X141231252Y-85625000D02*
X140708748Y-85625000D01*
%TO.C,C12*%
X170252848Y-88622200D02*
X170775352Y-88622200D01*
X170252848Y-90092200D02*
X170775352Y-90092200D01*
D11*
%TO.C,RV3*%
X135510000Y-106600000D02*
X151510000Y-106600000D01*
%TO.C,RV2*%
X112650000Y-106600000D02*
X128650000Y-106600000D01*
%TO.C,RV1*%
X158370000Y-106600000D02*
X174370000Y-106600000D01*
D12*
%TO.C,U2*%
X110790000Y-90062500D02*
X110790000Y-92262500D01*
X110790000Y-90062500D02*
X110790000Y-87862500D01*
X116010000Y-90062500D02*
X116010000Y-92262500D01*
X116010000Y-90062500D02*
X116010000Y-87862500D01*
X110990000Y-92962500D02*
X110660000Y-93202500D01*
X110660000Y-92722500D01*
X110990000Y-92962500D01*
G36*
X110990000Y-92962500D02*
G01*
X110660000Y-93202500D01*
X110660000Y-92722500D01*
X110990000Y-92962500D01*
G37*
%TO.C,U1*%
X157846400Y-89745900D02*
X157846400Y-91945900D01*
X157846400Y-89745900D02*
X157846400Y-87545900D01*
X163066400Y-89745900D02*
X163066400Y-91945900D01*
X163066400Y-89745900D02*
X163066400Y-87545900D01*
X158046400Y-92645900D02*
X157716400Y-92885900D01*
X157716400Y-92405900D01*
X158046400Y-92645900D01*
G36*
X158046400Y-92645900D02*
G01*
X157716400Y-92885900D01*
X157716400Y-92405900D01*
X158046400Y-92645900D01*
G37*
D11*
%TO.C,RV4*%
X89790000Y-106600000D02*
X105790000Y-106600000D01*
D12*
%TO.C,R21*%
X93657936Y-86387000D02*
X94112064Y-86387000D01*
X93657936Y-87857000D02*
X94112064Y-87857000D01*
%TO.C,R20*%
X94128064Y-92429000D02*
X93673936Y-92429000D01*
X94128064Y-90959000D02*
X93673936Y-90959000D01*
%TO.C,R19*%
X129767064Y-86460000D02*
X129312936Y-86460000D01*
X129767064Y-84990000D02*
X129312936Y-84990000D01*
%TO.C,R18*%
X98156536Y-91009800D02*
X98610664Y-91009800D01*
X98156536Y-92479800D02*
X98610664Y-92479800D01*
%TO.C,R17*%
X102576136Y-91009800D02*
X103030264Y-91009800D01*
X102576136Y-92479800D02*
X103030264Y-92479800D01*
%TO.C,R16*%
X108447064Y-87984000D02*
X107992936Y-87984000D01*
X108447064Y-86514000D02*
X107992936Y-86514000D01*
%TO.C,R15*%
X106078264Y-96137400D02*
X105624136Y-96137400D01*
X106078264Y-94667400D02*
X105624136Y-94667400D01*
%TO.C,R14*%
X115522936Y-83415000D02*
X115977064Y-83415000D01*
X115522936Y-84885000D02*
X115977064Y-84885000D01*
%TO.C,R13*%
X110622936Y-83415000D02*
X111077064Y-83415000D01*
X110622936Y-84885000D02*
X111077064Y-84885000D01*
%TO.C,R12*%
X119877064Y-86685000D02*
X119422936Y-86685000D01*
X119877064Y-85215000D02*
X119422936Y-85215000D01*
%TO.C,R11*%
X132424664Y-99083800D02*
X131970536Y-99083800D01*
X132424664Y-97613800D02*
X131970536Y-97613800D01*
%TO.C,R10*%
X125322064Y-86460000D02*
X124867936Y-86460000D01*
X125322064Y-84990000D02*
X124867936Y-84990000D01*
%TO.C,R9*%
X134627064Y-102285000D02*
X134172936Y-102285000D01*
X134627064Y-100815000D02*
X134172936Y-100815000D01*
%TO.C,R8*%
X113037864Y-102285000D02*
X112583736Y-102285000D01*
X113037864Y-100815000D02*
X112583736Y-100815000D01*
%TO.C,R7*%
X151677064Y-102385000D02*
X151222936Y-102385000D01*
X151677064Y-100915000D02*
X151222936Y-100915000D01*
%TO.C,R6*%
X130427064Y-102285000D02*
X129972936Y-102285000D01*
X130427064Y-100815000D02*
X129972936Y-100815000D01*
%TO.C,R5*%
X170797464Y-92330600D02*
X170343336Y-92330600D01*
X170797464Y-93800600D02*
X170343336Y-93800600D01*
%TO.C,R4*%
X165955736Y-92327400D02*
X166409864Y-92327400D01*
X165955736Y-90857400D02*
X166409864Y-90857400D01*
%TO.C,R3*%
X170610264Y-87735000D02*
X170156136Y-87735000D01*
X170610264Y-86265000D02*
X170156136Y-86265000D01*
%TO.C,R2*%
X162004336Y-82660900D02*
X162458464Y-82660900D01*
X162004336Y-84130900D02*
X162458464Y-84130900D01*
%TO.C,R1*%
X150140936Y-86234600D02*
X150595064Y-86234600D01*
X150140936Y-87704600D02*
X150595064Y-87704600D01*
%TO.C,J2*%
X170500000Y-84880000D02*
X168440000Y-84880000D01*
X168440000Y-82760000D02*
X168440000Y-84880000D01*
X170500000Y-82760000D02*
X170500000Y-84880000D01*
X170500000Y-82760000D02*
X168440000Y-82760000D01*
X171500000Y-82760000D02*
X172560000Y-82760000D01*
X172560000Y-82760000D02*
X172560000Y-83820000D01*
%TO.C,J1*%
X148878800Y-84880000D02*
X146818800Y-84880000D01*
X146818800Y-82760000D02*
X146818800Y-84880000D01*
X148878800Y-82760000D02*
X148878800Y-84880000D01*
X148878800Y-82760000D02*
X146818800Y-82760000D01*
X149878800Y-82760000D02*
X150938800Y-82760000D01*
X150938800Y-82760000D02*
X150938800Y-83820000D01*
%TO.C,C11*%
X93623748Y-88673000D02*
X94146252Y-88673000D01*
X93623748Y-90143000D02*
X94146252Y-90143000D01*
%TO.C,C10*%
X98528000Y-82954000D02*
X98528000Y-85194000D01*
X98528000Y-82954000D02*
X105768000Y-82954000D01*
X98528000Y-85194000D02*
X105768000Y-85194000D01*
X105768000Y-82954000D02*
X105768000Y-85194000D01*
%TO.C,C9*%
X105728000Y-88369000D02*
X105728000Y-86129000D01*
X105728000Y-88369000D02*
X98488000Y-88369000D01*
X105728000Y-86129000D02*
X98488000Y-86129000D01*
X98488000Y-88369000D02*
X98488000Y-86129000D01*
%TO.C,C8*%
X131850000Y-90020000D02*
X131850000Y-87780000D01*
X131850000Y-90020000D02*
X124610000Y-90020000D01*
X131850000Y-87780000D02*
X124610000Y-87780000D01*
X124610000Y-90020000D02*
X124610000Y-87780000D01*
%TO.C,C7*%
X131890000Y-90955000D02*
X131890000Y-93195000D01*
X124650000Y-93195000D02*
X131890000Y-93195000D01*
X124650000Y-90955000D02*
X131890000Y-90955000D01*
X124650000Y-90955000D02*
X124650000Y-93195000D01*
%TO.C,C6*%
X122816252Y-94080000D02*
X122293748Y-94080000D01*
X122816252Y-92610000D02*
X122293748Y-92610000D01*
%TO.C,C5*%
X157944452Y-100963400D02*
X157421948Y-100963400D01*
X157944452Y-99493400D02*
X157421948Y-99493400D01*
%TO.C,C4*%
X165934848Y-88622200D02*
X166457352Y-88622200D01*
X165934848Y-90092200D02*
X166457352Y-90092200D01*
%TO.C,C3*%
X166508152Y-86285400D02*
X165985648Y-86285400D01*
X166508152Y-87755400D02*
X165985648Y-87755400D01*
%TO.C,C2*%
X157682648Y-82660900D02*
X158205152Y-82660900D01*
X157682648Y-84130900D02*
X158205152Y-84130900D01*
%TO.C,C1*%
X154344648Y-86234600D02*
X154867152Y-86234600D01*
X154344648Y-87704600D02*
X154867152Y-87704600D01*
%TD*%
M02*
