M48
; DRILL file {KiCad 8.0.6} date 2024-11-09T16:50:12-0600
; FORMAT={-:-/ absolute / inch / decimal}
; #@! TF.CreationDate,2024-11-09T16:50:12-06:00
; #@! TF.GenerationSoftware,Kicad,Pcbnew,8.0.6
; #@! TF.FileFunction,Plated,1,2,PTH
FMAT,2
INCH
; #@! TA.AperFunction,Plated,PTH,ViaDrill
T1C0.0118
; #@! TA.AperFunction,Plated,PTH,ComponentDrill
T2C0.0315
; #@! TA.AperFunction,Plated,PTH,ComponentDrill
T3C0.0354
; #@! TA.AperFunction,Plated,PTH,ComponentDrill
T4C0.0520
%
G90
G05
T1
X4.254Y-3.904
X4.438Y-3.7064
X4.438Y-3.786
X4.46Y-3.38
X4.68Y-3.67
X4.756Y-3.48
X4.758Y-3.606
X5.02Y-3.4311
X5.06Y-3.43
X5.06Y-3.58
X5.68Y-3.618
X5.748Y-3.6178
X6.016Y-3.6178
X6.016Y-3.692
X6.02Y-3.572
X6.3204Y-3.4698
X6.4692Y-3.5588
X6.628Y-3.56
T2
X3.6613Y-3.3
X3.74Y-3.3
X3.9216Y-3.435
X3.9231Y-3.31
X4.1184Y-3.435
X4.12Y-3.31
X4.95Y-3.5
X4.9516Y-3.625
X5.1469Y-3.5
X5.1484Y-3.625
X5.3106Y-3.3
X5.3894Y-3.3
X5.822Y-3.3
X5.9007Y-3.3
X6.6732Y-3.3
X6.752Y-3.3
T3
X6.05Y-3.802
X6.15Y-3.802
T4
X3.7024Y-3.8031
X3.7024Y-4.0
X3.85Y-3.8031
X3.85Y-4.0
X3.9976Y-3.8031
X3.9976Y-4.0
X4.6024Y-3.8031
X4.6024Y-4.0
X4.75Y-3.8031
X4.75Y-4.0
X4.8976Y-3.8031
X4.8976Y-4.0
X5.5024Y-3.8031
X5.5024Y-4.0
X5.65Y-3.8031
X5.65Y-4.0
X5.7976Y-3.8031
X5.7976Y-4.0
X6.4024Y-3.8031
X6.4024Y-4.0
X6.55Y-3.8031
X6.55Y-4.0
X6.6976Y-3.8031
X6.6976Y-4.0
M30
