%TF.GenerationSoftware,KiCad,Pcbnew,8.0.6*%
%TF.CreationDate,2024-11-09T16:50:09-06:00*%
%TF.ProjectId,Channel Two v2,4368616e-6e65-46c2-9054-776f2076322e,rev?*%
%TF.SameCoordinates,Original*%
%TF.FileFunction,Soldermask,Bot*%
%TF.FilePolarity,Negative*%
%FSLAX46Y46*%
G04 Gerber Fmt 4.6, Leading zero omitted, Abs format (unit mm)*
G04 Created by KiCad (PCBNEW 8.0.6) date 2024-11-09 16:50:09*
%MOMM*%
%LPD*%
G01*
G04 APERTURE LIST*
%ADD10R,1.800000X1.800000*%
%ADD11C,1.800000*%
%ADD12R,1.350000X1.350000*%
%ADD13O,1.350000X1.350000*%
%ADD14C,2.900000*%
%ADD15C,1.600000*%
G04 APERTURE END LIST*
D10*
%TO.C,D1*%
X153670000Y-96570800D03*
D11*
X156210000Y-96570800D03*
%TD*%
D12*
%TO.C,J3*%
X92996000Y-83820000D03*
D13*
X94996000Y-83820000D03*
%TD*%
D12*
%TO.C,J4*%
X136890000Y-83820000D03*
D13*
X134890000Y-83820000D03*
%TD*%
D14*
%TO.C,RV3*%
X147260000Y-101600000D03*
X143510000Y-101600000D03*
X139760000Y-101600000D03*
X139760000Y-96600000D03*
X143510000Y-96600000D03*
X147260000Y-96600000D03*
%TD*%
%TO.C,RV2*%
X124400000Y-101600000D03*
X120650000Y-101600000D03*
X116900000Y-101600000D03*
X116900000Y-96600000D03*
X120650000Y-96600000D03*
X124400000Y-96600000D03*
%TD*%
%TO.C,RV1*%
X170120000Y-101600000D03*
X166370000Y-101600000D03*
X162620000Y-101600000D03*
X162620000Y-96600000D03*
X166370000Y-96600000D03*
X170120000Y-96600000D03*
%TD*%
%TO.C,RV4*%
X94040000Y-101600000D03*
X97790000Y-101600000D03*
X101540000Y-101600000D03*
X94040000Y-96600000D03*
X97790000Y-96600000D03*
X101540000Y-96600000D03*
%TD*%
D13*
%TO.C,J2*%
X169500000Y-83820000D03*
D12*
X171500000Y-83820000D03*
%TD*%
D13*
%TO.C,J1*%
X147878800Y-83820000D03*
D12*
X149878800Y-83820000D03*
%TD*%
D15*
%TO.C,C10*%
X99648000Y-84074000D03*
X104648000Y-84074000D03*
%TD*%
%TO.C,C9*%
X104608000Y-87249000D03*
X99608000Y-87249000D03*
%TD*%
%TO.C,C8*%
X130730000Y-88900000D03*
X125730000Y-88900000D03*
%TD*%
%TO.C,C7*%
X130770000Y-92075000D03*
X125770000Y-92075000D03*
%TD*%
M02*
